<svg width="133" height="73" viewBox="0 0 133 73" fill="none" xmlns="http://www.w3.org/2000/svg">
<g clip-path="url(#clip0_88_59)">
<path d="M53.6916 17.9885C53.6916 8.21841 45.7784 0.296875 35.9998 0.296875C26.2296 0.296875 18.3081 8.21841 18.3081 17.9885C18.3081 27.7588 26.2296 35.6802 35.9998 35.6802C45.7788 35.6802 53.6916 27.7588 53.6916 17.9885ZM22.7308 18.3713C22.7308 18.3713 22.2206 13.353 25.8354 9.5254C28.3796 12.0757 35.9998 18.3713 49.2687 18.3713C49.2687 25.6884 43.3165 31.6403 35.9998 31.6403C28.683 31.6403 22.7308 25.6881 22.7308 18.3713Z" fill="white"/>
<path d="M5.63477 49.2895V57.1146V67.2362C5.63477 70.0337 7.90328 72.2969 10.6955 72.2969H61.3043C64.1017 72.2969 66.365 70.0333 66.365 67.2362V57.1146V49.2895C66.365 43.6998 61.8379 39.1679 56.2434 39.1679H47.2701C46.636 39.1679 45.8367 39.5959 45.4851 40.1234L36.6373 52.6295C36.2856 53.1573 35.7152 53.1573 35.3635 52.6295L26.5153 40.1229C26.1636 39.595 25.3643 39.1675 24.7301 39.1675H15.7564C10.1715 39.1675 5.63477 43.6996 5.63477 49.2895Z" fill="white"/>
</g>
<path d="M120.057 17.9885C120.057 8.21841 112.144 0.296875 102.365 0.296875C92.5949 0.296875 84.6733 8.21841 84.6733 17.9885C84.6733 27.7588 92.5949 35.6802 102.365 35.6802C112.144 35.6802 120.057 27.7588 120.057 17.9885ZM89.096 18.3713C89.096 18.3713 88.5858 13.353 92.2006 9.5254C94.7448 12.0757 102.365 18.3713 115.634 18.3713C115.634 25.6884 109.682 31.6403 102.365 31.6403C95.0483 31.6403 89.096 25.6881 89.096 18.3713Z" fill="white"/>
<path d="M72 49.2895V57.1146V67.2362C72 70.0337 74.2685 72.2969 77.0607 72.2969H127.669C130.467 72.2969 132.73 70.0333 132.73 67.2362V57.1146V49.2895C132.73 43.6998 128.203 39.1679 122.609 39.1679H113.635C113.001 39.1679 112.202 39.5959 111.85 40.1234L103.003 52.6295C102.651 53.1573 102.08 53.1573 101.729 52.6295L92.8805 40.1229C92.5288 39.595 91.7295 39.1675 91.0954 39.1675H82.1216C76.5368 39.1675 72 43.6996 72 49.2895Z" fill="white"/>
<defs>
<clipPath id="clip0_88_59">
<rect width="72" height="72" fill="white" transform="translate(0 0.296875)"/>
</clipPath>
</defs>
</svg>
