<svg width="190" height="190" viewBox="0 0 190 190" fill="none" xmlns="http://www.w3.org/2000/svg">
<path d="M160.078 16.3651L109.189 67.2524L111.514 69.577C112.032 71.2083 113.062 72.9079 114.551 74.3982C116.04 75.8855 117.741 76.9172 119.371 77.4338L121.377 79.4421L172.293 28.528C174.509 26.3104 173.801 22.0562 170.348 18.602C166.893 15.1479 162.294 14.1474 160.078 16.3651Z" fill="black"/>
<path d="M121.377 82.4109C120.589 82.4109 119.834 82.0977 119.277 81.5411L117.748 80.0107C115.851 79.2818 114.034 78.0795 112.453 76.4986C110.872 74.9163 109.67 73.0994 108.94 71.2009L107.092 69.3529C106.535 68.7959 106.222 68.0407 106.222 67.2532C106.222 66.4658 106.535 65.7105 107.092 65.1536L157.981 14.2662C159.319 12.9258 161.136 12.2178 163.234 12.2178C166.32 12.2178 169.764 13.8209 172.447 16.5046C177.027 21.0839 177.862 27.155 174.395 30.627L123.478 81.5411C122.92 82.0975 122.165 82.4103 121.377 82.4109ZM113.388 67.2525L113.613 67.4766C113.95 67.8136 114.2 68.2247 114.343 68.6789C114.736 69.9184 115.556 71.2039 116.651 72.2993C117.744 73.3918 119.031 74.2112 120.267 74.6031C120.678 74.7337 121.058 74.9519 121.376 75.2443L170.194 26.4292C171.088 25.5341 170.509 22.9632 168.248 20.7025C166.367 18.8218 164.372 18.1553 163.232 18.1553C162.891 18.1553 162.434 18.2087 162.177 18.464L113.388 67.2525Z" fill="white" fill-opacity="0.89"/>
<path d="M125.569 13.698L115.91 23.3568L124.566 32.0152C126.843 37.739 130.9 43.865 136.445 49.4121C141.992 54.9592 148.117 59.0145 153.844 61.29L163.4 70.845L173.059 61.1861C179.918 54.3268 174.148 37.4406 161.283 24.5755C148.417 11.7104 132.426 6.83871 125.569 13.698Z" fill="black"/>
<path d="M163.399 73.8148C163.009 73.8153 162.623 73.7389 162.263 73.5898C161.902 73.4408 161.575 73.2222 161.3 72.9464L152.169 63.8175C145.997 61.257 139.848 57.0146 134.346 51.5135C128.847 46.0139 124.604 39.8656 122.042 33.6921L113.812 25.4583C113.255 24.9016 112.942 24.1466 112.942 23.3594C112.942 22.5722 113.255 21.8172 113.812 21.2605L123.47 11.6017C126.071 8.99955 129.757 7.62354 134.127 7.62354C143.009 7.62354 154.219 13.3161 163.382 22.4792C177.88 36.9771 183.162 55.2853 175.158 63.2891L165.499 72.9479C165.223 73.2232 164.895 73.4415 164.535 73.5903C164.175 73.739 163.789 73.8153 163.399 73.8148ZM120.108 23.3579L126.665 29.9174C126.95 30.2024 127.175 30.5438 127.324 30.9193C129.528 36.4605 133.514 42.2822 138.544 47.3142C143.578 52.3463 149.399 56.3303 154.941 58.5331C155.316 58.6831 155.656 58.9057 155.943 59.1922L163.399 66.6482L170.959 59.0883C175.829 54.2181 171.828 39.3209 159.183 26.6755C151.215 18.7074 141.379 13.5596 134.125 13.5596C131.326 13.5596 129.153 14.3121 127.667 15.798L120.108 23.3579Z" fill="white" fill-opacity="0.89"/>
<path d="M127.269 59.4833C130.388 62.6016 133.796 65.3682 137.301 67.6251C140.806 69.882 144.339 71.5849 147.697 72.6368C151.055 73.6886 154.173 74.0687 156.873 73.7553C159.573 73.442 161.802 72.4413 163.433 70.8105C165.064 69.1796 166.065 66.9506 166.378 64.2505C166.691 61.5505 166.311 58.4324 165.259 55.0743C164.207 51.7162 162.504 48.1838 160.247 44.6789C157.99 41.174 155.223 37.7651 152.105 34.647C148.987 31.5287 145.578 28.7621 142.073 26.5052C138.568 24.2484 135.035 22.5454 131.677 21.4936C128.319 20.4417 125.201 20.0616 122.501 20.375C119.801 20.6884 117.572 21.689 115.941 23.3199C114.31 24.9507 113.31 27.1798 112.996 29.8798C112.683 32.5798 113.063 35.6979 114.115 39.056C115.167 42.4141 116.87 45.9465 119.127 49.4514C121.384 52.9564 124.151 56.3652 127.269 59.4833Z" fill="black"/>
<path d="M154.994 76.8371C146.006 76.8371 134.579 70.9917 125.171 61.5837C118.496 54.9085 113.565 47.2253 111.285 39.946C108.799 32.0105 109.709 25.3605 113.847 21.2236C116.418 18.6541 120.061 17.2959 124.385 17.2959C133.373 17.2959 144.801 23.1414 154.209 32.5479C160.884 39.2231 165.815 46.9077 168.095 54.1856C170.581 62.1225 169.673 68.7711 165.533 72.908C162.964 75.4789 159.319 76.8371 154.994 76.8371ZM124.383 23.2334C121.63 23.2334 119.497 23.9696 118.043 25.4214C115.582 27.8825 115.183 32.53 116.951 38.1707C118.949 44.552 123.359 51.3757 129.369 57.3844C137.578 65.593 147.637 70.8982 154.994 70.8982C157.749 70.8982 159.882 70.1619 161.334 68.7102C163.795 66.2491 164.194 61.6015 162.426 55.9609C160.427 49.5811 156.018 42.7559 150.008 36.7457C141.799 28.5386 131.741 23.2334 124.383 23.2334Z" fill="white" fill-opacity="0.89"/>
<path d="M102.504 19.7169L89.3787 32.8433L101.145 44.6099C104.237 52.391 109.75 60.7154 117.286 68.2515C124.823 75.7892 133.148 81.3007 140.93 84.3941L153.913 97.3794L167.04 84.2531C176.36 74.9297 168.524 51.9843 151.041 34.4998C133.555 17.0139 111.825 10.3936 102.504 19.7169Z" fill="black"/>
<path d="M153.913 100.347C153.126 100.346 152.371 100.033 151.815 99.4767L139.258 86.9203C130.932 83.5048 122.621 77.7855 115.188 70.3503C107.751 62.9135 102.033 54.604 98.619 46.2811L87.2799 34.942C86.7233 34.3853 86.4106 33.6303 86.4106 32.8431C86.4106 32.0559 86.7233 31.3009 87.2799 30.7442L100.405 17.6178C103.739 14.2839 108.487 12.522 114.135 12.522C125.933 12.522 140.879 20.1383 153.139 32.3992C172.422 51.6828 179.599 75.8855 169.137 86.3503L156.011 99.4767C155.736 99.7524 155.409 99.9711 155.049 100.12C154.689 100.27 154.303 100.346 153.913 100.347ZM93.5766 32.8431L103.244 42.5108C103.529 42.7958 103.755 43.1372 103.903 43.5128C106.948 51.1721 112.446 59.2115 119.385 66.1524C126.323 73.0904 134.364 78.59 142.025 81.6345C142.402 81.7844 142.742 82.0071 143.029 82.2935L153.913 93.1785L164.941 82.1525C172.811 74.2794 165.336 52.992 148.942 36.5971C137.755 25.4093 124.419 18.4595 114.137 18.4595C110.038 18.4595 106.831 19.5891 104.604 21.8156L93.5766 32.8431Z" fill="white" fill-opacity="0.89"/>
<path d="M166.081 164.92C166.081 173.271 134.4 180.041 95.3236 180.041C56.2459 180.041 24.5679 173.271 24.5679 164.92C24.5679 156.569 56.7402 150.416 95.8179 150.416C134.894 150.418 166.081 156.569 166.081 164.92Z" fill="black"/>
<path d="M105.015 81.74C113.573 90.298 123.559 96.7272 132.775 99.6135C141.992 102.5 149.684 101.607 154.16 97.1307C158.636 92.6546 159.529 84.9623 156.642 75.7459C153.756 66.5295 147.326 56.544 138.768 47.986C130.21 39.4281 120.224 32.9988 111.007 30.1125C101.791 27.2262 94.0985 28.1193 89.6226 32.5954C85.1467 37.0715 84.2538 44.7638 87.1405 53.9802C90.0271 63.1966 96.4567 73.1821 105.015 81.74Z" fill="black"/>
<path d="M142.693 104.253C130.751 104.253 115.51 96.4307 102.916 83.8388C83.6445 64.5671 76.8847 41.1363 87.5247 30.4963C90.8126 27.2099 95.5032 25.4717 101.093 25.4717C113.035 25.4717 128.277 33.2943 140.869 45.8863C149.821 54.8386 156.429 65.1268 159.477 74.8583C162.731 85.246 161.589 93.9028 156.26 99.2288C152.972 102.517 148.282 104.253 142.693 104.253ZM101.093 31.4092C97.0559 31.4092 93.9045 32.515 91.724 34.6941C83.7143 42.7038 90.7636 63.2861 107.115 79.6395C118.462 90.9846 132.427 98.3159 142.694 98.3159C146.73 98.3159 149.883 97.21 152.064 95.031C155.753 91.3423 156.373 84.8081 153.814 76.6321C151.047 67.7986 144.96 58.3714 136.672 50.0841C125.324 38.7405 111.361 31.4092 101.093 31.4092Z" fill="white" fill-opacity="0.89"/>
<path d="M115.532 60.91L64.6445 111.797L66.9691 114.122C67.4871 115.753 68.5173 117.454 70.0061 118.943C71.4934 120.43 73.196 121.462 74.8259 121.979L76.8327 123.986L127.747 73.0715C129.964 70.8538 129.255 66.5996 125.802 63.1469C122.348 59.6928 117.75 58.6923 115.532 60.91Z" fill="black"/>
<path d="M76.8328 126.954C76.0455 126.954 75.2905 126.641 74.7339 126.084L73.2021 124.554C71.3035 123.824 69.4852 122.62 67.9073 121.042C66.3264 119.463 65.1226 117.644 64.3938 115.744L62.5457 113.896C61.9892 113.34 61.6765 112.585 61.6765 111.797C61.6765 111.01 61.9892 110.255 62.5457 109.698L113.433 58.8111C114.773 57.4707 116.59 56.7627 118.686 56.7627C121.772 56.7627 125.216 58.3658 127.901 61.0496C129.973 63.1218 131.364 65.5992 131.819 68.0276C132.338 70.796 131.618 73.401 129.846 75.1719L78.9317 126.084C78.3751 126.641 77.6201 126.954 76.8328 126.954ZM68.8439 111.797L69.0681 112.023C69.4041 112.359 69.6546 112.771 69.7984 113.224C70.1917 114.463 71.0111 115.75 72.1051 116.844C73.1991 117.937 74.4846 118.756 75.724 119.149C76.1352 119.28 76.5137 119.498 76.8313 119.789L125.648 70.9726C126.148 70.4724 126.073 69.5966 125.983 69.1186C125.747 67.8554 124.937 66.4794 123.705 65.2459C121.824 63.3652 119.828 62.6987 118.688 62.6987C118.348 62.6987 117.889 62.7521 117.632 63.0075L68.8439 111.797Z" fill="white" fill-opacity="0.89"/>
<path d="M34.307 87.9123L21.1821 101.039L32.9488 112.805C36.0422 120.586 41.5537 128.911 49.0913 136.448C56.629 143.986 64.9534 149.496 72.7345 152.59L85.7183 165.573L98.8446 152.447C108.165 143.125 100.33 120.18 82.8446 102.694C65.3571 85.2108 43.6303 78.5904 34.307 87.9123Z" fill="black"/>
<path d="M85.7167 168.544C84.9294 168.544 84.1744 168.231 83.6178 167.674L71.0614 155.118C62.7356 151.701 54.4246 145.981 46.9923 138.549C39.5571 131.114 33.8378 122.803 30.4222 114.478L19.0831 103.139C18.5265 102.582 18.2139 101.828 18.2139 101.04C18.2139 100.253 18.5265 99.4981 19.0831 98.9414L32.2079 85.8151C35.5418 82.4812 40.2889 80.7207 45.9384 80.7207C57.7362 80.7207 72.6809 88.337 84.9418 100.598C104.227 119.881 111.405 144.084 100.942 154.549L87.8156 167.675C87.2583 168.231 86.5036 168.543 85.7167 168.544ZM25.3798 101.039L35.0475 110.707C35.334 110.992 35.5582 111.333 35.7066 111.709C38.7525 119.369 44.2507 127.41 51.1901 134.35C58.1266 141.286 66.1674 146.784 73.8298 149.832C74.2053 149.982 74.5467 150.206 74.8317 150.491L85.7167 161.374L96.7441 150.347C104.616 142.474 97.1389 121.188 80.744 104.793C69.5563 93.6051 56.2192 86.6552 45.9384 86.6552C41.84 86.6552 38.6323 87.7848 36.4057 90.0114L25.3798 101.039Z" fill="white" fill-opacity="0.89"/>
<path d="M37.5084 149.249C41.7458 153.486 46.3783 157.245 51.1413 160.312C55.9043 163.379 60.7046 165.693 65.2681 167.122C69.8315 168.551 74.0688 169.067 77.7379 168.641C81.4071 168.215 84.4362 166.855 86.6525 164.638C88.8687 162.422 90.2286 159.393 90.6546 155.724C91.0805 152.055 90.5641 147.817 89.1349 143.254C87.7057 138.691 85.3916 133.89 82.3249 129.127C79.2581 124.364 75.4986 119.732 71.2612 115.495C67.0237 111.258 62.3912 107.498 57.6282 104.432C52.8652 101.365 48.0649 99.0511 43.5015 97.6221C38.938 96.193 34.7007 95.6768 31.0316 96.1028C27.3625 96.5289 24.3333 97.8889 22.117 100.105C19.9008 102.322 18.5409 105.351 18.115 109.02C17.689 112.689 18.2054 116.926 19.6346 121.49C21.0638 126.053 23.3779 130.853 26.4447 135.616C29.5115 140.379 33.2709 145.012 37.5084 149.249Z" fill="black"/>
<path d="M75.1866 171.76C63.2448 171.76 48.0032 163.936 35.4128 151.344C26.4605 142.393 19.8521 132.103 16.8032 122.372C13.5494 111.983 14.6924 103.329 20.0198 98.0012C23.3062 94.7148 27.9983 92.9766 33.5855 92.9766C45.5273 92.9766 60.7689 100.799 73.3608 113.391C82.3131 122.343 88.9215 132.632 91.9704 142.363C95.2227 152.752 94.0812 161.406 88.7523 166.735C85.4659 170.022 80.7753 171.76 75.1866 171.76ZM33.587 98.9155C29.551 98.9155 26.3996 100.021 24.2191 102.2C20.5304 105.889 19.9085 112.423 22.469 120.599C25.2359 129.431 31.3233 138.86 39.6106 147.147C50.9557 158.492 64.9192 165.824 75.1866 165.824C79.2226 165.824 82.3754 164.718 84.556 162.539C88.2446 158.85 88.8651 152.316 86.3046 144.14C83.5377 135.306 77.4503 125.879 69.1645 117.592C57.8179 106.245 43.8544 98.9155 33.587 98.9155Z" fill="white" fill-opacity="0.89"/>
<path d="M26.9103 112.358L17.25 122.015L25.9084 130.674C28.1854 136.4 32.2407 142.525 37.7863 148.071C43.332 153.616 49.458 157.673 55.1847 159.949L64.7381 169.503L74.3984 159.846C81.2577 152.987 75.4895 136.102 62.6229 123.235C49.7593 110.369 33.7681 105.499 26.9103 112.358Z" fill="black"/>
<path d="M64.738 172.472C64.348 172.473 63.9618 172.396 63.6016 172.247C63.2413 172.098 62.9142 171.879 62.6391 171.602L53.5102 162.473C47.3381 159.914 41.1869 155.67 35.6873 150.169C30.1862 144.67 25.9438 138.52 23.3833 132.348L15.151 124.114C14.8752 123.838 14.6564 123.511 14.5071 123.151C14.3578 122.791 14.281 122.404 14.281 122.014C14.281 121.624 14.3578 121.238 14.5071 120.878C14.6564 120.518 14.8752 120.19 15.151 119.915L24.8113 110.257C27.4134 107.655 31.0976 106.279 35.4676 106.279C44.3501 106.279 55.5601 111.972 64.7231 121.135C79.221 135.631 84.5024 153.938 76.4987 161.943L66.8384 171.602C66.5628 171.878 66.2354 172.097 65.8749 172.247C65.5145 172.396 65.1281 172.472 64.738 172.472ZM21.4492 122.015L28.0071 128.575C28.2936 128.86 28.5178 129.201 28.6662 129.577C30.869 135.116 34.8531 140.939 39.8851 145.971C44.9171 151.004 50.7403 154.988 56.28 157.19C56.6556 157.34 56.997 157.563 57.282 157.849L64.7365 165.304L72.2979 157.744C77.1681 152.874 73.1678 137.977 60.5224 125.333C52.5542 117.365 42.7188 112.215 35.4661 112.215C32.6666 112.215 30.4935 112.968 29.0076 114.454L21.4492 122.015Z" fill="white" fill-opacity="0.89"/>
<path d="M28.6124 158.141C34.9099 164.438 42.2578 169.169 49.0396 171.293C55.8213 173.417 61.4815 172.76 64.7749 169.467C68.0683 166.173 68.7251 160.513 66.6009 153.731C64.4767 146.95 59.7454 139.602 53.4479 133.305C50.3297 130.187 46.9208 127.42 43.4159 125.164C39.9111 122.907 36.3788 121.204 33.0208 120.153C26.239 118.029 20.5788 118.686 17.2854 121.979C13.992 125.273 13.3352 130.933 15.4594 137.714C17.5837 144.496 22.3149 151.844 28.6124 158.141Z" fill="black"/>
<path d="M56.3365 175.494C47.3486 175.494 35.9219 169.649 26.514 160.241C19.8387 153.566 14.9062 145.883 12.6276 138.603C10.1413 130.666 11.0512 124.018 15.1897 119.881C17.7591 117.311 21.4018 115.953 25.7272 115.953C34.7151 115.953 46.1419 121.799 55.5498 131.207C62.2265 137.882 67.1576 145.566 69.4376 152.844C71.924 160.781 71.014 167.43 66.8756 171.567C64.3047 174.136 60.6605 175.494 56.3365 175.494ZM25.7258 121.892C22.9708 121.892 20.8377 122.628 19.386 124.08C16.9249 126.541 16.5256 131.189 18.2935 136.829C20.2915 143.209 24.7015 150.034 30.7118 156.043C38.9219 164.252 48.98 169.557 56.3365 169.557C59.0915 169.557 61.2231 168.821 62.6763 167.369C65.1389 164.906 65.5367 160.26 63.7703 154.62C61.7708 148.24 57.3608 141.415 51.3505 135.404C43.1404 127.196 33.0823 121.892 25.7258 121.892Z" fill="white" fill-opacity="0.89"/>
<path d="M33.1698 143.272L23.0835 153.385L24.8781 156.211C25.3932 157.843 26.4248 159.545 27.9137 161.033C29.401 162.521 31.1021 163.552 32.7349 164.068L34.7418 166.075L45.3847 155.432C47.6009 153.214 46.8914 148.96 43.4387 145.507C39.9846 142.056 35.389 141.054 33.1698 143.272Z" fill="black"/>
<path d="M34.7418 169.047C34.3519 169.048 33.9656 168.971 33.6054 168.822C33.2451 168.673 32.918 168.454 32.6429 168.177L31.1125 166.647C29.214 165.918 27.3956 164.716 25.8148 163.135C24.1404 161.46 22.8876 159.519 22.1766 157.5L20.5764 154.978C20.2153 154.409 20.0586 153.734 20.1323 153.063C20.2059 152.393 20.5055 151.768 20.9816 151.291L31.068 141.178C32.4113 139.835 34.2282 139.125 36.3256 139.125C39.4102 139.125 42.8539 140.728 45.5392 143.412C50.1184 147.991 50.9556 154.062 47.4852 157.534L36.8422 168.177C36.5664 168.453 36.239 168.672 35.8786 168.821C35.5182 168.97 35.1319 169.047 34.7418 169.047ZM26.8627 153.801L27.3838 154.622C27.5218 154.839 27.6316 155.075 27.7088 155.32C28.0992 156.556 28.9171 157.84 30.0126 158.935C31.1066 160.029 32.392 160.849 33.63 161.241C34.0427 161.371 34.4212 161.59 34.7388 161.882L43.2844 153.336C44.178 152.443 43.5991 149.87 41.3384 147.61C39.4577 145.729 37.4612 145.062 36.3242 145.062C35.9842 145.062 35.5241 145.116 35.2673 145.373L26.8627 153.801Z" fill="white" fill-opacity="0.89"/>
<path d="M27.4672 163.309C29.0835 164.925 31.0286 166.08 32.8748 166.52C34.721 166.959 36.3169 166.647 37.3115 165.653C38.3062 164.658 38.618 163.062 38.1784 161.216C37.7388 159.37 36.5839 157.425 34.9676 155.809C33.3513 154.192 31.4061 153.037 29.56 152.598C27.7138 152.158 26.1179 152.47 25.1232 153.465C24.1286 154.46 23.8168 156.055 24.2564 157.902C24.696 159.748 25.8509 161.693 27.4672 163.309Z" fill="black"/>
<path d="M34.4509 169.685C31.4421 169.685 28.0473 168.086 25.3695 165.408C23.3597 163.399 21.9376 160.978 21.3691 158.591C20.6893 155.733 21.2919 153.1 23.0257 151.366C24.2904 150.102 26.0063 149.434 27.9894 149.434C30.9968 149.434 34.3915 151.032 37.0694 153.71C39.0792 155.72 40.5012 158.142 41.0697 160.529C41.7496 163.387 41.1469 166.021 39.4132 167.754C38.1485 169.017 36.4326 169.685 34.4509 169.685ZM27.9894 155.37C27.6317 155.37 27.3452 155.442 27.2235 155.564C27.0394 155.747 26.937 156.342 27.1448 157.213C27.4565 158.525 28.3412 159.982 29.5673 161.208C32.0581 163.7 34.7255 164.038 35.2139 163.553C35.3965 163.37 35.5004 162.775 35.2926 161.904C34.9794 160.592 34.0961 159.134 32.8701 157.908C30.9983 156.035 29.0715 155.37 27.9894 155.37Z" fill="white" fill-opacity="0.89"/>
<path d="M134.127 10.5894C140.543 10.5894 148.688 13.9945 156.321 20.122L160.078 16.3651C160.876 15.5665 161.981 15.1865 163.232 15.1865C165.456 15.1865 168.135 16.3918 170.347 18.6035C173.799 22.0562 174.509 26.3104 172.291 28.5295L168.116 32.7065C175.94 43.826 178.538 55.7084 173.057 61.1887L169.716 64.5301C171.978 72.752 171.338 79.9527 167.038 84.2529L154.167 97.124L154.16 97.1314L154.152 97.1388L153.912 97.3793L153.9 97.3674C151.097 100.018 147.219 101.277 142.685 101.277C134.006 101.277 122.931 96.6608 112.452 88.3647L89.9931 110.825C102.278 126.725 106.771 144.517 98.8414 152.448L86.6547 164.636V164.638L85.7181 165.574L85.6661 165.522C82.9379 167.733 79.3368 168.787 75.1894 168.787C72.5546 168.787 69.6987 168.362 66.7062 167.537L64.7839 169.459L64.778 169.466C64.7753 169.468 64.7728 169.47 64.7706 169.472L64.7424 169.502L64.7394 169.499C62.6717 171.545 59.7668 172.512 56.3601 172.512C50.8902 172.512 44.1259 170.016 37.4507 165.468C37.4002 165.525 37.372 165.597 37.3186 165.652C36.5986 166.372 35.5982 166.714 34.4552 166.714C32.3103 166.714 29.6696 165.503 27.4742 163.308C24.973 160.808 23.7588 157.738 24.1432 155.473L24.0661 153.695L23.7618 152.684C14.3775 140.845 11.3702 127.968 17.2543 122.02L17.2498 122.015L19.2166 120.049C17.0954 112.346 17.6179 105.551 21.2324 101.09L21.1804 101.038L34.3053 87.9119C37.1701 85.0471 41.2076 83.6874 45.9324 83.6889C55.2231 83.6889 67.1768 88.9421 78.1166 98.3233L100.076 76.365C86.1367 59.8691 81.3258 41.3738 89.3889 32.8535L89.3786 32.8431L89.5953 32.6264L89.6235 32.5952L89.6546 32.567L102.503 19.7168C105.367 16.8534 109.401 15.4967 114.125 15.4967C116.746 15.4967 119.58 15.9138 122.542 16.7243L125.569 13.6976C127.677 11.5898 130.647 10.5894 134.127 10.5894ZM134.127 4.65186C128.952 4.65186 124.54 6.3292 121.37 9.50131L120.669 10.2019C118.407 9.77592 116.216 9.56068 114.125 9.56068C107.673 9.56068 102.202 11.621 98.3041 15.519L85.5236 28.3009L85.4613 28.3618L85.3203 28.5058L85.1793 28.6468C85.0214 28.8044 84.8727 28.9709 84.7339 29.1455C75.6392 39.2853 78.7311 57.9469 92.1336 75.9137L77.6861 90.3611C66.9808 82.2995 55.6298 77.7544 45.9339 77.7544C39.4813 77.7544 34.0099 79.8161 30.1075 83.7171L16.9826 96.8434C16.5668 97.258 16.2151 97.7323 15.9391 98.2506C12.3113 103.327 11.1906 110.281 12.6943 118.201C5.19223 126.273 7.3891 140.931 18.185 155.188L18.1864 155.228C17.7753 159.343 19.6396 163.881 23.2734 167.512C26.542 170.78 30.6166 172.656 34.4522 172.656C35.3829 172.656 36.2869 172.542 37.1449 172.321C43.8157 176.296 50.5369 178.456 56.3571 178.456C61.2526 178.456 65.4579 176.94 68.5557 174.067C70.8536 174.506 73.0727 174.727 75.1879 174.727C80.361 174.727 84.9521 173.37 88.5443 170.793C89.0371 170.529 89.5003 170.191 89.9159 169.777L90.8525 168.84L90.8763 168.816L103.041 156.65C112.229 147.462 109.956 129.329 97.7757 111.444L113.029 96.1888C123.184 103.244 133.781 107.218 142.685 107.218C148.654 107.218 153.793 105.432 157.584 102.048C157.764 101.905 157.937 101.752 158.104 101.586L158.34 101.35L158.414 101.276L171.236 88.4537C176.295 83.395 178.03 75.648 176.247 66.3974L177.255 65.3895C184.046 58.597 183.344 46.4044 175.707 33.5126L176.491 32.7288C181.157 28.059 180.32 20.1829 174.545 14.4072C171.269 11.1312 167.145 9.25193 163.232 9.25193C160.372 9.25193 157.761 10.288 155.879 12.1702L155.724 12.3261C148.378 7.40537 140.71 4.65186 134.127 4.65186Z" fill="white" fill-opacity="0.89"/>
</svg>
