<svg width="35" height="35" viewBox="0 0 35 35" fill="none" xmlns="http://www.w3.org/2000/svg">
<path d="M17.4999 3.646C13.8256 3.646 10.3017 5.10563 7.70354 7.70379C5.10538 10.3019 3.64575 13.8258 3.64575 17.5002C3.64575 21.1745 5.10538 24.6984 7.70354 27.2965C10.3017 29.8947 13.8256 31.3543 17.4999 31.3543C21.1743 31.3543 24.6981 29.8947 27.2963 27.2965C29.8945 24.6984 31.3541 21.1745 31.3541 17.5002C31.3541 13.8258 29.8945 10.3019 27.2963 7.70379C24.6981 5.10563 21.1743 3.646 17.4999 3.646Z" fill="#039BE5"/>
<path d="M19.3755 21.172H22.9608L23.5238 17.5298H19.3748V15.5392C19.3748 14.0262 19.8692 12.6845 21.2845 12.6845H23.5587V9.50607C23.1592 9.45211 22.3141 9.33398 20.7172 9.33398C17.3827 9.33398 15.4278 11.0949 15.4278 15.1068V17.5298H12V21.172H15.4278V31.1827C16.1067 31.2848 16.7943 31.3541 17.5001 31.3541C18.1381 31.3541 18.7608 31.2958 19.3755 31.2126V21.172Z" fill="white"/>
</svg>
