<svg width="35" height="35" viewBox="0 0 35 35" fill="none" xmlns="http://www.w3.org/2000/svg">
<path d="M30.3843 9.82917C30.0926 10.0187 29.677 10.1937 29.502 10.3906C29.4364 10.4562 29.3999 10.5292 29.4145 10.6021V11.3531L29.1958 12.0896L28.977 12.8187L28.7364 13.6208L28.2405 15.2615L27.7593 16.8802L27.3947 18.0979C27.3947 18.2875 27.3874 18.4771 27.3728 18.6594C27.3218 19.3594 27.176 20.0302 26.9426 20.6573C26.8041 21.0437 26.6364 21.4156 26.4322 21.7656C26.3593 21.9042 26.2718 22.0427 26.1843 22.174C25.8926 22.6333 25.5426 23.0562 25.1562 23.4281C24.8572 23.7271 24.5291 24.0042 24.1718 24.2375C24.1718 24.2375 24.1718 24.2375 24.1645 24.2375C24.1062 24.2885 24.0405 24.3323 23.9676 24.3687C23.7416 24.5219 23.501 24.6531 23.253 24.7698C23.0853 24.8573 22.9176 24.9302 22.7426 24.9958C22.7062 25.0177 22.6624 25.0323 22.626 25.0469C22.2103 25.2437 21.7291 25.375 21.2478 25.4406C21.2187 25.4479 21.1968 25.4479 21.1676 25.4552C20.876 25.5062 20.5916 25.55 20.2999 25.5719C20.1687 25.5865 20.0301 25.5937 19.8989 25.5937L19.3812 25.5646L16.8874 25.4333C16.8874 25.426 16.8801 25.4333 16.8801 25.4333L15.626 25.3677C15.5312 25.3677 15.4291 25.3677 15.3343 25.3604C14.9405 25.3458 14.5614 25.3021 14.1822 25.2219C14.1749 25.2219 14.1749 25.2219 14.1749 25.2219C13.4822 25.0906 12.8187 24.8573 12.1989 24.5437C11.8562 24.3687 11.5208 24.1719 11.2072 23.9458C11.076 23.851 10.952 23.749 10.828 23.6396C10.478 23.3479 10.1645 23.0344 9.87284 22.7135C9.82909 22.6698 9.79263 22.626 9.75617 22.5823C9.71242 22.5385 9.66867 22.4875 9.63221 22.4438C9.35513 22.0938 9.12179 21.7365 8.93221 21.3573C8.75721 21.0219 8.61867 20.6646 8.50929 20.2708C8.46554 20.1323 8.42909 20.001 8.39992 19.8552C8.39263 19.8479 8.38534 19.8333 8.38534 19.8187C8.31242 19.5198 8.24679 19.2062 8.21034 18.8927C8.16659 18.6521 8.14471 18.4115 8.14471 18.1635C8.13013 18.0687 8.13013 17.9667 8.13013 17.8719L9.52284 15.7208L10.8864 13.6208L11.5062 12.6656L12.0676 11.8052L12.2572 11.5062V10.7552C12.2718 10.5875 12.2791 10.4125 12.2718 10.2521C12.2645 9.74167 12.1624 9.24583 11.9947 8.77187C11.8343 8.26875 11.6083 7.79479 11.3749 7.35729C11.0978 6.85417 10.8062 6.40208 10.5655 5.99375C10.2083 5.39583 9.96034 4.90729 10.026 4.56458C10.551 4.44063 11.1051 4.375 11.6666 4.375H23.3333C26.3812 4.375 29.0062 6.27083 30.0926 8.93958C30.2093 9.22396 30.3114 9.52292 30.3843 9.82917Z" fill="#304FFE"/>
<path d="M30.625 11.6667V11.8635L29.6187 12.4469L28.9771 12.8188L28.2698 13.2271L26.8552 14.051L25.4698 14.8531L24.0552 15.6698L23.4937 15.9979C23.4937 16.3479 23.4062 16.6688 23.2458 16.9604C23.0198 17.3833 22.6406 17.7333 22.1594 18.0323C21.6708 18.3313 21.0729 18.5719 20.4021 18.7469C20.4021 18.7469 20.4021 18.7396 20.3948 18.7469C17.7989 19.4177 14.2552 19.1115 12.5344 17.8281C12.0531 17.4708 11.7177 17.0333 11.5719 16.5302C11.5281 16.3625 11.5062 16.1802 11.5062 15.9979V10.7552C11.5135 10.6458 11.4406 10.5365 11.3094 10.4271C10.9156 10.1135 9.98957 9.81458 8.95415 9.51563C8.14478 9.28958 7.27707 9.06354 6.5479 8.84479C5.97186 8.66979 5.48332 8.49479 5.19165 8.32708C5.3229 8.07188 5.47603 7.81667 5.63644 7.57604C6.65728 6.08125 8.21769 4.98021 10.026 4.56458C10.551 4.44063 11.1052 4.375 11.6667 4.375H19.5417C23.4573 5.06042 27.0667 6.65729 30.0927 8.93958C30.2094 9.22396 30.3114 9.52292 30.3844 9.82917C30.5156 10.3104 30.5958 10.8063 30.6177 11.324C30.625 11.4333 30.625 11.55 30.625 11.6667Z" fill="#4928F4"/>
<path d="M30.6251 11.6669V14.8825L30.4647 15.3783L29.9178 17.0773L29.349 18.8273L29.0501 19.7606L28.773 20.6283L28.5032 21.4523L28.2407 22.2689L28.1022 22.6992L27.9199 23.2679C27.9199 23.8221 27.9053 24.3106 27.8688 24.7262C27.8615 24.77 27.8542 24.8137 27.8542 24.8575C27.8105 25.2439 27.7522 25.5721 27.6574 25.8492C27.6501 25.8929 27.6355 25.9367 27.6209 25.9731C27.4313 26.4981 27.1469 26.8335 26.724 27.0523C26.6219 27.1106 26.5053 27.1544 26.3813 27.1981C25.9949 27.3294 25.5063 27.395 24.9084 27.4314C24.4709 27.4606 23.9678 27.4679 23.399 27.4679H22.8959L22.0282 27.4314L21.8751 27.4242L20.2928 27.3585L18.6886 27.2929L13.4021 27.0742L12.0313 27.0158H11.8417C11.273 27.0085 10.7844 26.9721 10.3615 26.9137C9.74902 26.8189 9.27507 26.6585 8.91777 26.4179C8.40736 26.0898 8.1084 25.6085 7.9334 24.9377C7.88965 24.7773 7.85319 24.6096 7.83132 24.4273C7.7584 24.0044 7.72194 23.5158 7.70007 22.9689C7.70007 22.8596 7.70007 22.7502 7.69277 22.6335C7.68548 22.6262 7.69277 22.6262 7.69277 22.6262V22.2033C7.68548 21.9919 7.68548 21.7731 7.68548 21.5471L7.72194 20.3731L7.74382 19.5346L7.77298 18.5575V18.4189L7.82402 16.6252L7.87507 14.8314L7.92611 13.1471L7.96986 11.4919L7.98444 11.0544C7.98444 10.8283 7.21882 10.6971 6.36569 10.5877C5.68756 10.5002 4.94382 10.42 4.49902 10.3179C4.53548 10.1502 4.57194 9.98249 4.61569 9.82207C4.74694 9.29707 4.94382 8.80124 5.19173 8.32728C5.32298 8.07207 5.47611 7.81686 5.63652 7.57624C7.21152 6.88353 8.85215 6.34395 10.5657 5.99395C12.0678 5.6804 13.6355 5.5127 15.2542 5.5127C20.6209 5.5127 25.5792 7.32832 29.5022 10.3908C29.8813 10.6825 30.2532 10.996 30.6178 11.3242C30.6251 11.4335 30.6251 11.5502 30.6251 11.6669Z" fill="#6200EA"/>
<path d="M30.625 13.3948V16.7052L30.224 17.4782L29.4583 18.9729L29.05 19.7604L28.6781 20.4823L28.5177 20.7959C28.5177 21.0219 28.5177 21.2407 28.5031 21.4521C28.5031 21.7657 28.4885 22.0646 28.4667 22.3417C28.4375 22.6698 28.3938 22.9688 28.35 23.2459C28.2406 23.8219 28.0875 24.3177 27.8688 24.7261C27.8396 24.7771 27.8104 24.8282 27.7812 24.8719C27.701 25.0032 27.6063 25.1271 27.5042 25.2438C27.3729 25.4042 27.2271 25.5427 27.0594 25.6594C26.8115 25.849 26.5198 26.0021 26.1844 26.1188C25.7688 26.2719 25.2875 26.374 24.7188 26.4323C24.3469 26.4688 23.9385 26.4907 23.4938 26.4907L23.1875 26.5052L21.6708 26.5927H21.6635L20.0521 26.6875L18.4115 26.7823L16.151 26.9136L13.4021 27.074L13.001 27.0959C12.6292 27.0959 12.2792 27.074 11.9437 27.0302C11.9073 27.0229 11.8781 27.0157 11.8417 27.0157C11.3458 26.9354 10.8938 26.8042 10.4854 26.6219C9.98958 26.4032 9.55937 26.1115 9.19479 25.7615C8.87396 25.4479 8.59687 25.0907 8.37083 24.6896C8.31979 24.5948 8.26875 24.5073 8.225 24.4052C8.00625 23.975 7.83125 23.4938 7.7 22.9688C7.67813 22.8813 7.65625 22.7865 7.64167 22.6917C7.59792 22.524 7.56146 22.349 7.53958 22.1667C7.45938 21.7 7.41563 21.2042 7.39375 20.6865V20.6792C7.38646 20.4677 7.37917 20.2636 7.37917 20.0448L7.02188 19.1917L6.97083 19.0604L6.92708 18.9511L6.38021 17.6459L6.29271 17.4344L5.76771 16.1729L5.18438 14.7657C5.18438 14.7657 5.18437 14.7657 5.17708 14.7657L4.58646 13.3438L4.375 12.8261V11.6667C4.375 11.2073 4.41875 10.7552 4.49896 10.3177C4.53542 10.15 4.57187 9.98232 4.61562 9.82191C5.23542 9.46462 5.88437 9.13649 6.54792 8.84482C8.06458 8.1667 9.69063 7.66357 11.375 7.35732C12.6292 7.13128 13.9344 7.00732 15.2542 7.00732C20.5844 7.00732 25.4188 8.93962 29.1958 12.0896C29.3417 12.2063 29.4802 12.3229 29.6187 12.4469C29.9615 12.7459 30.2969 13.0594 30.625 13.3948Z" fill="#673AB7"/>
<path d="M30.625 15.5676V19.3155L30.2094 20.1832L29.4219 21.8239L29.4146 21.8457C29.4146 22.1593 29.4 22.4437 29.3781 22.6989C29.3052 23.5374 29.101 24.0697 28.7656 24.3978C28.525 24.6457 28.226 24.7843 27.8542 24.8572C27.8323 24.8645 27.8031 24.8645 27.7812 24.8718C27.6646 24.8937 27.5406 24.9082 27.4094 24.9082C26.9573 24.952 26.425 24.9228 25.8125 24.8791C25.7469 24.8791 25.674 24.8718 25.601 24.8645C25.1563 24.8353 24.6823 24.8062 24.1573 24.7843C23.8729 24.777 23.574 24.7697 23.2677 24.7697H23.2531L22.5167 24.828H22.5094L20.8542 24.9447L18.9656 25.0905L18.6885 25.1124L16.4792 25.2728L15.3344 25.3603L14.2042 25.4405C14.0073 25.4405 13.8177 25.4405 13.6281 25.4332C13.6281 25.4332 13.6208 25.4259 13.6208 25.4332C12.7969 25.4187 12.0604 25.3676 11.4042 25.2436C10.799 25.1416 10.2667 24.9811 9.81458 24.7405C9.34792 24.5145 8.96146 24.1936 8.64792 23.7853C8.34896 23.3843 8.13021 22.8811 7.99167 22.2759C7.99167 22.2687 7.99167 22.2687 7.99167 22.2687C7.88958 21.7801 7.83125 21.2114 7.83125 20.5697L7.72188 20.3728L7.07292 19.2134L6.97812 19.053L6.92708 18.9509L6.24896 17.7478L5.91354 17.1426L5.49063 16.3916L4.76146 15.0864L4.375 14.4009V11.7176C5.01667 11.2947 5.68021 10.9228 6.36562 10.5874C7.19687 10.1645 8.05729 9.80719 8.95417 9.51553C9.93125 9.19469 10.9521 8.93949 11.9948 8.77178C13.0521 8.59678 14.1385 8.50928 15.2542 8.50928C20.2125 8.50928 24.7625 10.2812 28.2698 13.227C28.4302 13.3509 28.5833 13.4895 28.7365 13.6207C29.349 14.1676 29.9323 14.7582 30.4646 15.378C30.5229 15.4437 30.5813 15.502 30.625 15.5676Z" fill="#8E24AA"/>
<path d="M30.625 18.0179V23.2898C30.45 23.1877 30.2094 23.0638 29.9104 22.9325C29.75 22.8523 29.5677 22.7721 29.3781 22.6992C29.101 22.5752 28.8021 22.4586 28.4667 22.3419C28.3938 22.3127 28.3208 22.2909 28.2406 22.269C28.1094 22.2179 27.9708 22.1742 27.8323 22.1304C27.4021 21.9992 26.9281 21.8752 26.4323 21.7659C26.2427 21.7294 26.0458 21.6929 25.849 21.6638C25.2146 21.5544 24.5365 21.4888 23.8292 21.4815C23.7708 21.4742 23.7052 21.4742 23.6469 21.4742L21.7729 21.4888L19.2208 21.5034H19.2135L13.7521 21.5471C12.0167 21.5471 10.9521 21.9627 10.3104 22.1304C10.3104 22.1304 10.3031 22.1304 10.3031 22.1377C9.625 22.3127 9.41354 22.2034 9.35521 21.0148C9.34063 20.6867 9.33333 20.2638 9.33333 19.7461L8.925 19.4325L8.21042 18.8929L7.77292 18.5575L7.68542 18.4919L6.475 17.5731L6.29271 17.4346L5.91354 17.1429L5.21354 16.6179L4.375 15.9763V13.4971C4.44792 13.4388 4.51354 13.3877 4.58646 13.344C5.64375 12.6148 6.77396 11.995 7.96979 11.4919C9.03438 11.0398 10.1573 10.6825 11.3094 10.4273C11.6229 10.3617 11.9438 10.2961 12.2719 10.2523C13.2417 10.0846 14.2406 10.0044 15.2542 10.0044C19.6365 10.0044 23.6615 11.5284 26.8552 14.0513C27.3365 14.4304 27.8031 14.8315 28.2406 15.2617C28.8385 15.8304 29.4 16.4356 29.9177 17.0773C30.0198 17.2086 30.1219 17.3398 30.224 17.4784C30.3625 17.6534 30.4938 17.8356 30.625 18.0179Z" fill="#C2185B"/>
<path d="M30.625 20.9418V23.3334C30.625 23.8074 30.5813 24.2741 30.4937 24.7261C30.3625 25.397 30.1365 26.0386 29.8302 26.6366C29.6698 26.673 29.4875 26.673 29.2833 26.6438C28.824 26.5636 28.2844 26.323 27.701 26.0095C27.6719 26.0022 27.6427 25.9876 27.6208 25.973C27.4385 25.8782 27.249 25.7761 27.0594 25.6595C26.6729 25.448 26.2646 25.2147 25.8563 24.9959C25.7687 24.9522 25.6813 24.9084 25.601 24.8647C25.1344 24.6241 24.6531 24.4053 24.1719 24.2376C24.1719 24.2376 24.1719 24.2376 24.1646 24.2376C24.0625 24.2011 23.9531 24.1647 23.8438 24.1355C23.4281 24.0188 23.0052 23.9459 22.5969 23.9459L21.7948 23.7126L18.2438 22.6845C18.2438 22.6845 18.2438 22.6845 18.2365 22.6845L16.0563 22.0501H16.049L15.101 21.773C12.3594 21.773 10.675 22.9397 9.85833 22.4949C9.5375 22.3272 9.34792 21.9043 9.28229 21.073C9.26042 20.8397 9.25312 20.5772 9.25312 20.2709L8.4 19.8553L8.36354 19.8407H8.35625L7.74375 19.5345L7.07292 19.2136L7.02188 19.1918L6.89792 19.1261L5.46875 18.4334L4.375 17.9011V15.4001C4.49896 15.2907 4.63021 15.1886 4.76146 15.0866C4.9 14.9772 5.03854 14.8751 5.17708 14.7657C5.18437 14.7657 5.18438 14.7657 5.18438 14.7657C6.04479 14.1459 6.95625 13.5991 7.92604 13.147C9.05625 12.6074 10.2594 12.1918 11.5062 11.922C11.6885 11.8782 11.8781 11.8345 12.0677 11.8053C13.1031 11.6084 14.1677 11.5063 15.2542 11.5063C19.0969 11.5063 22.626 12.7532 25.4698 14.8532C26.2938 15.4657 27.0594 16.1438 27.7594 16.8803C28.3354 17.4855 28.8677 18.1418 29.349 18.8272C29.3854 18.8782 29.4219 18.9293 29.4583 18.973C29.7281 19.3668 29.976 19.7678 30.2094 20.1834C30.3625 20.4313 30.4938 20.6866 30.625 20.9418Z" fill="#D81B60"/>
<path d="M30.4937 24.726C30.3625 25.3968 30.1365 26.0385 29.8302 26.6364C29.6917 26.9062 29.5385 27.1614 29.3708 27.4093C29.2687 27.5624 29.1594 27.7083 29.05 27.8468C28.7875 27.7447 28.401 27.5989 27.9271 27.4385C27.9271 27.4385 27.9271 27.4385 27.9271 27.4312C27.5698 27.3072 27.1615 27.176 26.724 27.052C26.6 27.0156 26.476 26.9791 26.3448 26.9426C25.8271 26.8041 25.2875 26.6801 24.7625 26.6072C24.325 26.5343 23.8948 26.4906 23.4938 26.4906L23.1583 26.3958H23.151L21.3865 25.8854L20.3 25.5718L19.0896 25.2218H19.0823L18.6885 25.1124L13.9271 23.7416L12.5562 23.3479L11.5354 23.1072L9.87292 22.7135L9.66875 22.6624C9.66875 22.6624 9.66875 22.6624 9.66146 22.6624L7.99167 22.276C7.99167 22.2687 7.99167 22.2687 7.99167 22.2687L7.69271 22.2031L7.53958 22.1666L6.32188 21.8822L6.18333 21.8458L5.14792 20.9926L4.375 20.3437V17.3687C4.64479 17.1062 4.92188 16.8583 5.21354 16.6176C5.30104 16.5374 5.39583 16.4645 5.49063 16.3916C5.57813 16.3187 5.67292 16.2458 5.76771 16.1729C6.43125 15.6697 7.13125 15.2176 7.875 14.8312C8.82292 14.3208 9.82917 13.9124 10.8865 13.6208C11.0906 13.5551 11.2948 13.4968 11.5062 13.4531C12.7021 13.1541 13.9563 13.001 15.2542 13.001C18.5135 13.001 21.5469 13.9854 24.0552 15.6697C25.3021 16.5083 26.425 17.5145 27.3729 18.6593C27.8542 19.2354 28.2917 19.8406 28.6781 20.4822C28.7146 20.5333 28.7437 20.577 28.7729 20.6281C29.0063 21.0145 29.225 21.4156 29.4219 21.8239C29.6042 22.1885 29.7646 22.5531 29.9104 22.9322C30.1438 23.5156 30.3333 24.1135 30.4937 24.726Z" fill="#F50057"/>
<path d="M29.3708 27.4092C29.2687 27.5623 29.1594 27.7081 29.05 27.8467C28.7292 28.2477 28.3792 28.6123 27.9854 28.9331C27.6427 29.2175 27.2781 29.4727 26.8917 29.6915C26.7458 29.655 26.6 29.6113 26.4469 29.5529C25.9656 29.3852 25.4625 29.1081 24.9958 28.8165C24.2958 28.3717 23.6906 27.8904 23.4208 27.6717C23.3188 27.5842 23.2677 27.5404 23.2677 27.5404L22.0281 27.4311L21.875 27.4165L20.2708 27.2779L18.6083 27.1321L16.151 26.9133L12.2573 26.5706L12.2427 26.5633L10.8719 25.8998L9.48646 25.229L8.37083 24.6894L8.13021 24.5727L7.83125 24.4269L6.79583 23.9238L5.41771 23.2602L4.9875 23.0488L4.375 22.8592V19.5998C4.71771 19.1915 5.08229 18.805 5.46875 18.4331C5.71667 18.1998 5.97917 17.9665 6.24896 17.7477C6.29271 17.7113 6.33646 17.6748 6.38021 17.6456C6.40937 17.6092 6.44583 17.5873 6.475 17.5727C6.90521 17.2227 7.35729 16.9092 7.82396 16.6248C8.36354 16.2821 8.93229 15.9758 9.52292 15.7206C10.1573 15.4363 10.8208 15.1956 11.5062 15.0133C12.6948 14.6779 13.9563 14.5029 15.2542 14.5029C18.2292 14.5029 20.9781 15.4071 23.2458 16.9602C24.6969 17.9519 25.951 19.2061 26.9427 20.6571C27.2708 21.1238 27.5625 21.6196 27.8323 22.13C27.9271 22.3196 28.0219 22.5092 28.1021 22.6988C28.1896 22.8811 28.2698 23.0633 28.35 23.2456C28.5031 23.6248 28.6417 24.004 28.7656 24.3977C28.999 25.1269 29.174 25.8706 29.2833 26.6436C29.3198 26.8988 29.349 27.154 29.3708 27.4092Z" fill="#FF1744"/>
<path d="M27.9927 28.7439C27.9927 28.8022 27.9927 28.8678 27.9854 28.9335C27.6427 29.2178 27.2781 29.473 26.8917 29.6918C26.7313 29.7793 26.5708 29.8668 26.4031 29.9397C26.2354 30.0199 26.0677 30.0928 25.8927 30.1585C25.6448 30.0272 25.3094 29.8668 24.9521 29.7137C24.449 29.4876 23.9021 29.2835 23.4792 29.2178C23.3771 29.196 23.2823 29.1887 23.1948 29.1887L21.999 29.0355H21.9844L20.4969 28.8387L18.9948 28.6418L18.2948 28.5543L12.7823 27.8397C12.425 27.8397 12.0458 27.8178 11.6521 27.7668C11.1708 27.723 10.6677 27.6501 10.1646 27.548C9.66875 27.4605 9.16563 27.3439 8.68438 27.2199C8.18125 27.1033 7.68542 26.9647 7.22604 26.8335C6.69375 26.673 6.19792 26.5199 5.78229 26.3814C5.43958 26.272 5.14792 26.1699 4.92188 26.0897C4.79063 25.7762 4.68125 25.448 4.60104 25.1126C4.44792 24.5439 4.375 23.946 4.375 23.3335V22.1158C4.60833 21.7293 4.86354 21.3501 5.14792 20.9928C5.66563 20.3074 6.25625 19.6803 6.89792 19.1262C6.91979 19.097 6.94896 19.0751 6.97083 19.0605L6.97813 19.0533C7.20417 18.8491 7.4375 18.6668 7.68542 18.4918C7.71458 18.4626 7.74375 18.4408 7.77292 18.4189C7.88958 18.3314 8.01354 18.2439 8.14479 18.1637C9.1875 17.4564 10.3396 16.9022 11.5719 16.5303C12.7385 16.1803 13.9708 15.998 15.2542 15.998C17.799 15.998 20.176 16.7491 22.1594 18.0324C23.625 18.973 24.8865 20.2126 25.849 21.6637C25.9656 21.8314 26.075 21.9991 26.1844 22.1741C26.6875 23.0272 27.1031 23.946 27.4094 24.9085C27.4458 25.0178 27.475 25.1272 27.5042 25.2439C27.5625 25.4408 27.6135 25.6449 27.6573 25.8491C27.6719 25.9001 27.6865 25.9512 27.701 26.0095C27.8031 26.4689 27.876 26.9501 27.9271 27.4314C27.9271 27.4387 27.9271 27.4387 27.9271 27.4387C27.9708 27.8689 27.9927 28.3064 27.9927 28.7439Z" fill="#FF5722"/>
<path d="M26.4907 28.7437C26.4907 28.999 26.4761 29.276 26.4469 29.5531C26.4323 29.6844 26.4177 29.8156 26.4032 29.9396C26.2354 30.0198 26.0677 30.0927 25.8927 30.1583C25.5646 30.2823 25.2292 30.3844 24.8865 30.4573C24.6532 30.5083 24.4125 30.5521 24.1719 30.574H24.1646C23.9386 30.4354 23.6761 30.2677 23.4063 30.0781C22.9177 29.7354 22.4073 29.349 21.999 29.0354C21.9917 29.0281 21.9917 29.0281 21.9844 29.0208C21.5542 28.6927 21.2479 28.4448 21.2479 28.4448L20.475 28.474L18.9875 28.525L18.2948 28.5542L15.5094 28.6562L13.1542 28.7437C13.0011 28.751 12.8188 28.751 12.5927 28.7437H12.5854C12.2792 28.7365 11.9146 28.7146 11.5136 28.6781C11.0469 28.6417 10.5365 28.5979 10.0188 28.5469C9.51566 28.4885 9.00524 28.4302 8.5167 28.3719C7.97712 28.3135 7.4667 28.2479 7.0292 28.1896C6.68649 28.1458 6.38753 28.1094 6.14691 28.0802C5.94274 27.8469 5.76045 27.6062 5.58545 27.3437C5.32295 26.95 5.09691 26.5344 4.92191 26.0896C4.79066 25.776 4.68128 25.4479 4.60107 25.1125C4.81253 24.4635 5.08962 23.851 5.41774 23.2604C5.68024 22.7792 5.98649 22.3198 6.32191 21.8823C6.65003 21.4521 7.00732 21.051 7.39378 20.6865V20.6792C7.50316 20.5698 7.61253 20.4677 7.72191 20.3729C7.92607 20.1833 8.13753 20.0083 8.35628 19.8406H8.36357C8.37087 19.826 8.37816 19.826 8.38545 19.8188C8.56045 19.6802 8.74274 19.5562 8.92503 19.4323C10.0042 18.6958 11.2219 18.149 12.5344 17.8281C13.4021 17.6167 14.3136 17.5 15.2542 17.5C17.1063 17.5 18.8563 17.9448 20.3948 18.7469H20.4021C21.7219 19.425 22.8886 20.3583 23.8292 21.4812C24.3469 22.0792 24.7917 22.7354 25.1563 23.4281C25.4115 23.8948 25.6302 24.3833 25.8125 24.8792C25.8271 24.9229 25.8417 24.9594 25.8563 24.9958C25.9802 25.3604 26.0896 25.7396 26.1844 26.1187C26.25 26.3885 26.3011 26.6656 26.3448 26.9427C26.3594 27.0302 26.374 27.1104 26.3813 27.1979C26.4542 27.701 26.4907 28.2187 26.4907 28.7437Z" fill="#FF6F00"/>
<path d="M24.9959 28.7436V28.8165C24.9959 29.0645 24.974 29.378 24.9521 29.7134C24.9302 29.9613 24.9084 30.2165 24.8865 30.4572C24.6532 30.5082 24.4125 30.552 24.1719 30.5738H24.1646C23.8875 30.6103 23.6177 30.6249 23.3334 30.6249H22.0573L21.7802 30.5447L20.3438 30.1072L18.8854 29.6697L15.5094 28.6561L14.0511 28.2186C14.0511 28.2186 13.4459 28.4592 12.5927 28.7436H12.5854C12.2573 28.853 11.9 28.9697 11.5209 29.0863C11.0469 29.2249 10.5438 29.3634 10.0479 29.4728C9.53753 29.5895 9.03441 29.677 8.58232 29.7134C8.44378 29.728 8.30524 29.7353 8.18128 29.7353C7.77295 29.5092 7.3792 29.2395 7.02191 28.9405C6.70837 28.678 6.4167 28.3936 6.14691 28.0801C5.94274 27.8467 5.76045 27.6061 5.58545 27.3436C5.63649 27.0155 5.69482 26.6947 5.78232 26.3811C6.00107 25.5134 6.34378 24.6822 6.79587 23.9238C7.04378 23.4936 7.32087 23.078 7.6417 22.6915C7.64899 22.6697 7.67087 22.6478 7.69274 22.6332C7.68545 22.6259 7.69274 22.6259 7.69274 22.6259C7.78753 22.502 7.88962 22.3853 7.9917 22.2759C7.9917 22.2686 7.9917 22.2686 7.9917 22.2686C8.29066 21.9478 8.59691 21.6415 8.93232 21.3572C9.04899 21.2624 9.15837 21.1676 9.28232 21.0728C9.3042 21.0509 9.32607 21.0363 9.35524 21.0145C10.9959 19.7603 13.0448 19.002 15.2542 19.002C17.7625 19.002 20.0448 19.9426 21.773 21.4884C22.6042 22.2395 23.3115 23.1363 23.8438 24.1353C23.8875 24.2082 23.9313 24.2884 23.9677 24.3686C24.0334 24.4999 24.099 24.6384 24.1573 24.7842C24.398 25.3092 24.5875 25.8634 24.7188 26.4322C24.7334 26.4905 24.7479 26.5488 24.7625 26.6072C24.8209 26.877 24.8719 27.154 24.9084 27.4311C24.9667 27.8613 24.9959 28.2988 24.9959 28.7436Z" fill="#FF9800"/>
<path d="M23.4938 28.7439C23.4938 28.8898 23.4865 29.0502 23.4792 29.2179C23.4646 29.4877 23.4427 29.7794 23.4063 30.0783C23.3917 30.2606 23.3625 30.4429 23.3334 30.6252H19.3375L18.5646 30.5012L15.5459 30.02L15.1157 29.9544L14.1313 29.7939C13.7011 29.7939 12.7677 29.9835 11.7834 30.1658C11.2657 30.2606 10.7407 30.3627 10.2667 30.4283C10.2084 30.4356 10.15 30.4429 10.099 30.4502H10.0917C9.58128 30.3408 9.08545 30.1731 8.61878 29.9544C8.47295 29.8887 8.32712 29.8158 8.18128 29.7356C7.77295 29.5096 7.3792 29.2398 7.02191 28.9408C7.01462 28.8533 7.00732 28.7804 7.00732 28.7439C7.00732 28.5544 7.01462 28.3721 7.0292 28.1898C7.05837 27.7231 7.12399 27.271 7.22607 26.8335C7.38649 26.17 7.61982 25.5283 7.93337 24.9377C7.9917 24.8137 8.05732 24.6898 8.13024 24.5731C8.15941 24.5148 8.19587 24.4637 8.22503 24.4054C8.35628 24.1939 8.50212 23.9898 8.64795 23.7856C8.9542 23.3846 9.29691 23.0054 9.66149 22.6627C9.66878 22.6627 9.66878 22.6627 9.66878 22.6627C9.69795 22.6335 9.72712 22.6044 9.75628 22.5825C9.79274 22.5533 9.82191 22.5169 9.85837 22.495C10.0042 22.3637 10.15 22.2471 10.3032 22.1377C10.3032 22.1304 10.3104 22.1304 10.3104 22.1304C11.6886 21.1023 13.3948 20.4971 15.2542 20.4971C16.6979 20.4971 18.0396 20.8617 19.2136 21.5033H19.2209C20.2271 22.0575 21.1021 22.8085 21.7948 23.7127C22.0646 24.0627 22.3052 24.4346 22.5094 24.8283H22.5167C22.5532 24.9012 22.5896 24.9742 22.6261 25.0471C22.8448 25.4773 23.0198 25.9294 23.1511 26.396H23.1584C23.1657 26.4325 23.1802 26.4689 23.1875 26.5054C23.275 26.8189 23.3479 27.1398 23.399 27.4679C23.4063 27.5335 23.4136 27.6064 23.4209 27.6721C23.4719 28.0221 23.4938 28.3794 23.4938 28.7439Z" fill="#FFC107"/>
<path d="M21.9989 28.6636C21.9989 28.7803 21.9989 28.9042 21.9843 29.0209V29.0282C21.9843 29.0355 21.9843 29.0355 21.9843 29.0355C21.9697 29.5605 21.8968 30.0782 21.7801 30.5449C21.7801 30.574 21.7728 30.5959 21.7582 30.6251H18.353L15.5457 30.0199L15.1739 29.9396L15.1155 29.9542L12.002 30.5959L11.8634 30.6251H11.6666C11.1999 30.6251 10.7405 30.5813 10.2957 30.4938C10.2301 30.4792 10.1645 30.4646 10.0989 30.4501H10.0916C9.58115 30.3407 9.08532 30.173 8.61865 29.9542C8.60407 29.874 8.58949 29.7938 8.58219 29.7136C8.53115 29.4001 8.50928 29.0719 8.50928 28.7438C8.50928 28.6199 8.50928 28.4959 8.51657 28.3719C8.53844 27.9782 8.59678 27.5917 8.68428 27.2199C8.74261 26.9428 8.82282 26.673 8.91761 26.4178C8.99782 26.1917 9.09261 25.973 9.19469 25.7615C9.28219 25.5792 9.38428 25.4042 9.48636 25.2292C9.58844 25.0615 9.69782 24.9011 9.81449 24.7407C10.1062 24.3396 10.4489 23.9678 10.828 23.6396C11.0468 23.4501 11.2874 23.2678 11.5353 23.1074C12.5999 22.4074 13.8759 21.999 15.2541 21.999C15.5239 21.999 15.7864 22.0136 16.0416 22.0501H16.0562C16.8364 22.1376 17.5655 22.3563 18.2364 22.6844C18.2437 22.6844 18.2437 22.6844 18.2437 22.6844C19.3009 23.2021 20.1978 23.9824 20.8541 24.9449C20.9634 25.1053 21.0728 25.2803 21.1676 25.4553C21.2478 25.5938 21.3207 25.7396 21.3864 25.8855C21.4884 26.1115 21.5832 26.3521 21.6634 26.5928H21.6707C21.7509 26.8626 21.8239 27.1324 21.8749 27.4167V27.424C21.9551 27.8251 21.9989 28.2407 21.9989 28.6636Z" fill="#FFD54F"/>
<path d="M20.4969 28.8169V28.8388C20.4969 29.269 20.4458 29.6919 20.3437 30.1075C20.3073 30.2825 20.2562 30.4575 20.1906 30.6252H16.9239L15.2541 30.1659L13.5844 30.6252H11.6667C11.2 30.6252 10.7406 30.5815 10.2958 30.494C10.2812 30.4721 10.2739 30.4502 10.2667 30.4284C10.1646 30.1148 10.0844 29.8013 10.0479 29.4731C10.0187 29.2617 10.0042 29.0429 10.0042 28.8169C10.0042 28.7294 10.0042 28.6346 10.0187 28.5471C10.026 28.2044 10.0771 27.869 10.1646 27.5481C10.2083 27.3294 10.2739 27.1179 10.3614 26.9138C10.3906 26.8117 10.4344 26.7169 10.4854 26.6221C10.5948 26.3742 10.726 26.1336 10.8719 25.9002C11.0323 25.6669 11.2073 25.4481 11.4042 25.244C11.6375 24.9815 11.9 24.7409 12.1989 24.544C12.7094 24.1721 13.2927 23.895 13.9271 23.7419C14.35 23.6252 14.7948 23.5669 15.2541 23.5669C16.7125 23.5669 18.0177 24.1502 18.9656 25.0909C19.0021 25.1273 19.0458 25.1711 19.0823 25.2221H19.0896C19.1917 25.3315 19.2864 25.4409 19.3812 25.5648C19.651 25.9075 19.8771 26.2794 20.0521 26.6877C20.1396 26.8773 20.2125 27.0742 20.2708 27.2784C20.2781 27.3075 20.2854 27.3294 20.2927 27.3586C20.3948 27.7159 20.4604 28.0877 20.475 28.4742C20.4896 28.5836 20.4969 28.7002 20.4969 28.8169Z" fill="#FFE082"/>
<path d="M19.0022 28.8168C19.0022 29.1157 18.9657 29.4001 18.8855 29.6699C18.8126 29.9616 18.7032 30.2386 18.5647 30.5011C18.5428 30.5449 18.4918 30.6251 18.4918 30.6251H12.0168C12.0095 30.6178 12.0022 30.6032 12.0022 30.5959C11.9147 30.4574 11.8418 30.3188 11.7834 30.1657C11.6376 29.8303 11.5501 29.4657 11.5209 29.0866C11.5063 28.9991 11.5063 28.9043 11.5063 28.8168C11.5063 28.773 11.5063 28.722 11.5136 28.6782C11.5209 28.3574 11.5647 28.0511 11.6522 27.7668C11.7251 27.5043 11.8199 27.2636 11.9438 27.0303C11.9438 27.0303 11.9511 27.023 11.9511 27.0157C12.0386 26.8626 12.1334 26.7095 12.2428 26.5636C12.6001 26.0824 13.0741 25.6886 13.6209 25.4334C13.6282 25.4334 13.6282 25.4334 13.6282 25.4334C13.8032 25.3459 13.9855 25.273 14.1751 25.222C14.1751 25.222 14.1751 25.222 14.1824 25.222C14.5178 25.1199 14.8824 25.0688 15.2543 25.0688C15.6845 25.0688 16.1001 25.1345 16.4793 25.273C16.6178 25.3095 16.7491 25.3678 16.8803 25.4334C16.8803 25.4334 16.8803 25.4334 16.8876 25.4334C17.5147 25.7324 18.047 26.1991 18.4116 26.7824C18.4845 26.8918 18.5501 27.0084 18.6084 27.1324C18.6376 27.1834 18.6668 27.2418 18.6886 27.2928C18.8563 27.672 18.9584 28.0876 18.9876 28.5251C18.9949 28.5616 18.9949 28.598 18.9949 28.6418C19.0022 28.7001 19.0022 28.7584 19.0022 28.8168Z" fill="#FFECB3"/>
<path d="M21.8749 8.021H13.1249C10.2812 8.021 8.02075 10.2814 8.02075 13.1252V21.8752C8.02075 24.7189 10.2812 26.9793 13.1249 26.9793H21.8749C24.7187 26.9793 26.9791 24.7189 26.9791 21.8752V13.1252C26.9791 10.2814 24.7187 8.021 21.8749 8.021Z" stroke="white" stroke-width="2" stroke-miterlimit="10" stroke-linecap="round" stroke-linejoin="round"/>
<path d="M22.6042 12.3958C23.0069 12.3958 23.3333 12.0694 23.3333 11.6667C23.3333 11.264 23.0069 10.9375 22.6042 10.9375C22.2015 10.9375 21.875 11.264 21.875 11.6667C21.875 12.0694 22.2015 12.3958 22.6042 12.3958Z" fill="white"/>
<path d="M17.5 21.875C19.9162 21.875 21.875 19.9162 21.875 17.5C21.875 15.0838 19.9162 13.125 17.5 13.125C15.0838 13.125 13.125 15.0838 13.125 17.5C13.125 19.9162 15.0838 21.875 17.5 21.875Z" stroke="white" stroke-width="2" stroke-miterlimit="10" stroke-linecap="round" stroke-linejoin="round"/>
</svg>
