<svg width="176" height="148" viewBox="0 0 176 148" fill="none" xmlns="http://www.w3.org/2000/svg">
<g clip-path="url(#clip0_46_167)">
<path d="M141.328 127.169H7.79663V140.835H141.328V127.169Z" fill="#D42129"/>
<mask id="path-2-inside-1_46_167" fill="white">
<path d="M14.7609 77.3686C14.863 77.3686 14.9572 77.3612 15.0514 77.3316C15.4989 77.2282 16.7709 76.8515 16.8965 76.0168C17.0064 75.3151 17.0849 73.823 17.1242 72.9809C17.1399 72.5894 17.3754 72.2348 17.7445 72.0501C18.8986 71.4666 21.5211 70.1813 23.4996 69.5608C26.1142 68.7409 28.823 67.1528 29.1842 66.6209C29.5453 66.0891 31.7438 62.9128 32.207 62.4326C32.6702 61.9525 34.9707 58.7688 35.536 58.4364C36.1014 58.104 38.5039 56.5602 39.1713 56.0727C39.8387 55.5852 41.5268 53.5169 42.1941 53.0368C42.8615 52.5566 45.7273 51.1605 46.2926 51.0645C46.858 50.9685 48.7502 49.3803 48.9072 49.0406C49.0093 48.8116 50.8622 47.2899 52.0714 46.3075C52.6131 45.8643 53.4454 45.9751 53.838 46.5512C54.9607 48.1911 57.0964 51.3009 58.2584 52.9851C58.6667 53.5686 59.5225 53.6646 60.0642 53.1845C61.6581 51.7589 64.6181 49.144 65.1363 48.9002C65.8508 48.5604 67.6959 47.6001 68.0021 47.4524C68.3083 47.3047 74.2991 38.8764 74.4561 38.6844C74.6131 38.4923 79.5753 44.5125 80.0385 44.8523C80.5018 45.1921 80.9572 46.5882 81.8837 46.8245C82.8101 47.0609 87.3091 49.4247 88.0314 51.9805L88.5417 52.3424C88.5417 52.3424 89.5939 50.8946 90.1278 50.4662C90.6617 50.0378 95.9143 46.012 96.4247 45.5319C96.935 45.0517 96.8879 41.6317 99.8009 39.0759C102.714 36.5201 105.744 33.1961 106.098 32.8637C106.365 32.6125 106.938 31.7483 107.221 31.3272C107.33 31.1573 107.393 30.9653 107.393 30.7659C107.393 30.3079 107.346 29.4289 106.914 28.6237C106.302 27.464 107.118 24.7235 107.016 24.0957C106.914 23.4678 105.941 21.9757 105.532 20.3875C105.124 18.7994 104.355 14.8992 104.92 12.1957C105.485 9.49214 107.841 3.33163 111.476 1.88384C111.476 1.88384 113.879 0.753669 115.394 0.103639C115.551 0.037159 115.708 0.00761223 115.881 0.00761223H124.667C124.816 0.00761223 124.965 0.037159 125.106 0.088866C126.213 0.502521 131.27 2.48216 132.314 4.53566C133.492 6.8477 134.261 8.48755 134.261 10.024C134.261 11.2428 134.387 13.7395 134.442 14.7219C134.458 14.9731 134.56 15.2168 134.74 15.4015C135.101 15.7782 135.698 16.4873 135.698 17.0561C135.698 17.876 136.004 20.1364 135.494 20.912C135.117 21.4808 134.85 22.1086 134.795 23.0541C134.764 23.6525 135.243 24.1695 135.879 24.2212C137.111 24.3246 139.223 24.7014 141.1 26.0162C141.32 26.1713 141.579 26.26 141.854 26.2526L151.009 26.0236C151.009 26.0236 157.133 25.9276 161.082 36.9707C161.153 37.1775 161.286 37.3548 161.467 37.4877C162.911 38.5514 169.766 43.9807 171.595 52.3276L173.48 58.6063C173.48 58.6063 173.488 58.6433 173.495 58.6654C173.668 59.1529 176.196 66.0817 175.992 66.7317V72.9513C176 73.0104 175.992 73.0695 175.992 73.1286C175.851 73.9264 174.775 79.8283 173.433 81.4091C173.37 81.483 173.315 81.5642 173.268 81.6529L170.81 86.927C170.787 86.9861 170.755 87.0378 170.716 87.0821C170.127 87.9389 164.615 95.887 163.72 96.7291C163.657 96.7882 163.61 96.8547 163.563 96.9286C162.904 97.9922 158.727 104.81 158.632 105.704C158.632 105.704 157.557 109.7 157.148 110.188C156.74 110.675 155.61 110.624 155.46 110.956C155.311 111.288 155.719 111.916 156.638 112.308C157.557 112.699 157.353 113.172 158.279 113.172C158.436 113.172 158.609 113.142 158.813 113.091C159.896 112.81 160.768 113.918 160.116 114.782L157.109 118.756C156.442 119.643 154.958 119.192 154.958 118.106V117.257C154.958 116.873 154.746 116.511 154.393 116.304C153.34 115.698 151.158 114.45 150.812 114.413C150.373 114.369 150.82 115.092 148.692 115.188C148.496 115.196 148.292 115.159 148.119 115.07C147.789 114.915 147.256 114.62 146.949 114.243C146.698 113.933 146.282 113.8 145.866 113.844C145.159 113.925 144.123 113.918 143.251 113.386C142.238 112.766 140.959 113.682 141.453 114.716C141.469 114.738 141.477 114.767 141.493 114.797C142.607 117.035 144.641 119.82 144.641 121.371C144.641 122.922 146.023 126.505 148.402 126.859C148.402 126.859 149.548 127.739 153.348 127.598C153.6 127.591 153.859 127.65 154.071 127.783C154.455 128.034 155.115 128.462 155.602 128.847C156.002 129.157 156.567 129.201 157.007 128.943L162.056 125.944C162.252 125.825 162.472 125.766 162.699 125.774L164.356 125.788C165.259 125.796 165.817 126.704 165.385 127.45C164.615 128.78 162.888 130.789 159.001 133.013C158.727 133.168 158.53 133.419 158.452 133.707C158.208 134.704 157.753 137.105 158.617 138.811C158.617 138.811 159.582 140.872 156.01 141.832C155.884 141.862 155.767 141.914 155.665 141.98C154.832 142.519 150.789 145.09 148.213 145.311C148.213 145.311 145.45 145.489 143.62 144.787C143.267 144.654 142.867 144.698 142.545 144.89C141.657 145.444 139.938 146.523 139.145 147.084C138.815 147.313 138.391 147.372 138.006 147.239C137.559 147.077 137.041 146.818 136.923 146.427L134.999 143.93C134.999 143.93 134.654 143.103 135.423 142.556C135.863 142.246 136.774 141.493 137.48 140.902C137.991 140.473 138.014 139.727 137.52 139.277C134.772 136.758 126.575 129.275 124.659 127.842C124.447 127.687 124.196 127.606 123.929 127.606H8.74661C8.07923 127.606 7.53747 127.088 7.56103 126.461C7.58458 125.884 7.54532 125.271 7.29408 125.116C6.78373 124.806 5.1035 124.902 5.1035 124.067V123.676C5.1035 123.166 4.73448 122.708 4.20057 122.597C3.01499 122.346 1.04425 121.46 0.643826 118.357C0.133476 114.339 0.0157031 110.742 0 110.07C0 109.959 0.00785154 109.855 0.0392577 109.752C0.211991 109.19 1.09136 107.617 5.44897 106.561C5.44897 106.561 8.4247 107.137 5.77873 100.127C5.76303 100.083 5.74732 100.031 5.73947 99.9867C5.6531 99.5878 5.33119 97.6746 6.73662 97.3127C7.23126 97.1871 7.53747 96.7143 7.52962 96.2342L7.48251 93.6341C7.48251 93.3608 7.56888 93.0949 7.75732 92.888C8.197 92.4079 8.89579 91.322 7.83583 90.0368C7.6788 89.8521 7.58458 89.6305 7.58458 89.3867L7.63169 83.9723C7.63169 83.6103 7.82798 83.2705 8.14204 83.0637C9.03712 82.4728 10.843 81.3131 11.0707 81.2761C11.267 81.2466 11.1963 79.6954 11.1178 78.5578C11.0707 77.9152 11.6203 77.3686 12.3034 77.3686H14.7766H14.7609Z"/>
</mask>
<path d="M14.7609 77.3686C14.863 77.3686 14.9572 77.3612 15.0514 77.3316C15.4989 77.2282 16.7709 76.8515 16.8965 76.0168C17.0064 75.3151 17.0849 73.823 17.1242 72.9809C17.1399 72.5894 17.3754 72.2348 17.7445 72.0501C18.8986 71.4666 21.5211 70.1813 23.4996 69.5608C26.1142 68.7409 28.823 67.1528 29.1842 66.6209C29.5453 66.0891 31.7438 62.9128 32.207 62.4326C32.6702 61.9525 34.9707 58.7688 35.536 58.4364C36.1014 58.104 38.5039 56.5602 39.1713 56.0727C39.8387 55.5852 41.5268 53.5169 42.1941 53.0368C42.8615 52.5566 45.7273 51.1605 46.2926 51.0645C46.858 50.9685 48.7502 49.3803 48.9072 49.0406C49.0093 48.8116 50.8622 47.2899 52.0714 46.3075C52.6131 45.8643 53.4454 45.9751 53.838 46.5512C54.9607 48.1911 57.0964 51.3009 58.2584 52.9851C58.6667 53.5686 59.5225 53.6646 60.0642 53.1845C61.6581 51.7589 64.6181 49.144 65.1363 48.9002C65.8508 48.5604 67.6959 47.6001 68.0021 47.4524C68.3083 47.3047 74.2991 38.8764 74.4561 38.6844C74.6131 38.4923 79.5753 44.5125 80.0385 44.8523C80.5018 45.1921 80.9572 46.5882 81.8837 46.8245C82.8101 47.0609 87.3091 49.4247 88.0314 51.9805L88.5417 52.3424C88.5417 52.3424 89.5939 50.8946 90.1278 50.4662C90.6617 50.0378 95.9143 46.012 96.4247 45.5319C96.935 45.0517 96.8879 41.6317 99.8009 39.0759C102.714 36.5201 105.744 33.1961 106.098 32.8637C106.365 32.6125 106.938 31.7483 107.221 31.3272C107.33 31.1573 107.393 30.9653 107.393 30.7659C107.393 30.3079 107.346 29.4289 106.914 28.6237C106.302 27.464 107.118 24.7235 107.016 24.0957C106.914 23.4678 105.941 21.9757 105.532 20.3875C105.124 18.7994 104.355 14.8992 104.92 12.1957C105.485 9.49214 107.841 3.33163 111.476 1.88384C111.476 1.88384 113.879 0.753669 115.394 0.103639C115.551 0.037159 115.708 0.00761223 115.881 0.00761223H124.667C124.816 0.00761223 124.965 0.037159 125.106 0.088866C126.213 0.502521 131.27 2.48216 132.314 4.53566C133.492 6.8477 134.261 8.48755 134.261 10.024C134.261 11.2428 134.387 13.7395 134.442 14.7219C134.458 14.9731 134.56 15.2168 134.74 15.4015C135.101 15.7782 135.698 16.4873 135.698 17.0561C135.698 17.876 136.004 20.1364 135.494 20.912C135.117 21.4808 134.85 22.1086 134.795 23.0541C134.764 23.6525 135.243 24.1695 135.879 24.2212C137.111 24.3246 139.223 24.7014 141.1 26.0162C141.32 26.1713 141.579 26.26 141.854 26.2526L151.009 26.0236C151.009 26.0236 157.133 25.9276 161.082 36.9707C161.153 37.1775 161.286 37.3548 161.467 37.4877C162.911 38.5514 169.766 43.9807 171.595 52.3276L173.48 58.6063C173.48 58.6063 173.488 58.6433 173.495 58.6654C173.668 59.1529 176.196 66.0817 175.992 66.7317V72.9513C176 73.0104 175.992 73.0695 175.992 73.1286C175.851 73.9264 174.775 79.8283 173.433 81.4091C173.37 81.483 173.315 81.5642 173.268 81.6529L170.81 86.927C170.787 86.9861 170.755 87.0378 170.716 87.0821C170.127 87.9389 164.615 95.887 163.72 96.7291C163.657 96.7882 163.61 96.8547 163.563 96.9286C162.904 97.9922 158.727 104.81 158.632 105.704C158.632 105.704 157.557 109.7 157.148 110.188C156.74 110.675 155.61 110.624 155.46 110.956C155.311 111.288 155.719 111.916 156.638 112.308C157.557 112.699 157.353 113.172 158.279 113.172C158.436 113.172 158.609 113.142 158.813 113.091C159.896 112.81 160.768 113.918 160.116 114.782L157.109 118.756C156.442 119.643 154.958 119.192 154.958 118.106V117.257C154.958 116.873 154.746 116.511 154.393 116.304C153.34 115.698 151.158 114.45 150.812 114.413C150.373 114.369 150.82 115.092 148.692 115.188C148.496 115.196 148.292 115.159 148.119 115.07C147.789 114.915 147.256 114.62 146.949 114.243C146.698 113.933 146.282 113.8 145.866 113.844C145.159 113.925 144.123 113.918 143.251 113.386C142.238 112.766 140.959 113.682 141.453 114.716C141.469 114.738 141.477 114.767 141.493 114.797C142.607 117.035 144.641 119.82 144.641 121.371C144.641 122.922 146.023 126.505 148.402 126.859C148.402 126.859 149.548 127.739 153.348 127.598C153.6 127.591 153.859 127.65 154.071 127.783C154.455 128.034 155.115 128.462 155.602 128.847C156.002 129.157 156.567 129.201 157.007 128.943L162.056 125.944C162.252 125.825 162.472 125.766 162.699 125.774L164.356 125.788C165.259 125.796 165.817 126.704 165.385 127.45C164.615 128.78 162.888 130.789 159.001 133.013C158.727 133.168 158.53 133.419 158.452 133.707C158.208 134.704 157.753 137.105 158.617 138.811C158.617 138.811 159.582 140.872 156.01 141.832C155.884 141.862 155.767 141.914 155.665 141.98C154.832 142.519 150.789 145.09 148.213 145.311C148.213 145.311 145.45 145.489 143.62 144.787C143.267 144.654 142.867 144.698 142.545 144.89C141.657 145.444 139.938 146.523 139.145 147.084C138.815 147.313 138.391 147.372 138.006 147.239C137.559 147.077 137.041 146.818 136.923 146.427L134.999 143.93C134.999 143.93 134.654 143.103 135.423 142.556C135.863 142.246 136.774 141.493 137.48 140.902C137.991 140.473 138.014 139.727 137.52 139.277C134.772 136.758 126.575 129.275 124.659 127.842C124.447 127.687 124.196 127.606 123.929 127.606H8.74661C8.07923 127.606 7.53747 127.088 7.56103 126.461C7.58458 125.884 7.54532 125.271 7.29408 125.116C6.78373 124.806 5.1035 124.902 5.1035 124.067V123.676C5.1035 123.166 4.73448 122.708 4.20057 122.597C3.01499 122.346 1.04425 121.46 0.643826 118.357C0.133476 114.339 0.0157031 110.742 0 110.07C0 109.959 0.00785154 109.855 0.0392577 109.752C0.211991 109.19 1.09136 107.617 5.44897 106.561C5.44897 106.561 8.4247 107.137 5.77873 100.127C5.76303 100.083 5.74732 100.031 5.73947 99.9867C5.6531 99.5878 5.33119 97.6746 6.73662 97.3127C7.23126 97.1871 7.53747 96.7143 7.52962 96.2342L7.48251 93.6341C7.48251 93.3608 7.56888 93.0949 7.75732 92.888C8.197 92.4079 8.89579 91.322 7.83583 90.0368C7.6788 89.8521 7.58458 89.6305 7.58458 89.3867L7.63169 83.9723C7.63169 83.6103 7.82798 83.2705 8.14204 83.0637C9.03712 82.4728 10.843 81.3131 11.0707 81.2761C11.267 81.2466 11.1963 79.6954 11.1178 78.5578C11.0707 77.9152 11.6203 77.3686 12.3034 77.3686H14.7766H14.7609Z" fill="#231F20" stroke="white" stroke-width="4" mask="url(#path-2-inside-1_46_167)"/>
<path d="M51.2705 66.7536L47.5646 60.8C47.4704 60.6448 47.3055 60.5488 47.117 60.534C45.6409 60.4085 39.1085 59.8323 39.0142 59.4039C38.9122 58.9385 43.1913 56.3236 43.8665 55.2747C43.9136 55.2008 43.9607 55.1417 44.0314 55.09C44.5417 54.7355 46.7716 53.2286 47.4075 53.1399C48.0435 53.0513 50.5953 51.0717 51.7887 49.5426C52.0242 49.2472 52.4953 49.2472 52.723 49.5426C53.4925 50.5472 54.8979 52.4604 55.1884 53.428C55.5888 54.7429 56.8608 56.5157 56.8294 57.9856C56.8294 58.0669 56.8372 58.1334 56.8765 58.2072C57.379 59.2266 61.399 67.4701 61.6895 67.7878C61.9957 68.1276 61.6895 68.3196 61.1791 68.0759C60.763 67.8838 58.1563 64.9291 57.1905 63.8211C56.9864 63.5921 56.6252 63.5552 56.3818 63.7399L52.1342 66.9088C51.8594 67.1156 51.4432 67.0417 51.2705 66.7536Z" fill="white"/>
<path d="M51.6631 55.4003L51.9222 59.3522C51.9222 59.3522 52.6917 60.2681 52.9429 61.088C53.1942 61.908 53.7595 62.8239 53.7595 62.8239C53.7595 62.8239 53.6574 61.7676 53.5553 61.4721C53.4533 61.1767 52.7074 59.788 52.7074 59.788C52.7074 59.788 52.6838 58.8351 52.7074 58.5396C52.7309 58.2442 52.4247 56.752 52.4247 56.752L52.0164 55.8361L51.6553 55.4003H51.6631Z" fill="#231F20"/>
<path d="M54.5288 54.1445C54.5288 54.1445 54.4739 55.6367 54.5288 56.4123C54.5838 57.1879 54.733 58.5396 54.733 58.5396C54.733 58.5396 54.9921 57.7123 54.9921 57.4759C54.9921 57.2396 54.89 56.3162 54.9921 56.0799C55.0941 55.8435 54.9921 54.8758 54.9921 54.7281C54.9921 54.5803 54.5288 54.1519 54.5288 54.1519V54.1445Z" fill="#231F20"/>
<path d="M64.5788 53.6422C64.3511 53.5314 64.3118 53.3098 64.5003 53.1473C65.309 52.4382 67.4525 50.6802 69.1248 49.8381C70.9778 48.9 73.7886 44.2316 74.3618 43.2565C74.4325 43.131 74.5973 43.0793 74.7308 43.1457C75.0213 43.2935 75.5866 43.7441 76.5288 45.0663C78.052 47.201 82.7315 50.5989 84.6002 51.3228C84.6552 51.345 84.6944 51.3745 84.7258 51.4262C85.0791 51.9802 87.3325 55.5628 87.3325 55.7622C87.3325 55.9764 87.9057 58.0743 86.1784 56.8481C85.087 56.0725 84.5452 55.6957 84.294 55.5332C84.1841 55.4594 84.0349 55.4741 83.9328 55.5628L78.9942 60.246C78.9157 60.3198 78.8136 60.342 78.7116 60.3124C78.5074 60.246 78.0677 60.0761 77.2276 59.6698C76.0342 59.0936 66.6594 54.6394 64.5788 53.6496V53.6422Z" fill="white"/>
<path d="M73.6787 48.9L77.3689 53.5241V57.4242L79.3161 54.1519C79.3161 54.1519 79.6773 53.1917 78.6487 52.6081C77.6202 52.0246 75.6259 50.2 75.6259 50.2L73.6787 48.9Z" fill="#231F20"/>
<path d="M107.22 13.1483C107.22 13.1483 108.861 9.10042 113.164 9.19645C113.164 9.19645 113.564 9.25554 112.371 9.80216C111.178 10.3488 107.959 13.1483 107.959 13.1483C107.959 13.1483 107.268 14.0052 107.228 13.1483H107.22Z" fill="white"/>
<path d="M112.52 12.912C112.52 12.912 114.931 9.78 115.975 9.20383C117.019 8.62767 117.129 8.2214 117.129 8.2214C117.129 8.2214 113.596 8.75324 112.724 11.0874L110.424 15.3052C110.424 15.3052 109.27 17.4031 111.421 15.4013C113.572 13.3995 117.231 10.5334 118.645 10.4153C118.645 10.4153 118.974 11.4494 117.773 12.9193L117.49 14.8251C117.49 14.8251 121.895 11.1391 122.61 11.0653C123.324 10.9914 123.253 11.5011 122.61 12.0256C121.966 12.55 122.712 12.7938 123.732 12.6534C124.753 12.5131 125.193 12.0773 125.193 12.0773L123.3 11.9591L127.525 9.01917C127.525 9.01917 123.583 8.73108 120.152 11.5454C120.152 11.5454 118.974 11.5971 119.689 10.1493C119.689 10.1493 122.555 7.88161 119.461 9.04133C116.368 10.201 112.905 12.9711 112.905 12.9711C112.905 12.9711 112.442 13.333 112.52 12.9193V12.912Z" fill="white"/>
<path d="M130.917 13.5324C130.917 13.5324 132.008 10.4153 132.817 10.0755C133.625 9.73568 132.086 12.9637 130.917 13.5324Z" fill="white"/>
<path d="M112.866 24.3983C112.866 24.3983 112.709 17.9275 107.684 16.6275H106.569C106.569 16.6275 107.605 20.8157 107.487 21.5766C107.37 22.3374 107.448 26.5995 107.566 26.6365C107.684 26.6734 107.99 31.0833 110.526 34.7323C113.062 38.3813 112.795 38.5955 115.669 41.5281C115.669 41.5281 116.32 43.0497 116.972 43.1162C117.624 43.1827 117.663 42.215 117.435 41.9934C117.208 41.7718 116.281 41.1292 116.32 41.0184C116.36 40.9076 116.705 39.7552 116.163 39.5336C115.622 39.312 114.318 39.1348 114.318 39.1348L114.358 38.5586H116.006L116.046 37.5097C116.046 37.5097 113.015 35.7369 113.706 34.8726C113.706 34.8726 115.206 36.3204 116.085 36.2835V31.0463L115.355 31.0833C115.355 31.0833 115.512 32.5975 113.745 32.8561H112.065V31.1202C112.065 31.1202 109.411 29.9605 109.45 28.4093C109.45 28.4093 110.448 29.1332 110.989 29.1701L110.832 28.232C110.832 28.232 108.563 26.6069 108.602 26.0307C108.642 25.4546 112.253 27.87 112.253 27.87H113.557V26.9319C113.557 26.9319 110.675 24.583 110.754 23.8221C110.832 23.0613 110.754 22.5959 110.754 22.5959C110.754 22.5959 112.332 24.2579 112.866 24.4057V24.3983Z" fill="white"/>
<path d="M116.36 20.7862V24.1841C116.36 24.1841 115.786 25.3068 114.632 23.6079V20.4316C114.632 20.4316 115.08 19.0946 117.561 19.2719C117.561 19.2719 120.113 18.777 125.766 15.5121H126.496V19.235C126.496 19.235 128.875 21.0743 128.914 21.6209C128.954 22.1675 128.914 24.7972 128.914 24.7972C128.914 24.7972 128.914 25.5949 129.605 24.5829C130.296 23.571 131.333 20.3947 131.333 19.9958C131.333 19.5969 131.717 18.4815 131.717 18.4815C131.717 18.4815 133.523 16.4576 133.829 16.4206C134.136 16.3837 134.481 15.7411 134.787 16.2581C135.093 16.7752 135.36 18.1861 134.481 17.898C133.602 17.6099 132.793 18.1861 132.675 18.7992C132.557 19.4123 131.866 19.9884 132.212 21.4731C132.557 22.9579 133.028 23.9699 133.028 23.9699C133.028 23.9699 132.275 25.9273 131.442 24.1471C131.442 24.1471 130.791 23.8591 130.712 25.4103C130.634 26.9615 130.673 29.5985 130.673 29.5985C130.673 29.5985 130.21 35.4857 128.027 36.8227C128.027 36.8227 128.043 35.8477 127.517 35.8477C126.991 35.8477 126.991 37.3619 126.991 37.3619C126.991 37.3619 125.303 41.4837 122.264 42.7469C119.225 44.01 122.421 40.686 122.421 40.686C122.421 40.686 121.228 40.5087 120.882 40.8337C120.537 41.1587 118.001 41.1587 119.54 39.9325C121.078 38.7063 123.34 38.9944 124.148 39.2825C124.148 39.2825 124.761 38.0563 123.724 37.9086C122.688 37.7608 119.618 39.0978 119.618 39.0978C119.618 39.0978 117.545 39.6371 119.194 37.975C120.843 36.313 121.424 36.35 121.463 35.8403C121.502 35.3306 121.809 33.8533 120.309 33.2402C120.309 33.2402 118.464 33.4913 120.309 34.2891C120.309 34.2891 121.188 35.9142 119.155 36.7858C119.155 36.7858 117.427 37.3989 117.161 35.9215L117.082 33.2476C117.082 33.2476 117.427 30.6105 118.542 30.5366C119.657 30.4628 119.422 30.6105 119.422 30.6105C119.422 30.6105 121 31.6594 121.306 32.6714C121.612 33.6834 123.23 34.5845 123.23 34.5845H125.648C125.648 34.5845 125.57 33.5726 125.224 33.5356C124.879 33.4987 121.769 32.4867 121.919 31.4378C122.068 30.3889 123.457 31.652 123.607 31.689C123.756 31.7259 126.009 31.7998 124.847 31.0389C123.685 30.2781 123.874 30.7508 123.874 30.7508C123.874 30.7508 123.434 30.3224 124.847 29.8644L126.41 28.2541C126.41 28.2541 125.373 28.1064 124.07 29.0519C122.767 29.9974 122.531 28.4388 123.646 28.1138C124.761 27.7888 127.509 25.979 127.509 25.979L125.412 26.016L120.843 28.0769C120.843 28.0769 119.649 28.4388 120.034 26.4149C120.419 24.3909 120.537 23.5931 120.537 23.5931C120.537 23.5931 119.579 24.0954 119.116 26.1194L118.542 28.6456C118.542 28.6456 116.964 28.8229 116.933 27.1314C116.901 25.4398 117.011 20.7714 117.011 20.7714C117.011 20.7714 116.666 20.4168 116.36 20.7714V20.7862Z" fill="white"/>
<path d="M133.955 19.0503C133.955 19.0503 132.754 19.6265 133.044 20.21C133.335 20.7936 133.649 21.5839 133.955 21.3697C134.261 21.1555 134.418 20.3947 134.418 20.2322C134.418 20.0697 134.803 19.1316 133.955 19.0577V19.0503Z" fill="white"/>
<path d="M106.404 37C107.15 37.0443 108.225 36.9483 108.634 36.7341C109.042 36.5199 109.348 36.1284 109.325 35.3601C109.301 34.5919 109.223 33.58 108.94 33.0481C108.657 32.5163 108.657 31.7924 108.171 31.9401C107.684 32.0878 107.299 32.76 107.252 33.0703C107.205 33.3805 106.019 34.88 105.156 35.7443C104.292 36.6085 102.266 37.7165 101.701 38.2262C101.136 38.7359 98.9371 41.4542 98.6309 43.1162C98.6309 43.1162 97.3982 45.864 95.0977 47.9545C92.7972 50.0449 91.0306 50.6285 90.7951 51.1308C90.5595 51.6331 88.1098 53.5167 88.3375 56.8407C88.3375 56.8407 87.2619 59.884 87.1598 60.3124C87.0577 60.7409 86.1077 63.1268 86.5945 65.4388C87.0813 67.7508 88.204 68.7407 88.204 68.7407C88.204 68.7407 89.0206 69.2725 88.6123 67.5145C88.2041 65.7564 87.945 62.9864 88.3297 62.1222C88.7144 61.2579 89.8372 58.318 89.9706 59.7363C90.1041 61.1545 90.4417 66.5025 91.5959 68.1793V75.0711L92.6716 77.9076C92.6716 77.9076 93.865 81.2685 95.8986 83.3959C95.8986 83.3959 97.5474 84.8067 96.4325 82.9231C95.3175 81.0395 94.0142 78.9491 93.8964 78.7349C93.7786 78.5207 92.5145 75.9132 93.0877 75.6989C93.6609 75.4847 93.9749 77.3979 94.6659 78.5207C95.3568 79.6434 97.3903 81.8447 98.7016 79.6065C100.013 77.3683 100.201 76.8956 100.201 76.8956C100.201 76.8956 101.159 74.8347 103.428 78.2326C105.697 81.6305 106.844 84.5187 106.844 84.5187L109.325 88.5666C109.325 88.5666 110.832 90.1178 110.911 87.7023C110.989 85.2869 111.099 84.4522 110.604 83.551C110.11 82.6498 109.34 80.4043 109.34 80.4043C109.34 80.4043 108.461 77.228 110.495 80.7293C112.528 84.2306 113.455 85.1022 115.064 85.3534C116.674 85.6045 117.294 85.3903 117.294 85.3903C117.294 85.3903 113.722 73.9705 106.388 71.7692H102.667L100.555 71.8061C100.555 71.8061 98.1755 70.2919 98.0577 70.3214C98.0577 70.3214 98.2462 67.0713 97.9792 66.3843C97.7123 65.6973 95.7101 57.3134 94.7915 57.0623C94.7915 57.0623 94.6737 56.198 95.5609 57.0992C96.4482 58.0004 99.0941 63.3853 99.0549 63.4961C99.0156 63.6069 100.358 69.4572 102.934 70.6169H106.734C106.734 70.6169 115.527 74.2659 118.142 84.7772C118.142 84.7772 119.257 87.6654 116.839 86.6904C114.42 85.7153 116.375 87.9535 116.375 87.9535C116.375 87.9535 115.889 88.7808 112.614 88.6774C112.614 88.6774 107.778 92.1787 115.496 100.814C115.496 100.814 120.411 101.25 120.45 98.679C120.49 96.1084 120.144 93.6929 122.138 93.2202C122.138 93.2202 124.211 94.1214 125.059 95.2811C125.059 95.2811 125.444 94.0918 124.596 92.8583C124.596 92.8583 124.674 80.8622 123.402 79.8872C123.402 79.8872 118.754 71.8283 116.148 70.1294C116.148 70.1294 115.841 72.2937 117.066 73.5642C117.066 73.5642 115.417 72.5891 114.954 71.1413C114.491 69.6936 116.839 67.5292 117.569 67.1304C118.299 66.7315 123.905 61.2653 123.599 54.1372C123.599 54.1372 125.326 55.0309 124.407 57.4095C123.489 59.788 122.178 63.4075 122.178 63.4075C122.178 63.4075 121.102 64.9587 127.014 65.0695C127.014 65.0695 127.933 65.7564 125.711 66.6207C125.711 66.6207 126.472 67.3076 127.203 67.5588C127.933 67.8099 125.632 68.2458 124.36 68.2088C123.088 68.1719 120.097 68.2088 120.097 68.2088C120.097 68.2088 119.21 70.4839 124.588 71.3186H130.618C130.618 71.3186 137.606 69.5089 139.372 64.2717C139.372 64.2717 139.679 59.8249 139.215 59.3965C139.215 59.3965 137.692 46.9573 127.909 45.3174C127.909 45.3174 126.936 44.4532 129.495 44.8373C129.495 44.8373 128.93 37.325 133.9 34.7175C133.9 34.7175 133.9 31.3935 136.97 30.3372C140.04 29.2809 140.04 28.7934 142.552 28.7934C142.552 28.7934 144.602 27.4416 146.141 28.4536C147.679 29.4656 145.426 30.3815 142.552 30.1377C142.552 30.1377 137.229 30.3815 138.046 34.134C138.046 34.134 139.121 34.6658 136.098 35.1459C136.098 35.1459 130.367 36.7784 131.285 43.0202C131.285 43.0202 133.076 47.3783 137.535 51.6183C137.535 51.6183 138.972 52.2905 142.45 51.3302C142.45 51.3302 143.094 51.9655 139.522 52.9553C139.522 52.9553 139.043 53.7678 140.582 53.4576C142.121 53.1473 144.649 52.32 141.885 53.8343C141.885 53.8343 138.218 55.3486 141.116 55.0826C144.013 54.8167 144.209 54.5804 141.594 55.91C138.98 57.2396 140.44 59.3817 141.94 59.3448C143.44 59.3078 141.861 60.3568 140.864 60.2829C139.867 60.209 141.328 63.8211 142.859 64.1092C144.39 64.3973 146.007 63.6069 146.007 63.6069C146.007 63.6069 150.043 61.908 150.883 54.9349L150.694 51.537C150.694 51.537 150.388 47.4153 144.358 43.7293C144.358 43.7293 143.824 42.6804 145.858 43.877C147.891 45.0737 150.239 46.876 150.239 46.9868C150.239 47.0976 151.087 47.0238 150.318 45.6868C149.548 44.3498 146.36 39.3268 141.061 36.6528C141.061 36.6528 141.061 35.567 143.903 37.7387C143.903 37.7387 149.894 41.0996 153.466 46.3368C153.466 46.3368 155.076 46.9868 156.465 46.2999C157.855 45.6129 158.193 43.5889 158.193 42.4366C158.193 41.2843 158.538 35.1755 157.541 34.4516C157.541 34.4516 159.465 36.3278 159.308 40.0507C159.151 43.7736 158.844 48.6488 155.272 48.4715C155.272 48.4715 151.66 48.1465 152.006 50.6063C152.351 53.0661 152.43 58.1186 155.657 61.2284L155.083 53.9303C155.083 53.9303 155.24 52.0541 155.892 56.3162C156.544 60.5784 157.502 64.2274 159.158 64.7371L159.323 62.0262C159.323 62.0262 159.158 59.9283 159.928 62.3512C160.697 64.774 160.619 65.786 161.082 65.7121C161.545 65.6382 161.043 64.1978 161.082 64.0501C161.121 63.9024 160.43 61.9892 160.548 61.4131C160.666 60.8369 163.163 58.9164 163.163 58.9164L164.278 57.5794C164.278 57.5794 165.126 56.4196 163.045 55.7696L162.927 57.3947L161.003 59.7067C161.003 59.7067 159.81 60.571 160.815 59.0198C161.82 57.4686 161.969 57.535 161.969 56.8185C161.969 56.102 162.315 55.4077 161.851 54.9792C161.388 54.5508 161.121 52.6672 162.425 54.2184C162.425 54.2184 162.346 54.7946 162.542 54.9054C162.739 55.0162 164.442 55.5554 164.442 55.5554C164.442 55.5554 166.617 56.4566 164.615 58.8425C162.613 61.2284 161.545 61.8046 161.545 61.8046C161.545 61.8046 161.2 64.5524 163.084 64.9513C164.969 65.3502 163.893 67.1156 163.508 67.4406C163.123 67.7656 162.244 68.7037 162.393 69.4276C162.542 70.1515 162.393 75.7507 162.393 75.7507C162.393 75.7507 161.435 76.1495 161.435 75.7507C161.435 75.3518 161.938 74.0148 161.475 73.9114C161.011 73.8079 160.823 73.8375 160.823 74.5245C160.823 75.2114 160.093 81.7117 160.093 81.7117C160.093 81.7117 159.629 84.1346 161.208 82.6129C162.786 81.0912 162.362 81.3128 162.511 80.1901C162.66 79.0673 162.55 77.9519 162.856 77.9519C163.163 77.9519 162.856 79.5031 163.626 78.9269C164.395 78.3508 166.201 75.6325 166.35 75.0415C166.5 74.4506 167.387 72.4636 167.387 72.4636C167.387 72.4636 168.502 71.8505 167.387 74.0517C166.272 76.2529 166.994 77.1984 167.881 75.891C168.769 74.5835 170.841 72.0942 171.187 71.5919C171.532 71.0896 173.071 68.9549 173.071 68.9549C173.071 68.9549 173.762 65.232 172.569 64.4416C172.569 64.4416 173.566 64.0427 174.108 65.9559C174.649 67.869 174.375 69.0287 174.108 69.243C173.841 69.4572 173.762 70.905 173.762 70.905C173.762 70.905 173.574 77.0507 171.226 81.564C171.226 81.564 170.378 84.8141 172.38 81.1651C174.382 77.5161 175.144 74.4801 175.144 73.7562C175.144 73.0323 175.372 66.9605 175.372 66.9605C175.372 66.9605 174.108 63.3114 173.723 62.5875C173.338 61.8636 171.532 58.3254 171.611 57.4907C171.689 56.656 171.226 53.9156 171.077 53.0439C170.928 52.1723 166.774 43.5742 166.468 43.9361C166.468 43.9361 162.126 38.5512 161.357 38.5143V44.0026C161.357 44.0026 160.47 46.1374 160.203 43.5298C159.936 40.9223 160.47 39.0461 160.203 37.6796C159.936 36.313 157.478 31.2827 157.172 31.1793C156.866 31.0759 153.45 26.8063 150.294 26.6291C147.146 26.4518 144.46 26.8433 144.46 26.8433C144.46 26.8433 141.814 27.8553 140.275 26.9171C138.737 25.979 137.661 25.2921 136.436 25.2182C135.211 25.1443 132.864 24.6051 131.866 28.4684C130.869 32.3316 131.521 33.8163 130.218 35.6187C128.914 37.421 126.323 41.2547 124.894 42.0156C124.894 42.0156 120.929 44.7634 117.318 43.6776C117.318 43.6776 116.053 43.2787 114.899 44.9407C113.745 46.6027 111.712 47.4005 111.523 47.7255C111.335 48.0505 112.756 48.2647 113.674 47.9028C114.593 47.5408 117.938 45.3396 117.938 45.3396C117.938 45.3396 120.168 44.2537 122.39 44.4753C122.39 44.4753 126.041 44.4384 122.507 44.8004C122.507 44.8004 118.55 45.5612 118.472 47.5113C118.393 49.4614 119.32 49.5352 119.32 49.5352C119.32 49.5352 121.432 51.995 120.78 57.3725C120.78 57.3725 120.552 50.2887 116.98 48.0874C116.98 48.0874 111.256 48.8483 110.911 49.0994C110.565 49.3506 108.492 49.4614 108.068 50.2591C107.644 51.0569 106.341 50.9092 107.801 49.5352C107.801 49.5352 110.071 48.5602 110.455 48.5233C110.84 48.4863 110.84 47.5851 108.806 48.1982C106.773 48.8113 105.579 49.1733 105.156 49.4614C104.732 49.7494 103.923 50.1114 103.122 50.2222C102.321 50.333 97.4375 50.2961 97.4375 50.2961C97.4375 50.2961 98.2462 48.671 99.7772 48.346C101.308 48.021 102.886 47.4448 102.886 47.2232C102.886 47.0016 102.808 46.3959 102.353 46.3959C101.897 46.3959 101.968 45.3839 102.886 45.4947C103.805 45.6055 104.19 46.1817 104.425 45.6424C104.661 45.1032 104.889 41.3064 104.928 40.9814C104.967 40.6564 106.286 36.9483 106.451 36.9557L106.404 37Z" fill="white"/>
<path d="M106.145 52.9774C106.145 52.9774 108.218 55.7253 108.375 56.7742C108.532 57.8231 110.369 59.8471 110.22 57.4242C110.071 55.0014 106.114 52.3643 106.153 52.9774H106.145Z" fill="#231F20"/>
<path d="M99.4396 87.8205C100.327 88.6331 103.585 90.7087 104.763 92.7844C105.941 94.8601 107.527 98.1324 109.066 99.1887C110.604 100.245 110.039 101.309 108.602 100.009C107.166 98.7085 104.661 96.7806 104.151 96.3965C103.64 96.0124 100.052 93.4123 99.4396 90.6127C98.8272 87.8131 98.623 87.8205 98.623 87.8205C98.623 87.8205 98.7801 87.2074 99.4396 87.8205Z" fill="white"/>
<path d="M102.51 85.8926C102.51 85.8926 104.253 88.6848 104.559 89.0689C104.865 89.453 107.071 92.8287 107.378 93.789C107.684 94.7493 109.121 98.029 109.631 98.029C110.141 98.029 109.89 99.0409 110.244 98.5608C110.597 98.0807 110.644 96.6329 109.984 95.4288C109.325 94.2248 109.121 93.8702 108.76 92.2895C108.398 90.7087 107.739 89.1206 107.119 88.249C106.498 87.3773 105.635 85.8409 105.069 85.213C104.504 84.5851 103.02 82.4208 102.51 83.2408C101.999 84.0607 102.306 85.5602 102.51 85.8926Z" fill="white"/>
<path d="M117.616 105.068C117.286 105.216 116.901 105.645 117.051 106.42C117.2 107.196 117.867 109.552 117.969 110.032C118.071 110.512 118.495 112.248 117.49 110.897C116.485 109.545 115.669 108.296 115.559 107.284C115.449 106.273 115.865 103.864 115.559 103.288C115.253 102.712 114.02 100.673 113.407 100.851C112.795 101.028 113.25 104.448 113.407 104.736C113.565 105.024 115.096 110.468 116.273 112.012C117.451 113.556 120.623 120.056 123.952 123.092C127.281 126.128 127.996 127.524 128.357 127.96C128.718 128.396 131.175 130.708 131.38 130.996C131.584 131.284 132.502 132.68 132.502 132.68C132.502 132.68 132.683 135.014 134.701 135.546C136.719 136.078 134.756 134.704 134.701 134.556C134.646 134.408 133.24 132.392 133.06 131.978C132.879 131.565 132.675 130.922 132.447 130.53C132.22 130.139 129.684 127.088 129.684 127.088C129.684 127.088 122.774 119.502 122.719 119.428C122.664 119.354 119.084 114.464 119.265 112.418C119.445 110.372 119.006 107.284 118.935 106.996C118.864 106.708 118.629 105.94 118.37 105.645C118.111 105.349 117.82 104.972 117.6 105.068H117.616Z" fill="white"/>
<path d="M120.317 106.309C120.317 106.309 120.317 108.732 120.741 109.707C121.165 110.682 121.314 117.042 127.344 120.256C127.344 120.256 129.998 121.341 130.265 121.482C130.532 121.622 130.767 122.346 130.901 121.659C131.034 120.972 130.916 116.599 130.343 115.587C129.77 114.575 128.153 112.152 127.077 111.465C126.001 110.778 124.777 109.478 123.198 108.614C121.62 107.75 120.317 106.302 120.317 106.302V106.309Z" fill="white"/>
<path d="M128.498 122.893C129.15 123.831 129.919 124.156 130.304 124.732C130.689 125.308 130.869 124.584 130.948 124.008C131.026 123.432 131.482 122.634 130.948 122.634H128.726L128.498 122.885V122.893Z" fill="white"/>
<path d="M136.797 136.765C136.797 136.765 139.907 141.138 141.179 141.965C142.45 142.792 142.56 143.265 143.102 143.228C143.644 143.191 143.605 142.829 142.914 142.29C142.223 141.751 140.841 140.34 140.338 139.793C139.836 139.247 138.957 138.671 138.454 137.88C137.952 137.09 137.072 136.292 136.805 136.757L136.797 136.765Z" fill="white"/>
<path d="M121.589 94.9265C121.393 95.8942 121.471 97.2386 121.589 97.9994C121.707 98.7602 121.95 100.238 121.424 100.459C120.898 100.681 120.05 100.607 120.089 101.796C120.128 102.985 120.702 105.408 123.505 107.144C126.308 108.88 128.113 111.916 129.189 109.67C129.189 109.67 130.383 110.143 130.422 111.155C130.461 112.167 131.576 116.215 131.576 116.466C131.576 116.717 131.882 120.477 131.882 120.477V124.451C131.882 124.451 132.385 129.585 133.421 127.989C134.458 126.394 134.803 127.125 134.921 127.302C135.039 127.48 135.957 129.976 136.499 130.375C137.041 130.774 138.532 132.577 138.729 132.65C138.925 132.724 139.726 132.761 139.341 131.602C138.956 130.442 137.614 130.013 137.308 129.688C137.001 129.363 135.965 128.026 135.926 127.376C135.886 126.726 135.58 125.175 135.313 124.628C135.046 124.082 135.007 123.653 134.701 123.218C134.395 122.782 134.662 122.169 134.01 122.641C133.358 123.114 133.398 123.764 133.437 123.942C133.476 124.119 132.934 124.555 132.903 124.156C132.872 123.757 132.981 122.782 133.021 122.641C133.06 122.501 133.209 121.74 133.751 121.777C134.293 121.814 134.827 121.991 135.054 122.39C135.282 122.789 135.863 124.089 135.863 124.2C135.863 124.311 136.287 125.862 136.326 126.076C136.365 126.29 136.672 127.339 136.829 127.627C136.986 127.916 137.52 128.351 137.826 128.676C138.132 129.001 138.784 129.179 139.059 129.4C139.333 129.622 139.828 130.486 139.938 130.737C140.048 130.988 140.323 132 140.44 132.288C140.558 132.577 140.786 133.478 140.786 133.478C140.786 133.478 140.707 134.202 141.516 134.165C142.325 134.128 142.435 134.202 142.364 133.478C142.293 132.754 142.176 133.005 141.83 132.178C141.485 131.35 141.178 130.228 142.388 130.841C143.597 131.454 144.633 133.478 145.285 133.877C145.936 134.276 146.894 136.159 147.939 136.624C148.983 137.09 151.354 138.715 153.238 139.114C155.123 139.513 155.083 140.85 156.238 140.377C157.392 139.904 157.698 140.229 157.392 138.789C157.086 137.348 157.086 137.607 156.622 136.624C156.159 135.642 156.355 135.103 155.774 135.428C155.193 135.753 156.198 136.913 154.895 136.477C153.592 136.041 153.089 135.679 152.555 134.962C152.021 134.246 151.134 133.337 151.056 132.865C150.977 132.392 150.482 131.055 151.48 131.025C152.477 130.996 153.364 130.951 153.859 130.878C154.353 130.804 155.437 129.541 153.435 128.78C153.435 128.78 151.362 129.393 150.09 128.891C148.818 128.388 147.789 127.768 147.326 127.664C146.863 127.561 145.371 127.302 144.295 127.45C143.22 127.598 142.717 127.775 141.995 127.775C141.273 127.775 140.495 127.775 139.537 126.837C138.58 125.899 137.237 123.402 137.158 123.225C137.08 123.048 134.779 118.453 134.662 117.013C134.544 115.572 134.316 113.615 134.316 113.15C134.316 112.684 133.468 109.323 132.974 108.452C132.479 107.58 130.822 104.042 130.634 103.828C130.445 103.613 127.14 97.8664 126.834 97.7926C126.527 97.7187 123.528 94.4316 123.073 94.4316C122.617 94.4316 121.785 94.2913 121.652 94.9339L121.589 94.9265Z" fill="white"/>
<path d="M140.48 73.1062C141.076 72.1976 142.246 70.868 142.403 70.3584C142.56 69.8487 143.322 69.0583 142.403 68.9106C141.485 68.7628 141.021 68.5486 140.48 68.3344C139.938 68.1202 139.365 66.8201 138.768 67.6844C138.171 68.5486 137.174 70.2845 137.174 70.7203C137.174 71.1561 136.405 71.1561 136.098 71.5181C135.792 71.88 136.255 72.9659 136.098 73.1062C135.941 73.2466 135.761 73.8301 135.086 73.9705C134.41 74.1108 132.644 74.1847 132.031 74.6944C131.419 75.204 127.964 75.9205 127.807 76.3564C127.65 76.7922 126.504 77.7303 125.962 77.8042C125.42 77.878 124.541 77.9519 124.368 78.24C124.196 78.5281 124.423 82.3691 126.119 83.0709C127.815 83.7726 129.385 86.4835 132.416 86.6608C135.447 86.8381 135.18 86.912 135.18 86.912C135.18 86.912 134.913 87.2739 134.104 87.4881C133.295 87.7023 132.605 88.212 131.301 88.212C129.998 88.212 128.804 88.1012 128.192 88.212C127.58 88.3228 126.999 87.887 126.959 88.574C126.92 89.2609 126.881 93.3827 126.881 93.3827L127.108 96.0198C127.108 96.0198 132.871 105.955 133.099 106.14C133.327 106.324 134.787 107.838 136.475 106.937C138.163 106.036 136.939 104.116 136.939 104.116C136.939 104.116 137.787 102.564 138.36 101.981C138.933 101.397 140.009 100.319 140.009 100.319C140.009 100.319 140.275 97.1721 140.354 96.5221C140.432 95.872 140.432 95.0373 140.621 94.0992C140.809 93.1611 140.888 92.7253 140.888 91.9349C140.888 91.1445 140.731 90.7752 140.731 90.7752C140.731 90.7752 138.807 92.0014 138.501 92.3264C138.195 92.6514 137.268 94.4242 138.744 94.5646C138.744 94.5646 139.341 95.9016 137.496 95.3624C135.651 94.8231 136.805 92.1122 136.805 92.0014C136.805 91.8906 137.457 90.8417 137.614 90.3763C137.771 89.911 137.802 88.4262 137.802 88.1012C137.802 87.7762 136.884 86.912 137.92 86.0773C138.956 85.2426 139.302 84.9545 139.498 84.238C139.694 83.5215 140.071 82.6129 140.071 82.6129C140.071 82.6129 140.338 82.864 140.189 83.913C140.04 84.9619 139.765 85.2869 139.341 85.7522C138.917 86.2176 138.642 86.1142 138.744 86.4023C138.846 86.6904 138.744 90.199 138.744 90.199C138.744 90.199 139.113 90.8491 140.378 89.6598C141.642 88.4706 142.066 86.2619 142.066 86.2619L142.144 84.4891C142.144 84.4891 142.223 81.4163 142.223 81.2759C142.223 81.1356 141.956 80.6628 141.304 80.6628C140.652 80.6628 141.147 80.1605 141.461 79.6878C141.775 79.215 142.576 77.8115 142.576 77.6638C142.576 77.5161 142.537 75.4921 142.576 75.0785C142.615 74.6648 142.419 73.9409 142.419 73.9409C142.419 73.9409 142.073 72.5301 141.689 72.9289C141.304 73.3278 140.692 74.0517 140.692 74.0517C140.692 74.0517 140.079 73.6972 140.464 73.1136L140.48 73.1062Z" fill="white"/>
<path d="M129.189 81.4532C129.307 81.4532 133.068 81.4532 134.41 81.0174C135.753 80.5816 138.941 80.1162 139.749 79.1781C140.558 78.24 140.864 77.0803 140.519 76.9768C140.173 76.8734 139.946 76.7996 139.216 77.5161C138.485 78.2326 139.027 78.3138 137.637 78.9639C136.248 79.6139 135.753 79.6878 133.947 79.7247C132.141 79.7616 131.144 79.6139 130.296 79.577C129.448 79.54 127.996 79.3258 127.375 79.1781C126.755 79.0303 125.994 79.1411 126.143 79.6065C126.292 80.0719 128.137 81.2685 128.255 81.2685C128.373 81.2685 129.173 81.4458 129.173 81.4458L129.189 81.4532Z" fill="#231F20"/>
<path d="M130.037 95.3624C130.461 95.3624 131.764 95.6135 132.377 95.3624C132.989 95.1112 134.756 94.8231 135.18 94.6754C135.604 94.5277 135.525 94.9265 135.18 95.2516C134.834 95.5766 133.986 96.4777 133.225 96.6255C132.463 96.7732 131.113 97.0613 130.265 96.8397C129.417 96.6181 128.961 96.8397 128.844 96.2635C128.726 95.6874 128.687 95.2146 129.15 95.2885C129.613 95.3624 130.029 95.3624 130.029 95.3624H130.037Z" fill="#231F20"/>
<path d="M142.898 70.6243C142.898 70.6243 143.526 72.988 143.526 73.6602C143.526 74.3324 143.73 78.1956 143.526 79.1781C143.322 80.1605 143.345 84.1641 143.259 84.7403C143.173 85.3164 142.859 90.2803 142.144 90.5241C142.144 90.5241 141.634 94.5941 141.532 95.1334C141.43 95.6726 141.328 99.2404 141.328 99.6762C141.328 100.112 142.372 99.9199 142.851 99.3364C143.33 98.7528 145.63 97.8443 146.4 97.9846C147.169 98.125 149.218 98.9006 149.47 98.8489C149.721 98.7972 150.804 97.667 151.362 95.776C151.919 93.885 152.744 92.8435 153.207 91.7502C153.67 90.657 155.358 86.3136 155.358 86.0994C155.358 85.8852 155.924 82.0072 155.924 81.4384C155.924 80.8696 155.256 78.9934 155.562 78.5576C155.869 78.1218 156.536 76.0535 156.944 75.4773C157.353 74.9012 158.02 73.6971 158.02 73.2096C158.02 72.7221 158.114 71.6658 157.455 71.2817C156.795 70.8976 153.105 67.5736 153.105 67.5736C153.105 67.5736 150.726 65.2615 150.812 64.1018C150.812 64.1018 147.57 64.5376 145.882 67.1378C144.193 69.7379 143.526 70.6021 142.898 70.6095V70.6243Z" fill="white"/>
<path d="M143.133 97.1278C142.702 97.1278 142.976 95.2885 143.133 95.1777C143.29 95.0669 145.669 95.1777 145.669 95.1777C145.669 95.1777 145.136 95.5987 144.672 96.1306C144.209 96.6624 143.636 97.1278 143.133 97.1278Z" fill="#231F20"/>
<path d="M145.662 92.9026C146.604 93.5231 149.658 93.3384 149.658 93.3384H150.812C150.812 93.3384 149.933 91.9275 149.854 91.3514C149.776 90.7752 149.776 90.2286 149.43 90.1621C149.085 90.0956 148.355 90.4133 147.892 90.9229C147.428 91.4326 145.662 92.2969 145.662 92.2969C145.662 92.2969 145.277 92.6588 145.662 92.91V92.9026Z" fill="#231F20"/>
<path d="M147.703 88.4262C147.703 88.4262 149.281 86.4392 149.47 86.3653C149.658 86.2915 151.354 84.6295 151.354 84.6295C151.354 84.6295 152.006 83.8686 151.817 83.8021C151.629 83.7357 150.584 84.3783 150.208 84.7033C149.831 85.0283 149.289 85.9665 149.21 85.5011C149.132 85.0357 149.053 84.201 149.053 84.201C149.053 84.201 148.865 83.4033 148.52 84.1272C148.174 84.8511 148.017 85.7818 147.986 86.1142C147.954 86.4466 147.334 88.4632 147.719 88.4262H147.703Z" fill="#231F20"/>
<path d="M161.53 96.5885C161.129 96.8175 162.762 89.128 162.99 87.5472C163.218 85.9665 162.912 85.6784 163.524 84.4448C164.136 83.2112 167.976 77.3609 169.672 75.4109C171.368 73.4608 172.82 71.001 172.82 71.001C172.82 71.001 173.511 73.6381 172.82 75.0637C172.129 76.4893 171.211 78.3729 170.826 79.7469C170.441 81.1208 168.981 85.2352 168.29 86.1068C167.599 86.9784 165.526 91.5434 165.291 91.7576C165.055 91.9719 162.527 96.0124 161.53 96.5885Z" fill="white"/>
<path d="M154.385 101.434C155.288 101.626 155.303 101.139 155.154 99.9126C155.005 98.6864 154 97.9625 154.385 97.1352C154.769 96.3078 154.934 95.584 155.201 95.5101C155.468 95.4362 155.617 94.4833 155.696 93.3679C155.774 92.2525 156.984 89.8002 158.028 88.4262C159.072 87.0523 161.176 84.8141 161.467 84.6664C161.757 84.5187 162.527 82.8567 162.527 84.6664C162.527 86.4761 162.22 90.2951 161.836 90.8786C161.451 91.4622 158.766 96.5885 158.766 97.6005C158.766 98.6125 157.682 101.937 157.455 104.972C157.227 108.008 156.442 110.97 154.298 110.756C154.298 110.756 154.157 109.67 152.39 111.406C150.624 113.142 149.47 114.339 149.014 114.132C148.559 113.925 146.847 113.423 148.158 111.835C149.47 110.247 150.726 107.617 148.472 109.404C148.472 109.404 147.193 111.377 147.067 111.473C146.941 111.569 145.991 112.655 145.426 112.677C144.861 112.699 142.537 112.581 143.989 110.801C145.442 109.02 146.627 108.319 146.989 107.912C147.35 107.506 148.041 106.923 148.143 106.878C148.245 106.834 149.422 104.3 146.659 106.309C143.895 108.319 143.942 109.212 143.871 109.404C143.801 109.597 142.513 111.569 141.492 111.598C140.472 111.628 139.6 110.32 140.849 109.043C142.097 107.765 143.047 106.442 143.259 106.103C143.471 105.763 143.903 104.153 143.589 103.96C143.275 103.768 142.874 102.66 142.026 105.12C141.178 107.58 139.388 107.838 139.388 107.838C139.388 107.838 136.805 107.669 138.187 106.007C139.569 104.345 140.566 102.779 140.904 102.513C141.241 102.247 143.385 99.8756 143.722 99.9052C144.06 99.9347 146.926 98.5386 148.253 99.4767C149.58 100.415 149.996 100.585 150.53 100.393C151.063 100.201 152.375 98.7528 152.5 98.2727C152.626 97.7926 153.168 96.2488 153.521 97.3568C153.874 98.4648 153.702 99.329 153.851 100.031C154 100.732 154.157 101.383 154.385 101.427V101.434Z" fill="white"/>
<path d="M153.074 112.994C153.458 113.401 154.455 114.331 155.107 114.693C155.759 115.055 155.837 115.521 156.34 115.196C156.842 114.871 157.188 114.413 156.567 114.154C155.947 113.896 154.989 113.534 154.573 113.393C154.157 113.253 152.697 112.596 153.074 112.994Z" fill="white"/>
<path d="M160.87 107.211C160.87 107.211 161.059 106.856 161.789 106.819C162.519 106.782 163.862 106.317 164.129 106.132C164.395 105.947 164.937 106.132 164.662 106.671C164.388 107.211 164.474 107.905 163.665 108.082C162.857 108.26 162.056 108.008 161.742 107.831C161.428 107.654 160.862 107.211 160.862 107.211H160.87Z" fill="#231F20"/>
<path d="M146.046 115.306C146.604 115.462 146.58 116.909 146.58 117.441C146.58 117.973 147.193 119.096 146.58 118.623C145.968 118.15 145.622 118.224 145.041 117.862C144.46 117.5 144.774 117.138 145.041 116.673C145.308 116.208 145.654 115.196 146.039 115.299L146.046 115.306Z" fill="#231F20"/>
<path d="M148.622 119.244C148.81 119.214 149.273 119.746 150.428 120.47C151.582 121.194 151.967 121.231 152.233 121.408C152.5 121.585 152.964 121.556 152.233 121.954C151.503 122.353 150.428 123.218 149.933 123.506C149.438 123.794 148.897 124.148 148.63 123.794C148.363 123.439 148.017 123.144 148.818 122.641C149.619 122.139 149.776 122.501 149.815 121.954C149.854 121.408 149.737 120.979 149.43 120.617C149.124 120.256 148.551 119.894 148.551 119.894C148.551 119.894 147.978 119.354 148.63 119.244H148.622Z" fill="#231F20"/>
<path d="M15.2947 134.807V136.299H16.2604C16.4881 136.299 16.653 136.344 16.7472 136.44C16.8414 136.536 16.8885 136.661 16.8885 136.809C16.8885 136.957 16.8414 137.082 16.7472 137.178C16.653 137.275 16.4881 137.319 16.2604 137.319H14.2033C13.9756 137.319 13.8107 137.275 13.7165 137.178C13.6223 137.082 13.5752 136.964 13.5752 136.809C13.5752 136.654 13.6223 136.536 13.7244 136.44C13.8264 136.344 13.9835 136.299 14.2112 136.299H14.3603V132.311H14.2112C13.9835 132.311 13.8186 132.266 13.7244 132.17C13.6302 132.074 13.583 131.956 13.583 131.801C13.583 131.646 13.6302 131.528 13.7244 131.432C13.8186 131.336 13.9835 131.291 14.2112 131.291H18.6473V132.857C18.6473 133.101 18.6002 133.271 18.5138 133.374C18.4274 133.478 18.3097 133.529 18.1683 133.529C18.027 133.529 17.9171 133.478 17.8307 133.374C17.7444 133.271 17.6973 133.094 17.6973 132.85V132.311H15.2947V133.788H16.1191C16.1191 133.522 16.1426 133.352 16.1898 133.278C16.284 133.116 16.4174 133.035 16.598 133.035C16.7394 133.035 16.8493 133.086 16.9357 133.19C17.022 133.293 17.0691 133.47 17.0691 133.714V134.889C17.0691 135.132 17.022 135.31 16.9357 135.413C16.8493 135.516 16.7315 135.568 16.5902 135.568C16.4174 135.568 16.284 135.487 16.1898 135.324C16.1426 135.251 16.1191 135.073 16.1191 134.807H15.2947Z" fill="white"/>
<path d="M25.8314 132.303V136.292H26.7815C27.0091 136.292 27.174 136.336 27.2682 136.432C27.3625 136.528 27.4096 136.654 27.4096 136.802C27.4096 136.949 27.3625 137.075 27.2682 137.171C27.174 137.267 27.0091 137.311 26.7815 137.311H23.9313C23.7037 137.311 23.5388 137.267 23.4446 137.171C23.3503 137.075 23.3032 136.957 23.3032 136.802C23.3032 136.647 23.3503 136.528 23.4446 136.432C23.5388 136.336 23.7037 136.292 23.9313 136.292H24.8814V132.303H23.9313C23.7037 132.303 23.5388 132.259 23.4446 132.163C23.3503 132.067 23.3032 131.949 23.3032 131.794C23.3032 131.638 23.3503 131.52 23.4446 131.424C23.5388 131.328 23.7037 131.284 23.9313 131.284H26.7815C27.0091 131.284 27.174 131.336 27.2682 131.432C27.3625 131.528 27.4096 131.646 27.4096 131.801C27.4096 131.956 27.3625 132.074 27.2682 132.17C27.174 132.266 27.0091 132.311 26.7815 132.311H25.8314V132.303Z" fill="white"/>
<path d="M35.2454 132.303V136.292H35.8814C36.1091 136.292 36.274 136.336 36.3682 136.432C36.4624 136.528 36.5095 136.654 36.5095 136.802C36.5095 136.949 36.4624 137.075 36.3682 137.171C36.274 137.267 36.1091 137.311 35.8814 137.311H33.6751C33.4474 137.311 33.2826 137.267 33.1883 137.171C33.0941 137.075 33.047 136.957 33.047 136.802C33.047 136.647 33.0941 136.528 33.1883 136.432C33.2826 136.336 33.4474 136.292 33.6751 136.292H34.3033V132.303H33.2826V133.271C33.2826 133.515 33.2354 133.692 33.1491 133.795C33.0627 133.899 32.9449 133.95 32.8036 133.95C32.6623 133.95 32.5524 133.899 32.466 133.795C32.3796 133.692 32.3325 133.515 32.3325 133.271V131.277H37.2162V133.271C37.2162 133.515 37.1691 133.692 37.0827 133.795C36.9963 133.899 36.8786 133.95 36.7372 133.95C36.5959 133.95 36.486 133.899 36.3996 133.795C36.3132 133.692 36.2661 133.515 36.2661 133.271V132.303H35.2297H35.2454Z" fill="white"/>
<path d="M43.0264 133.212V136.299H43.364C43.5917 136.299 43.7566 136.344 43.8508 136.44C43.945 136.536 43.9921 136.661 43.9921 136.809C43.9921 136.957 43.945 137.082 43.8508 137.178C43.7566 137.275 43.5917 137.319 43.364 137.319H42.1235C41.8958 137.319 41.7309 137.275 41.6367 137.178C41.5425 137.082 41.4954 136.964 41.4954 136.809C41.4954 136.654 41.5425 136.543 41.6367 136.447C41.7309 136.351 41.8801 136.299 42.0764 136.299V132.311H41.9272C41.6995 132.311 41.5346 132.266 41.4404 132.17C41.3462 132.074 41.2991 131.956 41.2991 131.801C41.2991 131.646 41.3462 131.528 41.4404 131.432C41.5346 131.336 41.6995 131.291 41.9272 131.291H43.0186L45.429 135.391V132.318H45.0914C44.8637 132.318 44.6988 132.274 44.6046 132.178C44.5104 132.082 44.4632 131.963 44.4632 131.808C44.4632 131.653 44.5104 131.535 44.6046 131.439C44.6988 131.343 44.8637 131.299 45.0914 131.299H46.3319C46.5596 131.299 46.7245 131.35 46.8187 131.446C46.9129 131.542 46.96 131.661 46.96 131.816C46.96 131.971 46.9129 132.089 46.8187 132.185C46.7245 132.281 46.5753 132.333 46.379 132.333V137.348H45.4447L43.0186 133.241L43.0264 133.212Z" fill="white"/>
<path d="M52.6601 134.8V136.299H55.0627V135.745C55.0627 135.502 55.1098 135.324 55.1962 135.221C55.2825 135.118 55.4003 135.066 55.5416 135.066C55.683 135.066 55.7929 135.118 55.8792 135.221C55.9656 135.324 56.0127 135.502 56.0127 135.745V137.319H51.5766C51.3489 137.319 51.184 137.275 51.0898 137.178C50.9956 137.082 50.9485 136.964 50.9485 136.809C50.9485 136.654 50.9956 136.536 51.0977 136.44C51.1997 136.344 51.3568 136.299 51.5845 136.299H51.7336V132.311H51.5845C51.3568 132.311 51.1919 132.266 51.0977 132.17C51.0034 132.074 50.9563 131.956 50.9563 131.801C50.9563 131.646 51.0034 131.528 51.0977 131.432C51.1919 131.336 51.3568 131.291 51.5845 131.291H55.8164V132.85C55.8164 133.094 55.7772 133.264 55.6908 133.367C55.6044 133.47 55.4945 133.522 55.3532 133.522C55.2119 133.522 55.0941 133.47 55.0077 133.367C54.9214 133.264 54.8743 133.086 54.8743 132.842V132.311H52.6758V133.781H53.5002C53.5002 133.515 53.5238 133.345 53.5709 133.271C53.6651 133.108 53.7986 133.027 53.9792 133.027C54.1205 133.027 54.2304 133.079 54.3168 133.182C54.4032 133.286 54.4503 133.463 54.4503 133.707V134.881C54.4503 135.103 54.4267 135.251 54.3796 135.332C54.2854 135.487 54.1519 135.568 53.987 135.568C53.8143 135.568 53.6808 135.487 53.5787 135.324C53.5316 135.251 53.5081 135.073 53.5081 134.807H52.6837L52.6601 134.8Z" fill="white"/>
<path d="M61.6737 137.06C61.5874 137.164 61.5246 137.238 61.4774 137.267C61.4303 137.297 61.3675 137.311 61.289 137.311C61.1477 137.311 61.0299 137.26 60.9435 137.156C60.8572 137.053 60.8101 136.876 60.8101 136.639V135.952C60.8101 135.709 60.8572 135.531 60.9435 135.428C61.0299 135.324 61.1477 135.273 61.289 135.273C61.3989 135.273 61.4931 135.302 61.5638 135.369C61.6423 135.435 61.6973 135.539 61.7365 135.686C61.7758 135.834 61.8151 135.93 61.8622 135.989C61.9485 136.093 62.1056 136.196 62.3333 136.299C62.561 136.403 62.8122 136.462 63.0792 136.462C63.5031 136.462 63.8408 136.359 64.1156 136.144C64.2883 136.019 64.3747 135.856 64.3747 135.664C64.3747 135.539 64.3354 135.42 64.249 135.31C64.1627 135.199 64.0292 135.103 63.8408 135.036C63.7151 134.985 63.4403 134.918 63.0163 134.83C62.4981 134.726 62.1134 134.601 61.8465 134.46C61.5795 134.312 61.3754 134.106 61.2183 133.84C61.0613 133.574 60.9906 133.286 60.9906 132.975C60.9906 132.488 61.1791 132.059 61.556 131.69C61.9328 131.321 62.4275 131.136 63.032 131.136C63.2754 131.136 63.4953 131.166 63.7073 131.225C63.9114 131.284 64.0999 131.373 64.2726 131.491C64.3982 131.365 64.516 131.299 64.6416 131.299C64.7829 131.299 64.8929 131.35 64.9792 131.454C65.0656 131.557 65.1127 131.734 65.1127 131.978V132.746C65.1127 132.99 65.0656 133.167 64.9792 133.271C64.8929 133.374 64.7829 133.426 64.6416 133.426C64.5238 133.426 64.4218 133.389 64.3354 133.315C64.2647 133.256 64.2176 133.145 64.1862 132.975C64.1548 132.806 64.1077 132.687 64.0606 132.613C63.9742 132.488 63.8408 132.385 63.6602 132.296C63.4796 132.207 63.2754 132.17 63.0399 132.17C62.7023 132.17 62.4275 132.259 62.2312 132.429C62.0349 132.599 61.9328 132.776 61.9328 132.961C61.9328 133.086 61.9721 133.212 62.0585 133.33C62.1448 133.448 62.2547 133.537 62.4118 133.603C62.5138 133.648 62.8122 133.722 63.2911 133.825C63.7779 133.928 64.147 134.039 64.4061 134.165C64.6652 134.29 64.8772 134.482 65.0499 134.741C65.2226 135.007 65.309 135.317 65.309 135.679C65.309 136.181 65.1441 136.588 64.8143 136.89C64.3825 137.289 63.8251 137.489 63.1498 137.489C62.8907 137.489 62.6316 137.452 62.3882 137.385C62.1448 137.319 61.9014 137.215 61.6659 137.075L61.6737 137.06Z" fill="white"/>
<path d="M71.0956 137.06C71.0092 137.164 70.9464 137.238 70.8993 137.267C70.8522 137.297 70.7894 137.311 70.7109 137.311C70.5696 137.311 70.4518 137.26 70.3654 137.156C70.279 137.053 70.2319 136.876 70.2319 136.639V135.952C70.2319 135.709 70.279 135.531 70.3654 135.428C70.4518 135.324 70.5696 135.273 70.7109 135.273C70.8208 135.273 70.915 135.302 70.9857 135.369C71.0642 135.435 71.1192 135.539 71.1584 135.686C71.1977 135.834 71.2369 135.93 71.284 135.989C71.3704 136.093 71.5274 136.196 71.7551 136.299C71.9828 136.403 72.2341 136.462 72.501 136.462C72.925 136.462 73.2626 136.359 73.5374 136.144C73.7102 136.019 73.7965 135.856 73.7965 135.664C73.7965 135.539 73.7573 135.42 73.6709 135.31C73.5845 135.199 73.4511 135.103 73.2626 135.036C73.137 134.985 72.8622 134.918 72.4382 134.83C71.92 134.726 71.5353 134.601 71.2683 134.46C71.0014 134.312 70.7972 134.106 70.6402 133.84C70.4832 133.574 70.4125 133.286 70.4125 132.975C70.4125 132.488 70.601 132.059 70.9778 131.69C71.3547 131.321 71.8494 131.136 72.4539 131.136C72.6973 131.136 72.9172 131.166 73.1292 131.225C73.3333 131.284 73.5217 131.373 73.6945 131.491C73.8201 131.365 73.9379 131.299 74.0635 131.299C74.2048 131.299 74.3147 131.35 74.4011 131.454C74.4875 131.557 74.5346 131.734 74.5346 131.978V132.746C74.5346 132.99 74.4875 133.167 74.4011 133.271C74.3147 133.374 74.2048 133.426 74.0635 133.426C73.9457 133.426 73.8436 133.389 73.7573 133.315C73.6866 133.256 73.6395 133.145 73.6081 132.975C73.5767 132.806 73.5296 132.687 73.4825 132.613C73.3961 132.488 73.2626 132.385 73.082 132.296C72.9015 132.207 72.6973 132.17 72.4618 132.17C72.1242 132.17 71.8494 132.259 71.6531 132.429C71.4568 132.599 71.3547 132.776 71.3547 132.961C71.3547 133.086 71.394 133.212 71.4803 133.33C71.5667 133.448 71.6766 133.537 71.8336 133.603C71.9357 133.648 72.2341 133.722 72.713 133.825C73.1998 133.928 73.5688 134.039 73.8279 134.165C74.087 134.29 74.299 134.482 74.4718 134.741C74.6445 135.007 74.7309 135.317 74.7309 135.679C74.7309 136.181 74.566 136.588 74.2362 136.89C73.8044 137.289 73.2469 137.489 72.5717 137.489C72.3126 137.489 72.0535 137.452 71.8101 137.385C71.5667 137.319 71.3233 137.215 71.0878 137.075L71.0956 137.06Z" fill="white"/>
<path d="M92.4988 131.542C92.5538 131.454 92.6245 131.395 92.6873 131.35C92.7501 131.306 92.8286 131.284 92.9071 131.284C93.0484 131.284 93.1584 131.336 93.2447 131.439C93.3311 131.542 93.3782 131.72 93.3782 131.963V132.828C93.3782 133.071 93.3311 133.249 93.2447 133.352C93.1584 133.456 93.0484 133.507 92.9071 133.507C92.7815 133.507 92.6794 133.47 92.6009 133.389C92.5224 133.308 92.4674 133.168 92.4282 132.961C92.4046 132.82 92.3653 132.717 92.3025 132.636C92.1769 132.488 92.0042 132.37 91.7765 132.274C91.5488 132.178 91.3211 132.141 91.1013 132.141C90.8186 132.141 90.5595 132.207 90.324 132.34C90.0884 132.473 89.8764 132.687 89.6958 132.99C89.5152 133.293 89.421 133.64 89.421 134.054V134.719C89.421 135.214 89.5859 135.62 89.9157 135.945C90.2454 136.277 90.7008 136.44 91.2897 136.44C91.643 136.44 91.9335 136.388 92.1769 136.285C92.3182 136.226 92.4674 136.107 92.6245 135.93C92.7187 135.827 92.7972 135.753 92.8521 135.723C92.9071 135.694 92.9699 135.679 93.0406 135.679C93.1662 135.679 93.2761 135.731 93.3703 135.834C93.4646 135.938 93.5117 136.056 93.5117 136.196C93.5117 136.336 93.4489 136.484 93.3154 136.647C93.1269 136.876 92.8914 137.06 92.593 137.193C92.2005 137.371 91.7608 137.459 91.2818 137.459C90.7244 137.459 90.2219 137.334 89.7743 137.09C89.4132 136.89 89.107 136.573 88.8479 136.144C88.5888 135.716 88.4631 135.243 88.4631 134.741V134.047C88.4631 133.515 88.5809 133.02 88.8086 132.562C89.0363 132.104 89.3504 131.749 89.7586 131.498C90.1669 131.247 90.5909 131.121 91.0463 131.121C91.3211 131.121 91.5723 131.158 91.8157 131.225C92.0591 131.291 92.2711 131.395 92.4831 131.535L92.4988 131.542Z" fill="white"/>
<path d="M99.7693 132.303V136.292H101.803V135.324C101.803 135.081 101.85 134.903 101.936 134.8C102.023 134.697 102.14 134.645 102.282 134.645C102.423 134.645 102.533 134.697 102.619 134.8C102.706 134.903 102.753 135.081 102.753 135.324V137.311H98.2854C98.0577 137.311 97.8928 137.267 97.7986 137.171C97.7043 137.075 97.6572 136.957 97.6572 136.802C97.6572 136.647 97.7043 136.528 97.7986 136.432C97.8928 136.336 98.0577 136.292 98.2854 136.292H98.835V132.303H98.2854C98.0577 132.303 97.8928 132.259 97.7986 132.163C97.7043 132.067 97.6572 131.949 97.6572 131.794C97.6572 131.638 97.7043 131.52 97.7986 131.424C97.8928 131.328 98.0577 131.284 98.2854 131.284H100.327C100.554 131.284 100.719 131.336 100.814 131.432C100.908 131.528 100.955 131.646 100.955 131.801C100.955 131.956 100.908 132.074 100.814 132.17C100.719 132.266 100.554 132.311 100.327 132.311H99.7771L99.7693 132.303Z" fill="white"/>
<path d="M111.453 132.303V135.199C111.453 135.827 111.241 136.366 110.824 136.809C110.408 137.252 109.906 137.474 109.317 137.474C109.026 137.474 108.752 137.415 108.492 137.304C108.233 137.193 108.006 137.031 107.802 136.817C107.597 136.602 107.44 136.373 107.323 136.144C107.213 135.908 107.15 135.598 107.15 135.206V132.311C106.954 132.311 106.804 132.259 106.71 132.163C106.616 132.067 106.569 131.941 106.569 131.794C106.569 131.646 106.616 131.52 106.71 131.424C106.804 131.336 106.969 131.284 107.197 131.284H108.438C108.665 131.284 108.83 131.328 108.924 131.424C109.019 131.52 109.066 131.638 109.066 131.794C109.066 131.949 109.019 132.067 108.924 132.163C108.83 132.259 108.665 132.303 108.438 132.303H108.1V135.287C108.1 135.59 108.218 135.864 108.453 136.093C108.689 136.322 108.971 136.447 109.301 136.447C109.521 136.447 109.725 136.388 109.921 136.277C110.118 136.167 110.275 135.997 110.393 135.782C110.471 135.649 110.51 135.48 110.51 135.287V132.303H110.173C109.945 132.303 109.78 132.259 109.686 132.163C109.592 132.067 109.545 131.949 109.545 131.794C109.545 131.638 109.592 131.52 109.686 131.424C109.78 131.328 109.945 131.284 110.173 131.284H111.413C111.641 131.284 111.806 131.336 111.9 131.432C111.994 131.528 112.041 131.646 112.041 131.801C112.041 131.956 111.994 132.074 111.9 132.17C111.806 132.266 111.657 132.318 111.46 132.318L111.453 132.303Z" fill="white"/>
<path d="M116.517 136.299V132.311H116.367C116.14 132.311 115.975 132.266 115.881 132.17C115.786 132.074 115.739 131.956 115.739 131.801C115.739 131.646 115.786 131.528 115.881 131.432C115.975 131.336 116.14 131.291 116.367 131.291H118.731C119.296 131.291 119.751 131.461 120.089 131.801C120.435 132.141 120.607 132.547 120.607 133.012C120.607 133.234 120.568 133.441 120.489 133.64C120.411 133.84 120.285 134.017 120.128 134.179C120.427 134.372 120.647 134.601 120.796 134.852C120.945 135.11 121.016 135.398 121.016 135.723C121.016 135.982 120.961 136.226 120.851 136.447C120.772 136.617 120.67 136.75 120.552 136.853C120.395 136.994 120.207 137.105 119.979 137.193C119.751 137.282 119.469 137.326 119.131 137.326H116.36C116.132 137.326 115.967 137.282 115.873 137.186C115.779 137.09 115.731 136.972 115.731 136.817C115.731 136.661 115.779 136.543 115.881 136.447C115.983 136.351 116.14 136.307 116.367 136.307H116.517V136.299ZM117.459 133.788H118.495C118.864 133.788 119.178 133.685 119.422 133.485C119.587 133.352 119.673 133.182 119.673 132.975C119.673 132.798 119.594 132.636 119.437 132.503C119.28 132.37 119.029 132.303 118.691 132.303H117.467V133.788H117.459ZM117.459 136.299H119.084C119.469 136.299 119.736 136.24 119.893 136.115C120.011 136.019 120.073 135.886 120.073 135.716C120.073 135.509 119.956 135.31 119.72 135.11C119.484 134.911 119.147 134.815 118.707 134.815H117.459V136.307V136.299Z" fill="white"/>
<path d="M86.5945 144.772V147.195H86.8536C87.0264 147.195 87.1441 147.232 87.2148 147.306C87.2855 147.38 87.3247 147.483 87.3247 147.601C87.3247 147.719 87.2855 147.815 87.2148 147.889C87.1441 147.963 87.0185 148 86.8536 148H85.9272C85.7544 148 85.6366 147.963 85.566 147.889C85.4953 147.815 85.4561 147.712 85.4561 147.594C85.4561 147.476 85.4953 147.38 85.566 147.306C85.6366 147.232 85.7466 147.195 85.8957 147.195V144.019C85.7701 144.004 85.6759 143.959 85.6131 143.886C85.5503 143.812 85.5189 143.723 85.5189 143.605C85.5189 143.487 85.5581 143.383 85.6288 143.309C85.6995 143.236 85.8251 143.199 85.99 143.199H86.7673L87.733 145.644L88.6752 143.199H89.4603C89.6331 143.199 89.7508 143.236 89.8215 143.317C89.8922 143.391 89.9314 143.487 89.9314 143.612C89.9314 143.723 89.9 143.819 89.8372 143.893C89.7744 143.967 89.6802 144.011 89.5546 144.026V147.202C89.7037 147.202 89.8137 147.239 89.8843 147.32C89.955 147.402 89.9942 147.498 89.9942 147.616C89.9942 147.734 89.955 147.83 89.8843 147.904C89.8137 147.978 89.688 148.015 89.5231 148.015H88.5888C88.4239 148.015 88.2983 147.978 88.2277 147.904C88.157 147.83 88.1177 147.727 88.1177 147.609C88.1177 147.49 88.157 147.394 88.2277 147.32C88.2983 147.247 88.4239 147.21 88.5888 147.21H88.8479V144.787L88.0392 146.877H87.4268L86.6024 144.787L86.5945 144.772Z" fill="#231F20"/>
<path d="M92.8052 146.693H91.0857L90.9129 147.187H91.0857C91.2584 147.187 91.3762 147.224 91.4469 147.298C91.5175 147.372 91.5568 147.476 91.5568 147.594C91.5568 147.712 91.5175 147.808 91.4469 147.882C91.3762 147.956 91.2506 147.993 91.0857 147.993H90.1356C89.9629 147.993 89.8451 147.956 89.7745 147.882C89.7038 147.808 89.6646 147.705 89.6646 147.586C89.6646 147.468 89.7038 147.365 89.7745 147.291C89.8451 147.217 89.9786 147.18 90.1513 147.187L91.2663 144.011H90.803C90.6303 144.011 90.5125 143.974 90.4419 143.9C90.3712 143.827 90.3319 143.723 90.3319 143.605C90.3319 143.487 90.3712 143.383 90.4419 143.309C90.5125 143.236 90.6381 143.199 90.803 143.199H92.3341L93.7395 147.187C93.9044 147.187 94.0143 147.21 94.0693 147.247C94.1713 147.335 94.2263 147.446 94.2263 147.594C94.2263 147.712 94.187 147.808 94.1164 147.882C94.0457 147.956 93.9279 147.993 93.7552 147.993H92.8052C92.6324 147.993 92.5147 147.956 92.444 147.882C92.3733 147.808 92.3341 147.705 92.3341 147.586C92.3341 147.468 92.3733 147.372 92.444 147.298C92.5147 147.224 92.6403 147.187 92.8052 147.187H92.9779L92.8052 146.693ZM92.5147 145.88L91.9415 144.27L91.3683 145.88H92.5147Z" fill="#231F20"/>
<path d="M96.1813 146.818L97.2098 144.019H97.045C96.8722 144.019 96.7544 143.982 96.6838 143.908C96.6131 143.834 96.5739 143.73 96.5739 143.612C96.5739 143.494 96.6131 143.391 96.6838 143.317C96.7544 143.243 96.8801 143.206 97.045 143.206H97.995C98.1677 143.206 98.2855 143.243 98.3562 143.324C98.4268 143.398 98.4661 143.494 98.4661 143.62C98.4661 143.767 98.4111 143.878 98.3012 143.967C98.2462 144.011 98.1363 144.033 97.9793 144.033L96.5268 148.022H95.8437L94.3911 144.033C94.2263 144.033 94.1163 144.011 94.0614 143.967C93.9515 143.886 93.8965 143.767 93.8965 143.62C93.8965 143.501 93.9357 143.398 94.0064 143.324C94.0771 143.25 94.2027 143.213 94.3676 143.213H95.3255C95.4904 143.213 95.616 143.25 95.6866 143.332C95.7573 143.405 95.7966 143.501 95.7966 143.627C95.7966 143.753 95.7573 143.849 95.6866 143.923C95.616 143.996 95.4982 144.033 95.3255 144.033H95.1606L96.1813 146.833V146.818Z" fill="#231F20"/>
<path d="M100.774 144.011V147.187H101.489C101.662 147.187 101.779 147.224 101.85 147.298C101.921 147.372 101.96 147.476 101.96 147.594C101.96 147.712 101.921 147.808 101.85 147.882C101.779 147.956 101.654 147.993 101.489 147.993H99.3532C99.1804 147.993 99.0627 147.956 98.992 147.882C98.9213 147.808 98.8821 147.705 98.8821 147.586C98.8821 147.468 98.9213 147.372 98.992 147.298C99.0627 147.224 99.1883 147.187 99.3532 147.187H100.068V144.011H99.3532C99.1804 144.011 99.0627 143.974 98.992 143.9C98.9213 143.827 98.8821 143.723 98.8821 143.605C98.8821 143.487 98.9213 143.383 98.992 143.309C99.0627 143.236 99.1883 143.199 99.3532 143.199H101.489C101.662 143.199 101.779 143.236 101.85 143.317C101.921 143.391 101.96 143.487 101.96 143.612C101.96 143.738 101.921 143.834 101.85 143.908C101.779 143.982 101.654 144.019 101.489 144.019H100.774V144.011Z" fill="#231F20"/>
<path d="M105.006 144.011V147.187H105.485C105.658 147.187 105.776 147.224 105.847 147.298C105.917 147.372 105.956 147.476 105.956 147.594C105.956 147.712 105.917 147.808 105.847 147.882C105.776 147.956 105.65 147.993 105.485 147.993H103.829C103.656 147.993 103.538 147.956 103.468 147.882C103.397 147.808 103.358 147.705 103.358 147.586C103.358 147.468 103.397 147.372 103.468 147.298C103.538 147.224 103.664 147.187 103.829 147.187H104.3V144.011H103.53V144.779C103.53 144.971 103.499 145.112 103.428 145.2C103.365 145.282 103.279 145.326 103.169 145.326C103.059 145.326 102.981 145.282 102.918 145.2C102.855 145.119 102.824 144.979 102.824 144.779V143.199H106.49V144.779C106.49 144.971 106.459 145.112 106.396 145.2C106.333 145.282 106.247 145.326 106.137 145.326C106.027 145.326 105.949 145.282 105.886 145.2C105.823 145.119 105.792 144.979 105.792 144.779V144.011H105.014H105.006Z" fill="#231F20"/>
<path d="M109.678 146.013H108.163V147.187H108.273C108.445 147.187 108.563 147.224 108.634 147.298C108.704 147.372 108.744 147.476 108.744 147.594C108.744 147.712 108.704 147.808 108.634 147.882C108.563 147.956 108.437 147.993 108.273 147.993H107.409C107.236 147.993 107.118 147.956 107.048 147.882C106.977 147.808 106.938 147.705 106.938 147.586C106.938 147.439 106.993 147.32 107.11 147.239C107.165 147.195 107.283 147.18 107.464 147.18V144.004C107.338 143.989 107.244 143.945 107.181 143.871C107.118 143.797 107.087 143.708 107.087 143.59C107.087 143.472 107.126 143.369 107.197 143.295C107.268 143.221 107.393 143.184 107.558 143.184H108.28C108.453 143.184 108.571 143.221 108.642 143.302C108.712 143.376 108.751 143.472 108.751 143.598C108.751 143.723 108.712 143.819 108.642 143.893C108.571 143.967 108.445 144.004 108.28 144.004H108.17V145.193H109.686V144.004H109.576C109.403 144.004 109.285 143.967 109.215 143.893C109.144 143.819 109.105 143.716 109.105 143.598C109.105 143.479 109.144 143.376 109.215 143.302C109.285 143.228 109.411 143.191 109.576 143.191H110.298C110.471 143.191 110.589 143.228 110.659 143.309C110.73 143.383 110.769 143.479 110.769 143.605C110.769 143.716 110.738 143.812 110.675 143.886C110.612 143.959 110.518 144.004 110.392 144.019V147.195C110.573 147.195 110.691 147.217 110.746 147.254C110.856 147.335 110.918 147.453 110.918 147.601C110.918 147.719 110.879 147.815 110.809 147.889C110.738 147.963 110.612 148 110.447 148H109.584C109.411 148 109.293 147.963 109.223 147.889C109.152 147.815 109.113 147.712 109.113 147.594C109.113 147.476 109.152 147.38 109.223 147.306C109.293 147.232 109.419 147.195 109.584 147.195H109.694V146.02L109.678 146.013Z" fill="#231F20"/>
<path d="M113.486 144.011V147.187H113.965C114.138 147.187 114.256 147.224 114.326 147.298C114.397 147.372 114.436 147.476 114.436 147.594C114.436 147.712 114.397 147.808 114.326 147.882C114.256 147.956 114.13 147.993 113.965 147.993H112.308C112.136 147.993 112.018 147.956 111.947 147.882C111.877 147.808 111.837 147.705 111.837 147.586C111.837 147.468 111.877 147.372 111.947 147.298C112.018 147.224 112.144 147.187 112.308 147.187H112.78V144.011H112.018V144.779C112.018 144.971 111.987 145.112 111.916 145.2C111.853 145.282 111.767 145.326 111.657 145.326C111.547 145.326 111.468 145.282 111.405 145.2C111.343 145.119 111.311 144.979 111.311 144.779V143.199H114.978V144.779C114.978 144.971 114.947 145.112 114.884 145.2C114.821 145.282 114.735 145.326 114.625 145.326C114.515 145.326 114.436 145.282 114.373 145.2C114.311 145.119 114.279 144.979 114.279 144.779V144.011H113.502H113.486Z" fill="#231F20"/>
<path d="M118.158 146.013H116.642V147.187H116.752C116.925 147.187 117.043 147.224 117.113 147.298C117.184 147.372 117.223 147.476 117.223 147.594C117.223 147.712 117.184 147.808 117.113 147.882C117.043 147.956 116.917 147.993 116.752 147.993H115.889C115.716 147.993 115.598 147.956 115.527 147.882C115.457 147.808 115.417 147.705 115.417 147.586C115.417 147.439 115.472 147.32 115.59 147.239C115.645 147.195 115.763 147.18 115.944 147.18V144.004C115.818 143.989 115.724 143.945 115.661 143.871C115.598 143.797 115.567 143.708 115.567 143.59C115.567 143.472 115.606 143.369 115.677 143.295C115.747 143.221 115.873 143.184 116.038 143.184H116.76C116.933 143.184 117.051 143.221 117.121 143.302C117.192 143.376 117.231 143.472 117.231 143.598C117.231 143.723 117.192 143.819 117.121 143.893C117.051 143.967 116.925 144.004 116.76 144.004H116.65V145.193H118.166V144.004H118.056C117.883 144.004 117.765 143.967 117.694 143.893C117.624 143.819 117.584 143.716 117.584 143.598C117.584 143.479 117.624 143.376 117.694 143.302C117.765 143.228 117.891 143.191 118.056 143.191H118.778C118.951 143.191 119.068 143.228 119.139 143.309C119.21 143.383 119.249 143.479 119.249 143.605C119.249 143.716 119.218 143.812 119.155 143.886C119.092 143.959 118.998 144.004 118.872 144.019V147.195C119.053 147.195 119.171 147.217 119.225 147.254C119.335 147.335 119.398 147.453 119.398 147.601C119.398 147.719 119.359 147.815 119.288 147.889C119.218 147.963 119.092 148 118.927 148H118.063C117.891 148 117.773 147.963 117.702 147.889C117.632 147.815 117.592 147.712 117.592 147.594C117.592 147.476 117.632 147.38 117.702 147.306C117.773 147.232 117.899 147.195 118.063 147.195H118.173V146.02L118.158 146.013Z" fill="#231F20"/>
<path d="M122.484 146.693H120.764L120.592 147.187H120.764C120.937 147.187 121.055 147.224 121.126 147.298C121.196 147.372 121.235 147.476 121.235 147.594C121.235 147.712 121.196 147.808 121.126 147.882C121.055 147.956 120.929 147.993 120.764 147.993H119.814C119.642 147.993 119.524 147.956 119.453 147.882C119.383 147.808 119.343 147.705 119.343 147.586C119.343 147.468 119.383 147.365 119.461 147.291C119.54 147.217 119.665 147.18 119.838 147.187L120.953 144.011H120.49C120.317 144.011 120.199 143.974 120.128 143.9C120.058 143.827 120.018 143.723 120.018 143.605C120.018 143.487 120.058 143.383 120.128 143.309C120.199 143.236 120.325 143.199 120.49 143.199H122.021L123.426 147.187C123.591 147.187 123.701 147.21 123.756 147.247C123.858 147.335 123.913 147.446 123.913 147.594C123.913 147.712 123.874 147.808 123.803 147.882C123.732 147.956 123.614 147.993 123.442 147.993H122.492C122.319 147.993 122.201 147.956 122.131 147.882C122.06 147.808 122.021 147.705 122.021 147.586C122.021 147.468 122.06 147.372 122.131 147.298C122.201 147.224 122.327 147.187 122.492 147.187H122.664L122.492 146.693H122.484ZM122.193 145.88L121.628 144.27L121.055 145.88H122.201H122.193Z" fill="#231F20"/>
<path d="M125.138 146.168V147.187H125.389C125.562 147.187 125.68 147.224 125.75 147.298C125.821 147.372 125.86 147.476 125.86 147.594C125.86 147.712 125.821 147.808 125.75 147.882C125.68 147.956 125.554 147.993 125.389 147.993H124.313C124.141 147.993 124.023 147.956 123.952 147.882C123.882 147.808 123.842 147.705 123.842 147.586C123.842 147.468 123.882 147.372 123.952 147.298C124.023 147.224 124.148 147.187 124.313 147.187H124.423V144.011H124.313C124.141 144.011 124.023 143.974 123.952 143.9C123.882 143.827 123.842 143.723 123.842 143.605C123.842 143.487 123.882 143.383 123.952 143.309C124.023 143.236 124.148 143.199 124.313 143.199H125.915C126.418 143.199 126.802 143.346 127.077 143.627C127.352 143.908 127.493 144.255 127.493 144.661C127.493 144.912 127.43 145.149 127.297 145.356C127.163 145.562 126.975 145.747 126.716 145.91C126.865 146.057 127.022 146.249 127.195 146.486C127.297 146.633 127.446 146.87 127.619 147.195C127.799 147.195 127.917 147.217 127.972 147.254C128.074 147.335 128.129 147.453 128.129 147.601C128.129 147.719 128.09 147.815 128.019 147.889C127.949 147.963 127.831 148 127.658 148H127.258C126.685 146.981 126.213 146.375 125.829 146.168H125.13H125.138ZM125.138 145.356H125.687C125.892 145.356 126.072 145.319 126.237 145.245C126.457 145.149 126.598 145.053 126.677 144.942C126.755 144.839 126.787 144.735 126.787 144.632C126.787 144.477 126.716 144.336 126.575 144.203C126.433 144.07 126.221 144.011 125.947 144.011H125.138V145.356Z" fill="#231F20"/>
<path d="M130.971 146.693H129.252L129.079 147.187H129.252C129.425 147.187 129.542 147.224 129.613 147.298C129.684 147.372 129.723 147.476 129.723 147.594C129.723 147.712 129.684 147.808 129.613 147.882C129.542 147.956 129.417 147.993 129.252 147.993H128.302C128.129 147.993 128.011 147.956 127.941 147.882C127.87 147.808 127.831 147.705 127.831 147.586C127.831 147.468 127.87 147.365 127.949 147.291C128.027 147.217 128.153 147.18 128.325 147.187L129.44 144.011H128.977C128.804 144.011 128.687 143.974 128.616 143.9C128.545 143.827 128.506 143.723 128.506 143.605C128.506 143.487 128.545 143.383 128.616 143.309C128.687 143.236 128.812 143.199 128.977 143.199H130.508L131.914 147.187C132.078 147.187 132.188 147.21 132.243 147.247C132.345 147.335 132.4 147.446 132.4 147.594C132.4 147.712 132.361 147.808 132.29 147.882C132.22 147.956 132.102 147.993 131.929 147.993H130.979C130.807 147.993 130.689 147.956 130.618 147.882C130.547 147.808 130.508 147.705 130.508 147.586C130.508 147.468 130.547 147.372 130.618 147.298C130.689 147.224 130.814 147.187 130.979 147.187H131.152L130.979 146.693H130.971ZM130.681 145.88L130.116 144.27L129.542 145.88H130.689H130.681Z" fill="#231F20"/>
<path d="M32.4896 88.3893H31.0606V86.2472H25.9571V91.3883H29.9614V90.332H31.1784V93.9146H29.9614V92.8583H25.9571V98.1324H27.5275V100.068H22.8401V98.1324H24.2691V86.2545H22.8401V84.2971H32.4975V88.3967L32.4896 88.3893Z" fill="white"/>
<path d="M40.3176 86.2324H38.8887V98.1324H40.3176V100.068H35.748V98.1324H37.177V86.2324H35.748V84.2971H40.3176V86.2324Z" fill="white"/>
<path d="M52.8644 89.3126H51.1763V87.3773L50.1948 86.225H46.8422L45.586 87.6654V96.6107L46.8972 98.1176H49.7238L51.1763 96.4482V93.0651H48.6245V91.6912H52.8644V100.053H51.2391V98.2727L49.6923 100.053H46.3162L43.9058 97.2829V86.9193L46.1984 84.2823H50.925L52.8644 86.5131V89.3052V89.3126Z" fill="white"/>
<path d="M66.8951 86.2324H65.4426V97.6522L63.3619 100.06H58.965L56.8687 97.6522V86.2324H55.4397V84.2971H59.813V86.2324H58.5803V96.7584L59.758 98.1324H62.6239L63.8016 96.7584V86.2324H62.5453V84.2971H66.9029V86.2324H66.8951Z" fill="white"/>
<path d="M79.379 86.5205V90.982L77.5182 93.1242H76.4975L78.6959 98.125H79.9522V100.06H75.7359V98.125H76.9136L74.7152 93.1242H72.713V98.125H73.9065V100.06H69.5881V98.125H71.0171V86.2472H69.5881V84.2897H77.4554L79.379 86.5205ZM72.7052 86.2472V91.6321H76.7095L77.6909 90.5093V87.3773L76.7095 86.2472H72.7052Z" fill="white"/>
<path d="M92.2948 88.3671H90.8658V86.2472H85.7623V91.0485H89.2327V89.9922H90.4497V93.5748H89.2327V92.5185H85.7623V98.1324H90.8815V96.0124H92.3184V100.068H82.6453V98.1324H84.0742V86.2545H82.6453V84.2971H92.3026V88.3745L92.2948 88.3671Z" fill="white"/>
<path d="M32.5681 119.546H34.1149V121.482H29.561V119.546H30.778L30.0949 116.688H25.9571L25.2741 119.546H26.4518V121.482H22.2512V119.546H23.7587L26.5853 107.646H25.0385V105.711H29.4354L32.576 119.546H32.5681ZM26.1927 115.469H29.8044L27.9985 107.809L26.1927 115.469Z" fill="white"/>
<path d="M46.5047 107.942V112.403L44.6439 114.546H43.6232L45.8216 119.546H47.0779V121.482H42.8616V119.546H44.0394L41.8409 114.546H39.8388V119.546H41.0322V121.482H36.7139V119.546H38.1428V107.669H36.7139V105.711H44.5811L46.5047 107.942ZM39.8309 107.669V113.054H43.8352L44.8167 111.931V108.799L43.8352 107.669H39.8309Z" fill="white"/>
<path d="M59.2791 110.335H57.8265V107.565H55.1413V119.554H56.7666V121.489H51.8201V119.554H53.4454V107.565H50.7602V110.335H49.3076V105.719H59.2791V110.335Z" fill="white"/>
<path d="M66.9343 107.654H65.5054V119.554H66.9343V121.489H62.3647V119.554H63.7937V107.654H62.3647V105.719H66.9343V107.654Z" fill="white"/>
<path d="M79.0099 107.942V110.173H77.3218V108.799L76.3246 107.646H73.1291L72.1319 108.799V111.591L72.8778 112.403H77.5887L79.159 114.162V119.14L77.1177 121.482H72.4852L70.4438 119.14V116.259H72.1319V118.335L73.1919 119.554H76.411L77.4474 118.335V115.07L76.7408 114.235H72.0299L70.4438 112.433V107.949L72.3832 105.719H77.0941L79.0177 107.949L79.0099 107.942Z" fill="white"/>
<path d="M91.7844 110.335H90.3319V107.565H87.6467V119.554H89.2719V121.489H84.3255V119.554H85.9508V107.565H83.2655V110.335H81.813V105.719H91.7844V110.335Z" fill="white"/>
<path d="M159.991 118.483C160.297 118.372 163.712 115.956 163.712 115.956H166.979L169.051 118.246L167.403 123.365H161.184L159.496 121.6L159.999 118.49L159.991 118.483Z" fill="#231F20"/>
<path d="M169.781 123.07C169.899 122.959 171.854 119.657 171.854 119.657L174.084 122.856L169.781 123.07Z" fill="#231F20"/>
<path d="M168.706 125.242H174.547L176 128.351L174.084 131.35L171.085 133.264L168.282 133.042L166.248 130.693L168.706 125.242Z" fill="#231F20"/>
<path d="M158.271 113.164L162.331 111.798L154.958 121.593V116.695L158.02 114.472L158.271 113.164Z" fill="#231F20"/>
</g>
<defs>
<clipPath id="clip0_46_167">
<rect width="176" height="148" fill="white"/>
</clipPath>
</defs>
</svg>
