<svg width="96" height="81" viewBox="0 0 96 81" fill="none" xmlns="http://www.w3.org/2000/svg">
<g clip-path="url(#clip0_203_19)">
<path d="M77.0876 69.5995H4.25244V77.0786H77.0876V69.5995Z" fill="#D42129"/>
<mask id="path-2-inside-1_203_19" fill="white">
<path d="M8.05139 42.3436C8.10707 42.3436 8.15846 42.3396 8.20985 42.3234C8.45396 42.2668 9.14775 42.0606 9.21627 41.6038C9.27623 41.2197 9.31906 40.4031 9.34047 39.9422C9.34904 39.728 9.47752 39.5339 9.6788 39.4328C10.3084 39.1135 11.7388 38.41 12.818 38.0704C14.2441 37.6217 15.7216 36.7525 15.9186 36.4614C16.1156 36.1704 17.3148 34.432 17.5675 34.1692C17.8201 33.9064 19.0749 32.164 19.3833 31.9821C19.6916 31.8002 21.0021 30.9553 21.3662 30.6884C21.7302 30.4216 22.651 29.2896 23.015 29.0269C23.379 28.7641 24.9422 28 25.2505 27.9475C25.5589 27.8949 26.591 27.0257 26.6767 26.8398C26.7323 26.7144 27.743 25.8816 28.4026 25.344C28.6981 25.1014 29.152 25.162 29.3662 25.4774C29.9786 26.3748 31.1435 28.0768 31.7773 28.9986C32 29.3179 32.4668 29.3705 32.7623 29.1077C33.6317 28.3275 35.2463 26.8964 35.5289 26.7629C35.9186 26.577 36.9251 26.0514 37.0921 25.9706C37.2591 25.8897 40.5268 21.277 40.6124 21.1719C40.6981 21.0668 43.4047 24.3616 43.6574 24.5475C43.9101 24.7335 44.1585 25.4976 44.6638 25.6269C45.1692 25.7563 47.6231 27.05 48.0171 28.4488L48.2955 28.6469C48.2955 28.6469 48.8694 27.8545 49.1606 27.62C49.4518 27.3855 52.3169 25.1822 52.5953 24.9195C52.8737 24.6567 52.848 22.7849 54.4368 21.3861C56.0257 19.9873 57.6788 18.1681 57.8715 17.9862C58.0171 17.8487 58.3298 17.3757 58.4839 17.1453C58.5439 17.0523 58.5782 16.9472 58.5782 16.8381C58.5782 16.5874 58.5525 16.1063 58.3169 15.6657C57.9829 15.031 58.4283 13.5311 58.3726 13.1875C58.3169 12.8439 57.7859 12.0272 57.5632 11.158C57.3405 10.2889 56.9208 8.15429 57.2291 6.67466C57.5375 5.19502 58.8223 1.82339 60.8051 1.03102C60.8051 1.03102 62.1156 0.412481 62.9422 0.056721C63.0278 0.0203365 63.1135 0.00416565 63.2077 0.00416565H68C68.0814 0.00416565 68.1627 0.0203365 68.2398 0.0486356C68.8437 0.275028 71.6017 1.35848 72.1713 2.48235C72.8137 3.74773 73.2334 4.64521 73.2334 5.4861C73.2334 6.15315 73.3019 7.51959 73.3319 8.05727C73.3405 8.19472 73.3961 8.32813 73.4946 8.4292C73.6917 8.63538 74.0171 9.02348 74.0171 9.33477C74.0171 9.78351 74.1842 11.0206 73.9058 11.4451C73.7002 11.7564 73.5546 12.1 73.5246 12.6175C73.5075 12.9449 73.7687 13.2279 74.1156 13.2562C74.788 13.3128 75.94 13.519 76.9636 14.2386C77.0835 14.3235 77.2248 14.372 77.3747 14.368L82.3683 14.2426C82.3683 14.2426 85.7088 14.1901 87.863 20.234C87.9015 20.3471 87.9743 20.4442 88.0728 20.5169C88.8608 21.0991 92.5996 24.0705 93.5974 28.6388L94.6253 32.0751C94.6253 32.0751 94.6295 32.0953 94.6338 32.1074C94.7281 32.3742 96.1071 36.1663 95.9957 36.5221V39.9261C96 39.9584 95.9957 39.9907 95.9957 40.0231C95.9186 40.4597 95.3319 43.6898 94.5996 44.555C94.5653 44.5954 94.5353 44.6399 94.5096 44.6884L93.1692 47.5749C93.1563 47.6072 93.1392 47.6355 93.1178 47.6598C92.7966 48.1287 89.7901 52.4787 89.3019 52.9396C89.2677 52.9719 89.242 53.0083 89.2163 53.0487C88.8565 53.6309 86.5782 57.3623 86.5268 57.8515C86.5268 57.8515 85.94 60.0386 85.7173 60.3054C85.4946 60.5722 84.8779 60.5439 84.7966 60.7259C84.7152 60.9078 84.9379 61.2514 85.439 61.4657C85.94 61.6799 85.8287 61.9387 86.334 61.9387C86.4197 61.9387 86.5139 61.9225 86.6253 61.8942C87.2163 61.7406 87.6916 62.347 87.3362 62.82L85.6959 64.995C85.3319 65.4801 84.5225 65.2335 84.5225 64.6392V64.1743C84.5225 63.9641 84.4069 63.766 84.2141 63.6528C83.6403 63.3213 82.4497 62.6381 82.2612 62.6179C82.0214 62.5936 82.2655 62.9898 81.1049 63.0423C80.9979 63.0464 80.8865 63.0262 80.7923 62.9777C80.6124 62.8928 80.3212 62.7311 80.1542 62.5249C80.0171 62.3551 79.7901 62.2823 79.5632 62.3066C79.1777 62.351 78.6124 62.347 78.137 62.0559C77.5846 61.7163 76.8865 62.2176 77.1563 62.7836C77.1649 62.7957 77.1692 62.8119 77.1777 62.8281C77.7859 64.053 78.8951 65.5771 78.8951 66.4261C78.8951 67.2751 79.6488 69.2358 80.9465 69.4298C80.9465 69.4298 81.5717 69.9109 83.6445 69.8341C83.7816 69.8301 83.9229 69.8624 84.0385 69.9352C84.2484 70.0726 84.6081 70.3071 84.8737 70.5173C85.0921 70.6871 85.4004 70.7114 85.6403 70.5699L88.394 68.9286C88.5011 68.8639 88.621 68.8315 88.7452 68.8356L89.6488 68.8437C90.1413 68.8477 90.4454 69.3449 90.2098 69.7533C89.7901 70.4809 88.848 71.5806 86.7281 72.7974C86.5782 72.8823 86.4711 73.0198 86.4283 73.1775C86.2955 73.7232 86.0471 75.0371 86.5182 75.971C86.5182 75.971 87.045 77.0989 85.0964 77.6244C85.0278 77.6406 84.9636 77.6689 84.9079 77.7053C84.454 78.0004 82.2484 79.4073 80.8437 79.5286C80.8437 79.5286 79.3362 79.6256 78.3383 79.2415C78.1456 79.1688 77.9272 79.193 77.7516 79.2981C77.2677 79.6013 76.3298 80.1916 75.8972 80.4988C75.7173 80.6241 75.4861 80.6565 75.2762 80.5837C75.0321 80.4948 74.7495 80.3533 74.6852 80.139L73.636 78.7726C73.636 78.7726 73.4475 78.3198 73.8672 78.0206C74.1071 77.8508 74.6039 77.4385 74.9893 77.1151C75.2677 76.8806 75.2805 76.4723 75.0107 76.2257C73.5118 74.8471 69.0407 70.7518 67.9957 69.9675C67.8801 69.8826 67.743 69.8382 67.5974 69.8382H4.77088C4.40685 69.8382 4.11135 69.5552 4.1242 69.2115C4.13704 68.8962 4.11563 68.5607 3.97859 68.4758C3.70021 68.306 2.78373 68.3585 2.78373 67.9017V67.6874C2.78373 67.4085 2.58244 67.1578 2.29122 67.0972C1.64454 66.9597 0.569593 66.4746 0.351178 64.7767C0.0728051 62.5774 0.00856531 60.6086 0 60.2407C0 60.1801 0.00428266 60.1235 0.0214133 60.0669C0.115632 59.7597 0.595289 58.8986 2.97216 58.3204C2.97216 58.3204 4.59529 58.6358 3.15203 54.7992C3.14347 54.775 3.1349 54.7467 3.13062 54.7224C3.08351 54.5041 2.90792 53.4571 3.67452 53.259C3.94433 53.1902 4.11135 52.9315 4.10707 52.6687L4.08137 51.2457C4.08137 51.0961 4.12848 50.9506 4.23126 50.8374C4.47109 50.5746 4.85225 49.9803 4.27409 49.2769C4.18844 49.1758 4.13704 49.0545 4.13704 48.9211L4.16274 45.9578C4.16274 45.7597 4.26981 45.5737 4.44111 45.4605C4.92934 45.1371 5.91435 44.5024 6.03854 44.4822C6.14561 44.466 6.10707 43.6171 6.06424 42.9945C6.03854 42.6428 6.33833 42.3436 6.71092 42.3436H8.05996H8.05139Z"/>
</mask>
<path d="M8.05139 42.3436C8.10707 42.3436 8.15846 42.3396 8.20985 42.3234C8.45396 42.2668 9.14775 42.0606 9.21627 41.6038C9.27623 41.2197 9.31906 40.4031 9.34047 39.9422C9.34904 39.728 9.47752 39.5339 9.6788 39.4328C10.3084 39.1135 11.7388 38.41 12.818 38.0704C14.2441 37.6217 15.7216 36.7525 15.9186 36.4614C16.1156 36.1704 17.3148 34.432 17.5675 34.1692C17.8201 33.9064 19.0749 32.164 19.3833 31.9821C19.6916 31.8002 21.0021 30.9553 21.3662 30.6884C21.7302 30.4216 22.651 29.2896 23.015 29.0269C23.379 28.7641 24.9422 28 25.2505 27.9475C25.5589 27.8949 26.591 27.0257 26.6767 26.8398C26.7323 26.7144 27.743 25.8816 28.4026 25.344C28.6981 25.1014 29.152 25.162 29.3662 25.4774C29.9786 26.3748 31.1435 28.0768 31.7773 28.9986C32 29.3179 32.4668 29.3705 32.7623 29.1077C33.6317 28.3275 35.2463 26.8964 35.5289 26.7629C35.9186 26.577 36.9251 26.0514 37.0921 25.9706C37.2591 25.8897 40.5268 21.277 40.6124 21.1719C40.6981 21.0668 43.4047 24.3616 43.6574 24.5475C43.9101 24.7335 44.1585 25.4976 44.6638 25.6269C45.1692 25.7563 47.6231 27.05 48.0171 28.4488L48.2955 28.6469C48.2955 28.6469 48.8694 27.8545 49.1606 27.62C49.4518 27.3855 52.3169 25.1822 52.5953 24.9195C52.8737 24.6567 52.848 22.7849 54.4368 21.3861C56.0257 19.9873 57.6788 18.1681 57.8715 17.9862C58.0171 17.8487 58.3298 17.3757 58.4839 17.1453C58.5439 17.0523 58.5782 16.9472 58.5782 16.8381C58.5782 16.5874 58.5525 16.1063 58.3169 15.6657C57.9829 15.031 58.4283 13.5311 58.3726 13.1875C58.3169 12.8439 57.7859 12.0272 57.5632 11.158C57.3405 10.2889 56.9208 8.15429 57.2291 6.67466C57.5375 5.19502 58.8223 1.82339 60.8051 1.03102C60.8051 1.03102 62.1156 0.412481 62.9422 0.056721C63.0278 0.0203365 63.1135 0.00416565 63.2077 0.00416565H68C68.0814 0.00416565 68.1627 0.0203365 68.2398 0.0486356C68.8437 0.275028 71.6017 1.35848 72.1713 2.48235C72.8137 3.74773 73.2334 4.64521 73.2334 5.4861C73.2334 6.15315 73.3019 7.51959 73.3319 8.05727C73.3405 8.19472 73.3961 8.32813 73.4946 8.4292C73.6917 8.63538 74.0171 9.02348 74.0171 9.33477C74.0171 9.78351 74.1842 11.0206 73.9058 11.4451C73.7002 11.7564 73.5546 12.1 73.5246 12.6175C73.5075 12.9449 73.7687 13.2279 74.1156 13.2562C74.788 13.3128 75.94 13.519 76.9636 14.2386C77.0835 14.3235 77.2248 14.372 77.3747 14.368L82.3683 14.2426C82.3683 14.2426 85.7088 14.1901 87.863 20.234C87.9015 20.3471 87.9743 20.4442 88.0728 20.5169C88.8608 21.0991 92.5996 24.0705 93.5974 28.6388L94.6253 32.0751C94.6253 32.0751 94.6295 32.0953 94.6338 32.1074C94.7281 32.3742 96.1071 36.1663 95.9957 36.5221V39.9261C96 39.9584 95.9957 39.9907 95.9957 40.0231C95.9186 40.4597 95.3319 43.6898 94.5996 44.555C94.5653 44.5954 94.5353 44.6399 94.5096 44.6884L93.1692 47.5749C93.1563 47.6072 93.1392 47.6355 93.1178 47.6598C92.7966 48.1287 89.7901 52.4787 89.3019 52.9396C89.2677 52.9719 89.242 53.0083 89.2163 53.0487C88.8565 53.6309 86.5782 57.3623 86.5268 57.8515C86.5268 57.8515 85.94 60.0386 85.7173 60.3054C85.4946 60.5722 84.8779 60.5439 84.7966 60.7259C84.7152 60.9078 84.9379 61.2514 85.439 61.4657C85.94 61.6799 85.8287 61.9387 86.334 61.9387C86.4197 61.9387 86.5139 61.9225 86.6253 61.8942C87.2163 61.7406 87.6916 62.347 87.3362 62.82L85.6959 64.995C85.3319 65.4801 84.5225 65.2335 84.5225 64.6392V64.1743C84.5225 63.9641 84.4069 63.766 84.2141 63.6528C83.6403 63.3213 82.4497 62.6381 82.2612 62.6179C82.0214 62.5936 82.2655 62.9898 81.1049 63.0423C80.9979 63.0464 80.8865 63.0262 80.7923 62.9777C80.6124 62.8928 80.3212 62.7311 80.1542 62.5249C80.0171 62.3551 79.7901 62.2823 79.5632 62.3066C79.1777 62.351 78.6124 62.347 78.137 62.0559C77.5846 61.7163 76.8865 62.2176 77.1563 62.7836C77.1649 62.7957 77.1692 62.8119 77.1777 62.8281C77.7859 64.053 78.8951 65.5771 78.8951 66.4261C78.8951 67.2751 79.6488 69.2358 80.9465 69.4298C80.9465 69.4298 81.5717 69.9109 83.6445 69.8341C83.7816 69.8301 83.9229 69.8624 84.0385 69.9352C84.2484 70.0726 84.6081 70.3071 84.8737 70.5173C85.0921 70.6871 85.4004 70.7114 85.6403 70.5699L88.394 68.9286C88.5011 68.8639 88.621 68.8315 88.7452 68.8356L89.6488 68.8437C90.1413 68.8477 90.4454 69.3449 90.2098 69.7533C89.7901 70.4809 88.848 71.5806 86.7281 72.7974C86.5782 72.8823 86.4711 73.0198 86.4283 73.1775C86.2955 73.7232 86.0471 75.0371 86.5182 75.971C86.5182 75.971 87.045 77.0989 85.0964 77.6244C85.0278 77.6406 84.9636 77.6689 84.9079 77.7053C84.454 78.0004 82.2484 79.4073 80.8437 79.5286C80.8437 79.5286 79.3362 79.6256 78.3383 79.2415C78.1456 79.1688 77.9272 79.193 77.7516 79.2981C77.2677 79.6013 76.3298 80.1916 75.8972 80.4988C75.7173 80.6241 75.4861 80.6565 75.2762 80.5837C75.0321 80.4948 74.7495 80.3533 74.6852 80.139L73.636 78.7726C73.636 78.7726 73.4475 78.3198 73.8672 78.0206C74.1071 77.8508 74.6039 77.4385 74.9893 77.1151C75.2677 76.8806 75.2805 76.4723 75.0107 76.2257C73.5118 74.8471 69.0407 70.7518 67.9957 69.9675C67.8801 69.8826 67.743 69.8382 67.5974 69.8382H4.77088C4.40685 69.8382 4.11135 69.5552 4.1242 69.2115C4.13704 68.8962 4.11563 68.5607 3.97859 68.4758C3.70021 68.306 2.78373 68.3585 2.78373 67.9017V67.6874C2.78373 67.4085 2.58244 67.1578 2.29122 67.0972C1.64454 66.9597 0.569593 66.4746 0.351178 64.7767C0.0728051 62.5774 0.00856531 60.6086 0 60.2407C0 60.1801 0.00428266 60.1235 0.0214133 60.0669C0.115632 59.7597 0.595289 58.8986 2.97216 58.3204C2.97216 58.3204 4.59529 58.6358 3.15203 54.7992C3.14347 54.775 3.1349 54.7467 3.13062 54.7224C3.08351 54.5041 2.90792 53.4571 3.67452 53.259C3.94433 53.1902 4.11135 52.9315 4.10707 52.6687L4.08137 51.2457C4.08137 51.0961 4.12848 50.9506 4.23126 50.8374C4.47109 50.5746 4.85225 49.9803 4.27409 49.2769C4.18844 49.1758 4.13704 49.0545 4.13704 48.9211L4.16274 45.9578C4.16274 45.7597 4.26981 45.5737 4.44111 45.4605C4.92934 45.1371 5.91435 44.5024 6.03854 44.4822C6.14561 44.466 6.10707 43.6171 6.06424 42.9945C6.03854 42.6428 6.33833 42.3436 6.71092 42.3436H8.05996H8.05139Z" fill="#231F20" stroke="white" stroke-width="4" mask="url(#path-2-inside-1_203_19)"/>
<path d="M27.9655 36.5341L25.9441 33.2756C25.8927 33.1907 25.8028 33.1382 25.7 33.1301C24.8948 33.0614 21.3317 32.746 21.2803 32.5116C21.2246 32.2569 23.5586 30.8258 23.927 30.2517C23.9527 30.2113 23.9784 30.1789 24.0169 30.1506C24.2953 29.9566 25.5115 29.1319 25.8584 29.0833C26.2053 29.0348 27.5972 27.9514 28.2482 27.1145C28.3766 26.9528 28.6336 26.9528 28.7578 27.1145C29.1775 27.6643 29.9441 28.7114 30.1025 29.241C30.321 29.9606 31.0148 30.9309 30.9976 31.7354C30.9976 31.7798 31.0019 31.8162 31.0233 31.8567C31.2974 32.4145 33.4901 36.9262 33.6486 37.1001C33.8156 37.286 33.6486 37.3911 33.3702 37.2577C33.1432 37.1526 31.7214 35.5355 31.1946 34.9291C31.0833 34.8038 30.8863 34.7836 30.7535 34.8847L28.4366 36.619C28.2867 36.7322 28.0597 36.6917 27.9655 36.5341Z" fill="white"/>
<path d="M28.1801 30.3204L28.3214 32.4833C28.3214 32.4833 28.7411 32.9846 28.8781 33.4333C29.0152 33.8821 29.3235 34.3834 29.3235 34.3834C29.3235 34.3834 29.2679 33.8052 29.2122 33.6435C29.1565 33.4818 28.7497 32.7218 28.7497 32.7218C28.7497 32.7218 28.7368 32.2003 28.7497 32.0386C28.7625 31.8769 28.5955 31.0602 28.5955 31.0602L28.3728 30.5589L28.1758 30.3204H28.1801Z" fill="#231F20"/>
<path d="M29.7428 29.6332C29.7428 29.6332 29.7128 30.4498 29.7428 30.8743C29.7728 31.2988 29.8542 32.0386 29.8542 32.0386C29.8542 32.0386 29.9955 31.5858 29.9955 31.4564C29.9955 31.3271 29.9398 30.8217 29.9955 30.6924C30.0512 30.563 29.9955 30.0334 29.9955 29.9525C29.9955 29.8717 29.7428 29.6372 29.7428 29.6372V29.6332Z" fill="#231F20"/>
<path d="M35.2249 29.3583C35.1007 29.2976 35.0793 29.1763 35.1821 29.0874C35.6232 28.6993 36.7924 27.7371 37.7046 27.2763C38.7153 26.7628 40.2485 24.2078 40.5611 23.6742C40.5997 23.6055 40.6896 23.5772 40.7624 23.6135C40.9209 23.6944 41.2292 23.941 41.7431 24.6647C42.574 25.833 45.1264 27.6927 46.1457 28.0888C46.1757 28.101 46.1971 28.1171 46.2142 28.1454C46.4069 28.4486 47.6361 30.4094 47.6361 30.5185C47.6361 30.6358 47.9487 31.7839 47.0065 31.1128C46.4112 30.6883 46.1157 30.4821 45.9787 30.3932C45.9187 30.3528 45.8373 30.3609 45.7817 30.4094L43.0879 32.9724C43.0451 33.0129 42.9894 33.025 42.9337 33.0088C42.8224 32.9725 42.5825 32.8795 42.1243 32.6571C41.4733 32.3418 36.3598 29.904 35.2249 29.3623V29.3583Z" fill="white"/>
<path d="M40.1885 26.7628L42.2013 29.2936V31.4281L43.2634 29.6372C43.2634 29.6372 43.4604 29.1116 42.8994 28.7923C42.3384 28.4729 41.2506 27.4743 41.2506 27.4743L40.1885 26.7628Z" fill="#231F20"/>
<path d="M58.4839 7.19605C58.4839 7.19605 59.379 4.98064 61.7259 5.03319C61.7259 5.03319 61.9443 5.06553 61.2933 5.3647C60.6423 5.66386 58.8865 7.19605 58.8865 7.19605C58.8865 7.19605 58.5096 7.66501 58.4882 7.19605H58.4839Z" fill="white"/>
<path d="M61.3746 7.06669C61.3746 7.06669 62.6894 5.35257 63.259 5.03724C63.8286 4.72191 63.8886 4.49956 63.8886 4.49956C63.8886 4.49956 61.9614 4.79063 61.486 6.06813L60.2312 8.37653C60.2312 8.37653 59.6016 9.52466 60.7751 8.42908C61.9485 7.33351 63.9442 5.76493 64.7151 5.70025C64.7151 5.70025 64.895 6.26623 64.2397 7.07073L64.0856 8.11375C64.0856 8.11375 66.4881 6.09643 66.8778 6.05601C67.2676 6.01558 67.229 6.29453 66.8778 6.58156C66.5267 6.86859 66.9335 7.002 67.4903 6.92519C68.047 6.84838 68.2868 6.60986 68.2868 6.60986L67.2547 6.54518L69.5588 4.93617C69.5588 4.93617 67.4089 4.77851 65.5374 6.31878C65.5374 6.31878 64.895 6.34708 65.2847 5.55471C65.2847 5.55471 66.8479 4.31359 65.1605 4.9483C63.4731 5.58301 61.5845 7.09903 61.5845 7.09903C61.5845 7.09903 61.3318 7.29712 61.3746 7.07073V7.06669Z" fill="white"/>
<path d="M71.4092 7.40627C71.4092 7.40627 72.0045 5.70024 72.4456 5.51427C72.8867 5.32831 72.0473 7.09498 71.4092 7.40627Z" fill="white"/>
<path d="M61.5631 13.3531C61.5631 13.3531 61.4775 9.81169 58.7366 9.10017H58.1284C58.1284 9.10017 58.6937 11.3924 58.6295 11.8088C58.5652 12.2252 58.6081 14.5579 58.6723 14.5781C58.7366 14.5983 58.9036 17.0118 60.2869 19.0089C61.6702 21.006 61.5246 21.1232 63.092 22.7282C63.092 22.7282 63.4475 23.561 63.8029 23.5974C64.1584 23.6338 64.1798 23.1042 64.0556 22.9829C63.9314 22.8616 63.4261 22.5099 63.4475 22.4492C63.4689 22.3886 63.6573 21.7579 63.3618 21.6367C63.0663 21.5154 62.3554 21.4184 62.3554 21.4184L62.3768 21.103H63.2762L63.2976 20.529C63.2976 20.529 61.6445 19.5587 62.0214 19.0857C62.0214 19.0857 62.8393 19.8781 63.319 19.8579V16.9916L62.9207 17.0118C62.9207 17.0118 63.0064 17.8405 62.0428 17.982H61.1263V17.032C61.1263 17.032 59.6787 16.3973 59.7002 15.5483C59.7002 15.5483 60.2441 15.9445 60.5396 15.9647L60.4539 15.4513C60.4539 15.4513 59.2162 14.5619 59.2376 14.2466C59.259 13.9312 61.2291 15.2532 61.2291 15.2532H61.94V14.7398C61.94 14.7398 60.3682 13.4542 60.4111 13.0378C60.4539 12.6214 60.4111 12.3667 60.4111 12.3667C60.4111 12.3667 61.2719 13.2763 61.5631 13.3572V13.3531Z" fill="white"/>
<path d="M63.469 11.3762V13.2359C63.469 13.2359 63.1564 13.8504 62.5269 12.9205V11.1822C62.5269 11.1822 62.771 10.4504 64.1243 10.5475C64.1243 10.5475 65.5161 10.2766 68.5997 8.48972H68.9979V10.5272C68.9979 10.5272 70.2956 11.5339 70.317 11.833C70.3384 12.1322 70.317 13.5714 70.317 13.5714C70.317 13.5714 70.317 14.008 70.6939 13.4542C71.0708 12.9003 71.6361 11.162 71.6361 10.9436C71.6361 10.7253 71.8459 10.1149 71.8459 10.1149C71.8459 10.1149 72.8309 9.00718 72.9979 8.98697C73.165 8.96676 73.3534 8.61504 73.5204 8.89803C73.6875 9.18102 73.8331 9.95318 73.3534 9.79551C72.8737 9.63785 72.4326 9.95318 72.3684 10.2887C72.3042 10.6243 71.9273 10.9396 72.1157 11.7522C72.3042 12.5648 72.5611 13.1186 72.5611 13.1186C72.5611 13.1186 72.15 14.19 71.696 13.2157C71.696 13.2157 71.3406 13.058 71.2977 13.907C71.2549 14.7559 71.2763 16.1992 71.2763 16.1992C71.2763 16.1992 71.0236 19.4212 69.8331 20.153C69.8331 20.153 69.8416 19.6193 69.5547 19.6193C69.2678 19.6193 69.2678 20.4481 69.2678 20.4481C69.2678 20.4481 68.347 22.7039 66.6896 23.3952C65.0322 24.0865 66.7752 22.2673 66.7752 22.2673C66.7752 22.2673 66.1243 22.1703 65.9359 22.3482C65.7474 22.526 64.3641 22.5261 65.2035 21.855C66.0429 21.1839 67.2763 21.3415 67.7174 21.4992C67.7174 21.4992 68.0515 20.8281 67.4862 20.7473C66.9209 20.6664 65.2463 21.3981 65.2463 21.3981C65.2463 21.3981 64.1157 21.6932 65.0151 20.7836C65.9144 19.874 66.2314 19.8942 66.2528 19.6153C66.2742 19.3363 66.4412 18.5278 65.6232 18.1923C65.6232 18.1923 64.6168 18.3297 65.6232 18.7663C65.6232 18.7663 66.1029 19.6557 64.9937 20.1328C64.9937 20.1328 64.0515 20.4683 63.9059 19.6598L63.863 18.1963C63.863 18.1963 64.0515 16.753 64.6596 16.7126C65.2678 16.6722 65.1393 16.753 65.1393 16.753C65.1393 16.753 66.0001 17.3271 66.1671 17.881C66.3341 18.4348 67.2164 18.928 67.2164 18.928H68.5354C68.5354 18.928 68.4926 18.3742 68.3042 18.354C68.1157 18.3337 66.4198 17.7799 66.5012 17.2058C66.5825 16.6318 67.3406 17.3231 67.4219 17.3433C67.5033 17.3635 68.7324 17.4039 68.0986 16.9875C67.4648 16.5711 67.5675 16.8299 67.5675 16.8299C67.5675 16.8299 67.3277 16.5954 68.0986 16.3447L68.9508 15.4634C68.9508 15.4634 68.3855 15.3826 67.6746 15.9C66.9637 16.4175 66.8352 15.5645 67.4433 15.3866C68.0515 15.2087 69.5504 14.2183 69.5504 14.2183L68.4069 14.2385L65.9144 15.3664C65.9144 15.3664 65.2635 15.5645 65.4733 14.4568C65.6832 13.3491 65.7474 12.9125 65.7474 12.9125C65.7474 12.9125 65.2249 13.1874 64.9723 14.2951L64.6596 15.6777C64.6596 15.6777 63.7988 15.7747 63.7817 14.8489C63.7645 13.9231 63.8245 11.3681 63.8245 11.3681C63.8245 11.3681 63.6361 11.1741 63.469 11.3681V11.3762Z" fill="white"/>
<path d="M73.0664 10.4262C73.0664 10.4262 72.4112 10.7415 72.5696 11.0609C72.7281 11.3803 72.8994 11.8128 73.0664 11.6956C73.2335 11.5784 73.3191 11.162 73.3191 11.073C73.3191 10.9841 73.529 10.4706 73.0664 10.4302V10.4262Z" fill="white"/>
<path d="M58.0386 20.25C58.4454 20.2743 59.0322 20.2217 59.2549 20.1045C59.4776 19.9872 59.6446 19.773 59.6317 19.3525C59.6189 18.9321 59.5761 18.3782 59.4219 18.0871C59.2677 17.7961 59.2677 17.3999 59.0022 17.4807C58.7367 17.5616 58.5268 17.9295 58.5011 18.0993C58.4754 18.2691 57.8287 19.0897 57.3576 19.5627C56.8865 20.0357 55.7816 20.6421 55.4733 20.9211C55.1649 21.2 53.9658 22.6878 53.7988 23.5974C53.7988 23.5974 53.1264 25.1013 51.8716 26.2454C50.6167 27.3895 49.6531 27.7088 49.5247 27.9837C49.3962 28.2586 48.06 29.2895 48.1842 31.1088C48.1842 31.1088 47.5975 32.7744 47.5418 33.0088C47.4861 33.2433 46.9679 34.5491 47.2334 35.8145C47.499 37.0799 48.1114 37.6216 48.1114 37.6216C48.1114 37.6216 48.5568 37.9127 48.3341 36.9505C48.1114 35.9883 47.9701 34.4723 48.1799 33.9993C48.3898 33.5263 49.0022 31.9173 49.075 32.6935C49.1478 33.4697 49.3319 36.3966 49.9615 37.3143V41.0862L50.5482 42.6386C50.5482 42.6386 51.1992 44.478 52.3084 45.6424C52.3084 45.6424 53.2077 46.4145 52.5996 45.3836C51.9915 44.3527 51.2806 43.2086 51.2163 43.0914C51.1521 42.9742 50.4626 41.5471 50.7752 41.4298C51.0878 41.3126 51.2591 42.3597 51.636 42.9742C52.0129 43.5886 53.1221 44.7934 53.8373 43.5684C54.5525 42.3435 54.6553 42.0848 54.6553 42.0848C54.6553 42.0848 55.1778 40.9568 56.4155 42.8165C57.6531 44.6761 58.2784 46.2568 58.2784 46.2568L59.6317 48.4723C59.6317 48.4723 60.454 49.3212 60.4968 47.9993C60.5397 46.6773 60.5996 46.2205 60.3298 45.7272C60.06 45.234 59.6403 44.005 59.6403 44.005C59.6403 44.005 59.1606 42.2667 60.2698 44.1829C61.3791 46.0992 61.8844 46.5762 62.7624 46.7137C63.6403 46.8511 63.9786 46.7339 63.9786 46.7339C63.9786 46.7339 62.03 40.4838 58.03 39.2791H56L54.848 39.2993C54.848 39.2993 53.5504 38.4706 53.4861 38.4867C53.4861 38.4867 53.5889 36.7079 53.4433 36.332C53.2977 35.956 52.2056 31.3675 51.7045 31.23C51.7045 31.23 51.6403 30.757 52.1242 31.2503C52.6082 31.7435 54.0514 34.6906 54.03 34.7513C54.0086 34.8119 54.7409 38.0137 56.1457 38.6484H58.2185C58.2185 38.6484 63.015 40.6455 64.4412 46.3983C64.4412 46.3983 65.0493 47.979 63.7302 47.4454C62.4112 46.9118 63.4776 48.1367 63.4776 48.1367C63.4776 48.1367 63.212 48.5895 61.4262 48.5329C61.4262 48.5329 58.7881 50.4492 62.9979 55.1751C62.9979 55.1751 65.6788 55.4136 65.7003 54.0067C65.7217 52.5999 65.5332 51.2779 66.621 51.0192C66.621 51.0192 67.7516 51.5124 68.2142 52.1471C68.2142 52.1471 68.424 51.4962 67.9615 50.8211C67.9615 50.8211 68.0043 44.2557 67.3105 43.7221C67.3105 43.7221 64.7752 39.3114 63.3534 38.3816C63.3534 38.3816 63.1863 39.5661 63.8544 40.2615C63.8544 40.2615 62.9551 39.7278 62.7024 38.9355C62.4497 38.1431 63.7302 36.9586 64.1285 36.7403C64.5268 36.522 67.5846 33.5304 67.4176 29.6291C67.4176 29.6291 68.3598 30.1183 67.8587 31.4201C67.3576 32.7218 66.6424 34.7027 66.6424 34.7027C66.6424 34.7027 66.0557 35.5517 69.2806 35.6124C69.2806 35.6124 69.7816 35.9883 68.5696 36.4613C68.5696 36.4613 68.985 36.8373 69.3833 36.9748C69.7816 37.1122 68.5268 37.3507 67.833 37.3305C67.1392 37.3103 65.5075 37.3305 65.5075 37.3305C65.5075 37.3305 65.0236 38.5757 67.9572 39.0325H71.2463C71.2463 39.0325 75.0579 38.042 76.0215 35.1757C76.0215 35.1757 76.1885 32.742 75.9358 32.5075C75.9358 32.5075 75.105 25.6996 69.7688 24.8021C69.7688 24.8021 69.2377 24.3291 70.6339 24.5393C70.6339 24.5393 70.3255 20.4279 73.0364 19.0008C73.0364 19.0008 73.0364 17.1816 74.711 16.6035C76.3855 16.0254 76.3855 15.7585 77.7559 15.7585C77.7559 15.7585 78.8737 15.0187 79.7131 15.5726C80.5525 16.1264 79.3234 16.6277 77.7559 16.4943C77.7559 16.4943 74.8523 16.6277 75.2977 18.6814C75.2977 18.6814 75.8844 18.9725 74.2356 19.2353C74.2356 19.2353 71.1093 20.1287 71.6103 23.5448C71.6103 23.5448 72.5868 25.93 75.0193 28.2506C75.0193 28.2506 75.803 28.6184 77.7003 28.0929C77.7003 28.0929 78.0514 28.4406 76.1028 28.9823C76.1028 28.9823 75.8416 29.427 76.681 29.2572C77.5204 29.0874 78.8994 28.6346 77.3919 29.4634C77.3919 29.4634 75.3919 30.2921 76.9722 30.1466C78.5525 30.0011 78.6596 29.8717 77.2334 30.5994C75.8073 31.3271 76.6039 32.4995 77.4219 32.4792C78.2399 32.459 77.3791 33.0331 76.8352 32.9927C76.2913 32.9522 77.0878 34.9291 77.923 35.0868C78.7581 35.2445 79.6403 34.8119 79.6403 34.8119C79.6403 34.8119 81.8416 33.8821 82.2998 30.0657L82.197 28.2061C82.197 28.2061 82.03 25.9502 78.7409 23.9329C78.7409 23.9329 78.4497 23.3589 79.5589 24.0138C80.6681 24.6687 81.9487 25.6551 81.9487 25.7158C81.9487 25.7764 82.4112 25.736 81.9915 25.0042C81.5718 24.2725 79.833 21.5235 76.9422 20.06C76.9422 20.06 76.9422 19.4657 78.4925 20.6543C78.4925 20.6543 81.7602 22.4937 83.7088 25.36C83.7088 25.36 84.5868 25.7158 85.3448 25.3398C86.1028 24.9638 86.287 23.8561 86.287 23.2255C86.287 22.5948 86.4754 19.2515 85.9315 18.8553C85.9315 18.8553 86.9808 19.8821 86.8951 21.9197C86.8095 23.9572 86.6424 26.6254 84.6938 26.5284C84.6938 26.5284 82.7238 26.3505 82.9123 27.6967C83.1007 29.0429 83.1435 31.8082 84.9037 33.5101L84.591 29.5159C84.591 29.5159 84.6767 28.4891 85.0322 30.8217C85.3876 33.1544 85.9101 35.1515 86.8137 35.4304L86.9037 33.9468C86.9037 33.9468 86.8137 32.7986 87.2334 34.1246C87.6531 35.4506 87.6103 36.0045 87.863 35.9641C88.1157 35.9236 87.8416 35.1353 87.863 35.0545C87.8844 34.9736 87.5075 33.9265 87.5718 33.6112C87.636 33.2959 88.9979 32.2448 88.9979 32.2448L89.606 31.513C89.606 31.513 90.0686 30.8783 88.9337 30.5226L88.8694 31.412L87.8202 32.6773C87.8202 32.6773 87.1692 33.1503 87.7174 32.3014C88.2656 31.4524 88.3469 31.4888 88.3469 31.0966C88.3469 30.7045 88.5354 30.3245 88.2827 30.09C88.03 29.8555 87.8844 28.8246 88.5953 29.6736C88.5953 29.6736 88.5525 29.9889 88.6596 30.0496C88.7666 30.1102 89.696 30.4053 89.696 30.4053C89.696 30.4053 90.8823 30.8985 89.7902 32.2043C88.6981 33.5101 88.1157 33.8255 88.1157 33.8255C88.1157 33.8255 87.9272 35.3294 88.9551 35.5477C89.9829 35.766 89.3962 36.7322 89.1863 36.9101C88.9765 37.088 88.4968 37.6014 88.5782 37.9976C88.6596 38.3937 88.5782 41.4581 88.5782 41.4581C88.5782 41.4581 88.0557 41.6764 88.0557 41.4581C88.0557 41.2398 88.3298 40.5081 88.0771 40.4515C87.8245 40.3949 87.7217 40.4111 87.7217 40.787C87.7217 41.163 87.3234 44.7206 87.3234 44.7206C87.3234 44.7206 87.0707 46.0466 87.9315 45.2138C88.7923 44.381 88.5611 44.5023 88.6424 43.8878C88.7238 43.2733 88.6639 42.6629 88.8309 42.6629C88.9979 42.6629 88.8309 43.5118 89.2506 43.1965C89.6703 42.8812 90.6553 41.3934 90.7367 41.07C90.818 40.7466 91.302 39.6591 91.302 39.6591C91.302 39.6591 91.9101 39.3236 91.302 40.5283C90.6938 41.733 91.0878 42.2505 91.5718 41.5349C92.0557 40.8194 93.1863 39.457 93.3748 39.1821C93.5632 38.9072 94.4026 37.7388 94.4026 37.7388C94.4026 37.7388 94.7795 35.7013 94.1285 35.2687C94.1285 35.2687 94.6724 35.0504 94.9679 36.0975C95.2634 37.1445 95.1135 37.7793 94.9679 37.8965C94.8223 38.0137 94.7795 38.8061 94.7795 38.8061C94.7795 38.8061 94.6767 42.1697 93.3962 44.6398C93.3962 44.6398 92.9337 46.4186 94.0257 44.4214C95.1178 42.4243 95.5332 40.7628 95.5332 40.3666C95.5332 39.9704 95.6574 36.6473 95.6574 36.6473C95.6574 36.6473 94.9679 34.6502 94.7581 34.254C94.5482 33.8578 93.5632 31.9214 93.606 31.4645C93.6489 31.0077 93.3962 29.5078 93.3148 29.0308C93.2334 28.5538 90.9679 23.848 90.8009 24.0461C90.8009 24.0461 88.4326 21.099 88.0129 21.0788V24.0825C88.0129 24.0825 87.5289 25.2509 87.3833 23.8238C87.2377 22.3967 87.5289 21.3698 87.3833 20.6219C87.2377 19.874 85.8973 17.1209 85.7302 17.0643C85.5632 17.0077 83.7003 14.671 81.9786 14.574C80.2613 14.477 78.7966 14.6913 78.7966 14.6913C78.7966 14.6913 77.3534 15.2451 76.514 14.7317C75.6746 14.2183 75.0878 13.8423 74.4197 13.8019C73.7516 13.7614 72.4711 13.4663 71.9272 15.5807C71.3833 17.695 71.7388 18.5076 71.0279 19.494C70.317 20.4804 68.9037 22.5786 68.1242 22.995C68.1242 22.995 65.9615 24.4989 63.9915 23.9046C63.9915 23.9046 63.302 23.6863 62.6724 24.5959C62.0429 25.5055 60.9337 25.9422 60.8309 26.12C60.7281 26.2979 61.5033 26.4152 62.0043 26.2171C62.5054 26.019 64.3298 24.8142 64.3298 24.8142C64.3298 24.8142 65.5461 24.22 66.7581 24.3412C66.7581 24.3412 68.7495 24.321 66.8223 24.5191C66.8223 24.5191 64.6639 24.9355 64.621 26.0028C64.5782 27.0701 65.0836 27.1105 65.0836 27.1105C65.0836 27.1105 66.2356 28.4567 65.8801 31.3998C65.8801 31.3998 65.7559 27.5229 63.8073 26.3181C63.8073 26.3181 60.6853 26.7345 60.4968 26.872C60.3084 27.0094 59.1778 27.0701 58.9465 27.5067C58.7152 27.9433 58.0043 27.8625 58.8009 27.1105C58.8009 27.1105 60.0386 26.5769 60.2484 26.5567C60.4583 26.5364 60.4583 26.0432 59.3491 26.3788C58.2399 26.7143 57.5889 26.9124 57.3576 27.0701C57.1264 27.2277 56.6853 27.4258 56.2484 27.4865C55.8116 27.5471 53.1478 27.5269 53.1478 27.5269C53.1478 27.5269 53.5889 26.6375 54.424 26.4596C55.2591 26.2817 56.12 25.9664 56.12 25.8451C56.12 25.7239 56.0771 25.3924 55.8287 25.3924C55.5803 25.3924 55.6189 24.8385 56.12 24.8991C56.621 24.9598 56.8309 25.2751 56.9594 24.98C57.0878 24.6849 57.212 22.6069 57.2334 22.429C57.2549 22.2512 57.9743 20.2217 58.0643 20.2257L58.0386 20.25Z" fill="white"/>
<path d="M57.8975 28.9944C57.8975 28.9944 59.0281 30.4983 59.1137 31.0724C59.1994 31.6464 60.2015 32.7541 60.1202 31.4281C60.0388 30.1021 57.8803 28.6589 57.9017 28.9944H57.8975Z" fill="#231F20"/>
<path d="M54.2398 48.0639C54.7238 48.5086 56.5011 49.6446 57.1435 50.7806C57.7859 51.9166 58.651 53.7076 59.4904 54.2857C60.3298 54.8638 60.0214 55.4459 59.2377 54.7344C58.454 54.0229 57.0878 52.9677 56.8094 52.7575C56.531 52.5473 54.5739 51.1243 54.2398 49.5921C53.9058 48.0599 53.7944 48.0639 53.7944 48.0639C53.7944 48.0639 53.8801 47.7284 54.2398 48.0639Z" fill="white"/>
<path d="M55.9145 47.0088C55.9145 47.0088 56.8653 48.5369 57.0323 48.7471C57.1993 48.9574 58.4028 50.8049 58.5698 51.3304C58.7368 51.856 59.5205 53.651 59.7989 53.651C60.0773 53.651 59.9402 54.2048 60.133 53.942C60.3257 53.6793 60.3514 52.8869 59.9916 52.2279C59.6319 51.569 59.5205 51.3749 59.3235 50.5098C59.1265 49.6446 58.7668 48.7754 58.4285 48.2984C58.0901 47.8214 57.619 46.9805 57.3107 46.6368C57.0023 46.2932 56.1929 45.1087 55.9145 45.5574C55.6362 46.0062 55.8032 46.8269 55.9145 47.0088Z" fill="white"/>
<path d="M64.1543 57.5037C63.9745 57.5846 63.7646 57.819 63.846 58.2435C63.9274 58.668 64.2914 59.9576 64.3471 60.2204C64.4027 60.4832 64.634 61.4332 64.0858 60.6934C63.5376 59.9536 63.0922 59.2704 63.0323 58.7165C62.9723 58.1627 63.1993 56.8447 63.0323 56.5294C62.8653 56.2141 62.1929 55.0983 61.8588 55.1953C61.5248 55.2923 61.7732 57.1641 61.8588 57.3218C61.9445 57.4794 62.7796 60.4589 63.422 61.3039C64.0644 62.1488 65.7946 65.7064 67.6104 67.3679C69.4263 69.0295 69.816 69.7936 70.013 70.0321C70.21 70.2706 71.5505 71.536 71.6618 71.6937C71.7732 71.8513 72.2743 72.6154 72.2743 72.6154C72.2743 72.6154 72.3728 73.8929 73.4734 74.184C74.574 74.4751 73.5034 73.7231 73.4734 73.6423C73.4434 73.5614 72.6768 72.4577 72.5783 72.2313C72.4798 72.0049 72.3685 71.6532 72.2443 71.439C72.1201 71.2247 70.7368 69.5551 70.7368 69.5551C70.7368 69.5551 66.9681 65.4032 66.9381 65.3628C66.9081 65.3223 64.9552 62.646 65.0537 61.5262C65.1522 60.4064 64.9124 58.7165 64.8738 58.5589C64.8353 58.4012 64.7068 57.9807 64.5655 57.819C64.4242 57.6573 64.2657 57.4511 64.1458 57.5037H64.1543Z" fill="white"/>
<path d="M65.6274 58.1829C65.6274 58.1829 65.6274 59.5089 65.8587 60.0425C66.09 60.5762 66.1713 64.057 69.4604 65.8155C69.4604 65.8155 70.908 66.4098 71.0536 66.4866C71.1992 66.5634 71.3277 66.9596 71.4005 66.5837C71.4733 66.2077 71.409 63.8144 71.0964 63.2605C70.7838 62.7067 69.9015 61.3807 69.3148 61.0047C68.7281 60.6287 68.06 59.9172 67.1992 59.4442C66.3384 58.9712 65.6274 58.1788 65.6274 58.1788V58.1829Z" fill="white"/>
<path d="M70.0898 67.2588C70.4453 67.7722 70.865 67.9501 71.0749 68.2654C71.2847 68.5808 71.3832 68.1846 71.426 67.8692C71.4689 67.5539 71.7173 67.1173 71.426 67.1173H70.214L70.0898 67.2547V67.2588Z" fill="white"/>
<path d="M74.6167 74.851C74.6167 74.851 76.3126 77.2443 77.0064 77.6971C77.7002 78.1499 77.7602 78.4086 78.0557 78.3884C78.3512 78.3682 78.3298 78.1701 77.9529 77.875C77.576 77.5799 76.8223 76.8077 76.5482 76.5085C76.2741 76.2094 75.7944 75.8941 75.5203 75.4615C75.2462 75.0289 74.7666 74.5923 74.621 74.847L74.6167 74.851Z" fill="white"/>
<path d="M66.3211 51.953C66.2141 52.4826 66.2569 53.2184 66.3211 53.6348C66.3854 54.0512 66.5181 54.8598 66.2312 54.981C65.9443 55.1023 65.4817 55.0619 65.5032 55.7128C65.5246 56.3637 65.8372 57.6897 67.3661 58.6397C68.895 59.5897 69.88 61.2513 70.4668 60.0223C70.4668 60.0223 71.1177 60.281 71.1391 60.8349C71.1605 61.3888 71.7687 63.6042 71.7687 63.7416C71.7687 63.8791 71.9357 65.9368 71.9357 65.9368V68.1118C71.9357 68.1118 72.2098 70.9215 72.7751 70.0483C73.3404 69.175 73.5289 69.5753 73.5931 69.6723C73.6573 69.7693 74.1584 71.1358 74.4539 71.3541C74.7494 71.5724 75.5631 72.5588 75.6702 72.5992C75.7773 72.6397 76.2141 72.6599 76.0042 72.0252C75.7944 71.3905 75.062 71.156 74.895 70.9781C74.728 70.8002 74.1627 70.0685 74.1413 69.7127C74.1199 69.357 73.9528 68.508 73.8072 68.2088C73.6616 67.9097 73.6402 67.6752 73.4732 67.4367C73.3062 67.1981 73.4518 66.8626 73.0963 67.1213C72.7408 67.3801 72.7623 67.7358 72.7837 67.8329C72.8051 67.9299 72.5096 68.1684 72.4925 67.9501C72.4753 67.7318 72.5353 67.1981 72.5567 67.1213C72.5781 67.0445 72.6595 66.6281 72.955 66.6483C73.2505 66.6686 73.5417 66.7656 73.6659 66.9839C73.7901 67.2022 74.107 67.9137 74.107 67.9744C74.107 68.035 74.3383 68.884 74.3597 69.0012C74.3811 69.1184 74.5481 69.6925 74.6338 69.8502C74.7194 70.0078 75.0107 70.2464 75.1777 70.4242C75.3447 70.6021 75.7002 70.6991 75.8501 70.8204C75.9999 70.9417 76.2698 71.4147 76.3297 71.5522C76.3897 71.6896 76.5396 72.2435 76.6038 72.4011C76.668 72.5588 76.7922 73.052 76.7922 73.052C76.7922 73.052 76.7494 73.4482 77.1905 73.428C77.6316 73.4078 77.6916 73.4482 77.6531 73.052C77.6145 72.6558 77.5503 72.7933 77.3618 72.3405C77.1734 71.8877 77.0064 71.2732 77.6659 71.6088C78.3254 71.9443 78.8907 73.052 79.2462 73.2703C79.6017 73.4886 80.1241 74.5195 80.6937 74.7742C81.2633 75.0289 82.5567 75.9183 83.5845 76.1366C84.6124 76.3549 84.591 77.0866 85.2205 76.8279C85.8501 76.5692 86.0171 76.7471 85.8501 75.9587C85.683 75.1704 85.683 75.3119 85.4304 74.7742C85.1777 74.2365 85.2847 73.9414 84.9678 74.1193C84.6509 74.2972 85.1991 74.9319 84.4882 74.6934C83.7773 74.4548 83.5032 74.2567 83.2119 73.8646C82.9207 73.4725 82.4368 72.9752 82.394 72.7165C82.3511 72.4577 82.0813 71.726 82.6252 71.7098C83.1691 71.6937 83.6531 71.6694 83.9229 71.629C84.1927 71.5885 84.7837 70.8972 83.6916 70.4808C83.6916 70.4808 82.561 70.8164 81.8672 70.5415C81.1734 70.2666 80.6124 69.927 80.3597 69.8704C80.107 69.8138 79.2933 69.6723 78.7066 69.7531C78.1199 69.834 77.8458 69.931 77.4518 69.931C77.0578 69.931 76.6338 69.931 76.1113 69.4176C75.5888 68.9042 74.8565 67.5377 74.8137 67.4407C74.7708 67.3437 73.516 64.8291 73.4518 64.0408C73.3875 63.2525 73.2633 62.1811 73.2633 61.9264C73.2633 61.6717 72.8008 59.8323 72.531 59.3553C72.2612 58.8782 71.3576 56.9418 71.2548 56.8245C71.152 56.7073 69.349 53.562 69.182 53.5216C69.0149 53.4812 67.379 51.6822 67.1306 51.6822C66.8822 51.6822 66.4282 51.6054 66.3554 51.9571L66.3211 51.953Z" fill="white"/>
<path d="M76.6253 40.0108C76.9508 39.5136 77.5889 38.7859 77.6746 38.5069C77.7602 38.228 78.1756 37.7954 77.6746 37.7146C77.1735 37.6337 76.9208 37.5165 76.6253 37.3992C76.3298 37.282 76.0172 36.5705 75.6917 37.0435C75.3662 37.5165 74.8223 38.4665 74.8223 38.705C74.8223 38.9436 74.4026 38.9436 74.2356 39.1417C74.0686 39.3397 74.3213 39.934 74.2356 40.0108C74.1499 40.0876 74.0514 40.407 73.6831 40.4838C73.3148 40.5606 72.3512 40.6011 72.0172 40.88C71.6831 41.159 69.7988 41.5511 69.7131 41.7896C69.6275 42.0282 69.0022 42.5416 68.7067 42.582C68.4112 42.6224 67.9315 42.6629 67.8373 42.8205C67.7431 42.9782 67.8673 45.0804 68.7923 45.4645C69.7174 45.8485 70.5739 47.3322 72.227 47.4292C73.8801 47.5263 73.7345 47.5667 73.7345 47.5667C73.7345 47.5667 73.5889 47.7648 73.1478 47.882C72.7067 47.9993 72.3298 48.2782 71.6189 48.2782C70.908 48.2782 70.257 48.2176 69.923 48.2782C69.5889 48.3388 69.272 48.1003 69.2506 48.4763C69.2292 48.8523 69.2078 51.1081 69.2078 51.1081L69.332 52.5514C69.332 52.5514 72.4754 57.9888 72.5996 58.0899C72.7238 58.191 73.5204 59.0197 74.4412 58.5265C75.3619 58.0333 74.6938 56.9822 74.6938 56.9822C74.6938 56.9822 75.1564 56.1332 75.469 55.8138C75.7816 55.4945 76.3684 54.9042 76.3684 54.9042C76.3684 54.9042 76.514 53.182 76.5568 52.8263C76.5996 52.4705 76.5996 52.0137 76.7024 51.5003C76.8052 50.9868 76.848 50.7483 76.848 50.3157C76.848 49.8832 76.7624 49.681 76.7624 49.681C76.7624 49.681 75.7131 50.3521 75.5461 50.53C75.3791 50.7079 74.8737 51.6781 75.6789 51.7549C75.6789 51.7549 76.0043 52.4867 74.9979 52.1916C73.9915 51.8964 74.621 50.4128 74.621 50.3521C74.621 50.2915 74.9765 49.7174 75.0622 49.4627C75.1478 49.208 75.1649 48.3954 75.1649 48.2176C75.1649 48.0397 74.6639 47.5667 75.2292 47.1099C75.7945 46.653 75.9829 46.4954 76.09 46.1032C76.1971 45.7111 76.4026 45.2138 76.4026 45.2138C76.4026 45.2138 76.5482 45.3513 76.4669 45.9253C76.3855 46.4994 76.2356 46.6773 76.0043 46.932C75.7731 47.1867 75.6232 47.1301 75.6789 47.2877C75.7345 47.4454 75.6789 49.3657 75.6789 49.3657C75.6789 49.3657 75.8801 49.7215 76.5696 49.0706C77.2592 48.4197 77.4904 47.2109 77.4904 47.2109L77.5332 46.2407C77.5332 46.2407 77.5761 44.5589 77.5761 44.4821C77.5761 44.4053 77.4305 44.1465 77.075 44.1465C76.7195 44.1465 76.9893 43.8716 77.1607 43.6129C77.332 43.3542 77.7688 42.5861 77.7688 42.5052C77.7688 42.4243 77.7474 41.3166 77.7688 41.0902C77.7902 40.8639 77.6831 40.4677 77.6831 40.4677C77.6831 40.4677 77.4947 39.6955 77.2849 39.9138C77.075 40.1321 76.741 40.5283 76.741 40.5283C76.741 40.5283 76.4069 40.3343 76.6168 40.0149L76.6253 40.0108Z" fill="white"/>
<path d="M70.4669 44.5791C70.5312 44.5791 72.5826 44.5791 73.3149 44.3406C74.0472 44.1021 75.786 43.8474 76.2271 43.3339C76.6682 42.8205 76.8352 42.1858 76.6468 42.1292C76.4584 42.0726 76.3342 42.0322 75.9359 42.4243C75.5376 42.8165 75.8331 42.8609 75.0751 43.2167C74.317 43.5725 74.0472 43.6129 73.0622 43.6331C72.0772 43.6533 71.5333 43.5725 71.0708 43.5523C70.6083 43.532 69.816 43.4148 69.4776 43.3339C69.1393 43.2531 68.7239 43.3137 68.8053 43.5684C68.8866 43.8231 69.8931 44.478 69.9573 44.478C70.0215 44.478 70.4584 44.5751 70.4584 44.5751L70.4669 44.5791Z" fill="#231F20"/>
<path d="M70.9293 52.1916C71.1606 52.1916 71.8715 52.329 72.2055 52.1916C72.5396 52.0541 73.5032 51.8964 73.7344 51.8156C73.9657 51.7347 73.9229 51.953 73.7344 52.1309C73.546 52.3088 73.0835 52.802 72.6681 52.8829C72.2526 52.9637 71.516 53.1214 71.0535 53.0001C70.591 52.8788 70.3426 53.0001 70.2783 52.6848C70.2141 52.3694 70.1927 52.1107 70.4454 52.1511C70.698 52.1916 70.925 52.1916 70.925 52.1916H70.9293Z" fill="#231F20"/>
<path d="M77.9444 38.6525C77.9444 38.6525 78.287 39.9461 78.287 40.314C78.287 40.6819 78.3984 42.7963 78.287 43.3339C78.1757 43.8716 78.1885 46.0628 78.1414 46.3781C78.0943 46.6934 77.923 49.4102 77.5333 49.5436C77.5333 49.5436 77.2549 51.7711 77.1992 52.0662C77.1436 52.3613 77.0879 54.314 77.0879 54.5525C77.0879 54.791 77.6575 54.6859 77.9187 54.3665C78.18 54.0472 79.4348 53.5499 79.8545 53.6267C80.2742 53.7035 81.392 54.128 81.529 54.0997C81.666 54.0714 82.2571 53.4529 82.5611 52.4179C82.8652 51.383 83.3149 50.813 83.5675 50.2147C83.8202 49.6163 84.741 47.2392 84.741 47.122C84.741 47.0047 85.0493 44.8823 85.0493 44.571C85.0493 44.2597 84.6853 43.2329 84.8523 42.9944C85.0194 42.7558 85.3834 41.6239 85.6061 41.3085C85.8288 40.9932 86.1928 40.3342 86.1928 40.0674C86.1928 39.8006 86.2442 39.2225 85.8845 39.0123C85.5247 38.8021 83.5119 36.9828 83.5119 36.9828C83.5119 36.9828 82.2142 35.7175 82.2613 35.0827C82.2613 35.0827 80.4926 35.3213 79.5718 36.7443C78.6511 38.1673 78.287 38.6403 77.9444 38.6444V38.6525Z" fill="white"/>
<path d="M78.0727 53.1578C77.8372 53.1578 77.9871 52.1511 78.0727 52.0905C78.1584 52.0298 79.456 52.0905 79.456 52.0905C79.456 52.0905 79.1648 52.3209 78.9121 52.612C78.6594 52.9031 78.3468 53.1578 78.0727 53.1578Z" fill="#231F20"/>
<path d="M79.4517 50.8453C79.9656 51.1849 81.6315 51.0838 81.6315 51.0838H82.2611C82.2611 51.0838 81.7814 50.3117 81.7386 49.9964C81.6958 49.681 81.6958 49.3819 81.5073 49.3455C81.3189 49.3091 80.9206 49.4829 80.6679 49.7619C80.4153 50.0408 79.4517 50.5138 79.4517 50.5138C79.4517 50.5138 79.2418 50.7119 79.4517 50.8494V50.8453Z" fill="#231F20"/>
<path d="M80.5652 48.3954C80.5652 48.3954 81.426 47.3079 81.5288 47.2675C81.6316 47.2271 82.5567 46.3175 82.5567 46.3175C82.5567 46.3175 82.9121 45.9011 82.8093 45.8647C82.7065 45.8283 82.1369 46.18 81.9314 46.3579C81.7258 46.5358 81.4303 47.0492 81.3875 46.7945C81.3447 46.5398 81.3018 46.083 81.3018 46.083C81.3018 46.083 81.199 45.6464 81.0106 46.0426C80.8222 46.4387 80.7365 46.9481 80.7194 47.1301C80.7023 47.312 80.3639 48.4156 80.5738 48.3954H80.5652Z" fill="#231F20"/>
<path d="M88.1071 52.8626C87.8887 52.988 88.7794 48.7795 88.9036 47.9144C89.0278 47.0492 88.8608 46.8915 89.1949 46.2164C89.5289 45.5413 91.6231 42.3394 92.5482 41.2722C93.4732 40.2049 94.2655 38.8587 94.2655 38.8587C94.2655 38.8587 94.6424 40.3019 94.2655 41.0822C93.8887 41.8624 93.3876 42.8933 93.1777 43.6452C92.9679 44.3972 92.1713 46.649 91.7944 47.126C91.4176 47.6031 90.2869 50.1015 90.1585 50.2187C90.03 50.3359 88.651 52.5473 88.1071 52.8626Z" fill="white"/>
<path d="M84.2098 55.5147C84.7023 55.6198 84.7108 55.353 84.6295 54.6819C84.5481 54.0108 83.9999 53.6146 84.2098 53.1618C84.4196 52.709 84.5095 52.3128 84.6552 52.2724C84.8008 52.232 84.8821 51.7105 84.925 51.1C84.9678 50.4896 85.6273 49.1474 86.1969 48.3954C86.7665 47.6435 87.9143 46.4186 88.0727 46.3377C88.2312 46.2568 88.6509 45.3472 88.6509 46.3377C88.6509 47.3282 88.4839 49.4183 88.274 49.7376C88.0641 50.057 86.5995 52.8627 86.5995 53.4165C86.5995 53.9704 86.0085 55.7896 85.8843 57.4511C85.7601 59.1127 85.3318 60.7338 84.1627 60.6166C84.1627 60.6166 84.0856 60.0223 83.122 60.9724C82.1584 61.9224 81.5288 62.5773 81.2804 62.4641C81.032 62.3509 80.0984 62.076 80.8136 61.2068C81.5288 60.3376 82.214 58.8984 80.9849 59.8768C80.9849 59.8768 80.2868 60.9562 80.2183 61.0087C80.1498 61.0613 79.6316 61.6556 79.3233 61.6677C79.0149 61.6798 77.7472 61.6151 78.5395 60.6409C79.3318 59.6666 79.9785 59.2825 80.1755 59.0601C80.3725 58.8378 80.7494 58.5184 80.805 58.4942C80.8607 58.4699 81.5031 57.0833 79.9956 58.1829C78.4881 59.2825 78.5138 59.7717 78.4753 59.8768C78.4367 59.9819 77.7344 61.0613 77.1776 61.0775C76.6209 61.0936 76.1455 60.3781 76.8265 59.6787C77.5074 58.9793 78.0256 58.2556 78.1412 58.0697C78.2569 57.8837 78.4924 57.0024 78.3211 56.8973C78.1498 56.7922 77.9314 56.1858 77.4689 57.532C77.0063 58.8782 76.0299 59.0197 76.0299 59.0197C76.0299 59.0197 74.6209 58.9267 75.3746 58.0171C76.1284 57.1075 76.6723 56.2505 76.8564 56.1049C77.0406 55.9594 78.2098 54.6617 78.3939 54.6778C78.5781 54.694 80.1412 53.9299 80.865 54.4434C81.5888 54.9568 81.8158 55.0498 82.107 54.9447C82.3982 54.8395 83.1134 54.0472 83.1819 53.7844C83.2504 53.5216 83.5459 52.6767 83.7387 53.2831C83.9314 53.8895 83.8372 54.3625 83.9185 54.7466C83.9999 55.1306 84.0856 55.4864 84.2098 55.5106V55.5147Z" fill="white"/>
<path d="M83.4945 61.8415C83.7044 62.0639 84.2483 62.5733 84.6037 62.7714C84.9592 62.9694 85.002 63.2241 85.2761 63.0463C85.5502 62.8684 85.7386 62.6177 85.4003 62.4762C85.062 62.3347 84.5395 62.1366 84.3125 62.0598C84.0855 61.983 83.2889 61.6232 83.4945 61.8415Z" fill="white"/>
<path d="M87.7474 58.6761C87.7474 58.6761 87.8502 58.482 88.2485 58.4618C88.6468 58.4416 89.3791 58.1869 89.5247 58.0858C89.6704 57.9848 89.9659 58.0859 89.816 58.381C89.6661 58.6761 89.7132 59.0561 89.2721 59.1531C88.831 59.2502 88.3941 59.1127 88.2228 59.0157C88.0515 58.9187 87.7432 58.6761 87.7432 58.6761H87.7474Z" fill="#231F20"/>
<path d="M79.6618 63.1069C79.9659 63.1918 79.953 63.9842 79.953 64.2753C79.953 64.5663 80.2871 65.1808 79.953 64.9221C79.619 64.6634 79.4305 64.7038 79.1136 64.5057C78.7967 64.3076 78.968 64.1095 79.1136 63.8548C79.2592 63.6001 79.4477 63.0463 79.6575 63.1029L79.6618 63.1069Z" fill="#231F20"/>
<path d="M81.0665 65.2617C81.1693 65.2455 81.422 65.5366 82.0515 65.9328C82.6811 66.329 82.8909 66.3492 83.0365 66.4462C83.1821 66.5432 83.4348 66.5271 83.0365 66.7454C82.6382 66.9637 82.0515 67.4367 81.7817 67.5943C81.5119 67.752 81.2164 67.946 81.0708 67.752C80.9252 67.5579 80.7367 67.3962 81.1736 67.1213C81.6104 66.8464 81.696 67.0445 81.7175 66.7454C81.7389 66.4462 81.6746 66.2117 81.5076 66.0136C81.3406 65.8155 81.028 65.6174 81.028 65.6174C81.028 65.6174 80.7153 65.3223 81.0708 65.2617H81.0665Z" fill="#231F20"/>
<path d="M8.34269 73.7797V74.5963H8.86945C8.99365 74.5963 9.08359 74.6206 9.13498 74.6731C9.18637 74.7257 9.21207 74.7944 9.21207 74.8753C9.21207 74.9561 9.18637 75.0249 9.13498 75.0774C9.08359 75.13 8.99365 75.1542 8.86945 75.1542H7.7474C7.6232 75.1542 7.53326 75.13 7.48187 75.0774C7.43048 75.0249 7.40479 74.9602 7.40479 74.8753C7.40479 74.7904 7.43048 74.7257 7.48616 74.6731C7.54183 74.6206 7.62748 74.5963 7.75168 74.5963H7.83305V72.4133H7.75168C7.62748 72.4133 7.53755 72.389 7.48616 72.3364C7.43476 72.2839 7.40907 72.2192 7.40907 72.1343C7.40907 72.0494 7.43476 71.9847 7.48616 71.9322C7.53755 71.8796 7.62748 71.8554 7.75168 71.8554H10.1714V72.7124C10.1714 72.8458 10.1457 72.9388 10.0986 72.9954C10.0515 73.052 9.98723 73.0803 9.91014 73.0803C9.83305 73.0803 9.77309 73.052 9.72598 72.9954C9.67887 72.9388 9.65318 72.8418 9.65318 72.7084V72.4133H8.34269V73.2218H8.79237C8.79237 73.0763 8.80521 72.9833 8.83091 72.9428C8.8823 72.8539 8.95511 72.8094 9.05361 72.8094C9.13069 72.8094 9.19065 72.8377 9.23776 72.8943C9.28487 72.9509 9.31057 73.048 9.31057 73.1814V73.8242C9.31057 73.9576 9.28487 74.0546 9.23776 74.1112C9.19065 74.1678 9.12641 74.1961 9.04932 74.1961C8.95511 74.1961 8.8823 74.1516 8.83091 74.0627C8.80521 74.0223 8.79237 73.9252 8.79237 73.7797H8.34269Z" fill="white"/>
<path d="M14.09 72.4092V74.5923H14.6082C14.7324 74.5923 14.8223 74.6165 14.8737 74.6691C14.9251 74.7217 14.9508 74.7904 14.9508 74.8712C14.9508 74.9521 14.9251 75.0208 14.8737 75.0734C14.8223 75.1259 14.7324 75.1502 14.6082 75.1502H13.0535C12.9294 75.1502 12.8394 75.1259 12.788 75.0734C12.7366 75.0208 12.7109 74.9561 12.7109 74.8712C12.7109 74.7863 12.7366 74.7217 12.788 74.6691C12.8394 74.6165 12.9294 74.5923 13.0535 74.5923H13.5718V72.4092H13.0535C12.9294 72.4092 12.8394 72.385 12.788 72.3324C12.7366 72.2798 12.7109 72.2152 12.7109 72.1303C12.7109 72.0454 12.7366 71.9807 12.788 71.9281C12.8394 71.8756 12.9294 71.8513 13.0535 71.8513H14.6082C14.7324 71.8513 14.8223 71.8796 14.8737 71.9322C14.9251 71.9847 14.9508 72.0494 14.9508 72.1343C14.9508 72.2192 14.9251 72.2839 14.8737 72.3364C14.8223 72.389 14.7324 72.4133 14.6082 72.4133H14.09V72.4092Z" fill="white"/>
<path d="M19.2251 72.4092V74.5923H19.572C19.6962 74.5923 19.7861 74.6165 19.8375 74.6691C19.8889 74.7216 19.9146 74.7904 19.9146 74.8712C19.9146 74.9521 19.8889 75.0208 19.8375 75.0734C19.7861 75.1259 19.6962 75.1502 19.572 75.1502H18.3686C18.2444 75.1502 18.1544 75.1259 18.103 75.0734C18.0516 75.0208 18.026 74.9561 18.026 74.8712C18.026 74.7863 18.0516 74.7216 18.103 74.6691C18.1544 74.6165 18.2444 74.5923 18.3686 74.5923H18.7112V72.4092H18.1544V72.9388C18.1544 73.0722 18.1287 73.1692 18.0816 73.2258C18.0345 73.2824 17.9703 73.3107 17.8932 73.3107C17.8161 73.3107 17.7561 73.2824 17.709 73.2258C17.6619 73.1692 17.6362 73.0722 17.6362 72.9388V71.8473H20.3V72.9388C20.3 73.0722 20.2743 73.1692 20.2272 73.2258C20.1801 73.2824 20.1159 73.3107 20.0388 73.3107C19.9617 73.3107 19.9018 73.2824 19.8546 73.2258C19.8075 73.1692 19.7818 73.0722 19.7818 72.9388V72.4092H19.2165H19.2251Z" fill="white"/>
<path d="M23.469 72.9065V74.5963H23.6532C23.7774 74.5963 23.8673 74.6206 23.9187 74.6731C23.9701 74.7257 23.9958 74.7944 23.9958 74.8753C23.9958 74.9561 23.9701 75.0249 23.9187 75.0774C23.8673 75.13 23.7774 75.1542 23.6532 75.1542H22.9765C22.8523 75.1542 22.7624 75.13 22.711 75.0774C22.6596 75.0249 22.6339 74.9602 22.6339 74.8753C22.6339 74.7904 22.6596 74.7297 22.711 74.6772C22.7624 74.6246 22.8438 74.5963 22.9508 74.5963V72.4133H22.8695C22.7453 72.4133 22.6553 72.389 22.6039 72.3364C22.5526 72.2839 22.5269 72.2192 22.5269 72.1343C22.5269 72.0494 22.5526 71.9847 22.6039 71.9322C22.6553 71.8796 22.7453 71.8554 22.8695 71.8554H23.4648L24.7795 74.0991V72.4173H24.5954C24.4712 72.4173 24.3812 72.393 24.3299 72.3405C24.2785 72.2879 24.2528 72.2232 24.2528 72.1384C24.2528 72.0535 24.2785 71.9888 24.3299 71.9362C24.3812 71.8837 24.4712 71.8594 24.5954 71.8594H25.272C25.3962 71.8594 25.4862 71.8877 25.5376 71.9403C25.589 71.9928 25.6147 72.0575 25.6147 72.1424C25.6147 72.2273 25.589 72.292 25.5376 72.3445C25.4862 72.3971 25.4048 72.4254 25.2977 72.4254V75.1704H24.7881L23.4648 72.9226L23.469 72.9065Z" fill="white"/>
<path d="M28.7237 73.7757V74.5963H30.0341V74.2931C30.0341 74.1597 30.0598 74.0627 30.107 74.0061C30.1541 73.9495 30.2183 73.9212 30.2954 73.9212C30.3725 73.9212 30.4324 73.9495 30.4795 74.0061C30.5267 74.0627 30.5524 74.1597 30.5524 74.2931V75.1542H28.1327C28.0085 75.1542 27.9185 75.13 27.8671 75.0774C27.8157 75.0249 27.79 74.9602 27.79 74.8753C27.79 74.7904 27.8157 74.7257 27.8714 74.6731C27.9271 74.6206 28.0127 74.5963 28.1369 74.5963H28.2183V72.4133H28.1369C28.0127 72.4133 27.9228 72.389 27.8714 72.3364C27.82 72.2839 27.7943 72.2192 27.7943 72.1343C27.7943 72.0494 27.82 71.9847 27.8714 71.9322C27.9228 71.8796 28.0127 71.8554 28.1369 71.8554H30.4453V72.7084C30.4453 72.8418 30.4239 72.9348 30.3768 72.9914C30.3297 73.048 30.2697 73.0763 30.1926 73.0763C30.1155 73.0763 30.0513 73.048 30.0042 72.9914C29.9571 72.9348 29.9314 72.8377 29.9314 72.7043V72.4133H28.7322V73.2178H29.1819C29.1819 73.0722 29.1948 72.9792 29.2204 72.9388C29.2718 72.8499 29.3446 72.8054 29.4431 72.8054C29.5202 72.8054 29.5802 72.8337 29.6273 72.8903C29.6744 72.9469 29.7001 73.0439 29.7001 73.1773V73.8201C29.7001 73.9414 29.6873 74.0223 29.6616 74.0667C29.6102 74.1516 29.5374 74.1961 29.4474 74.1961C29.3532 74.1961 29.2804 74.1516 29.2247 74.0627C29.199 74.0223 29.1862 73.9252 29.1862 73.7797H28.7365L28.7237 73.7757Z" fill="white"/>
<path d="M33.6405 75.0127C33.5934 75.0693 33.5592 75.1098 33.5335 75.1259C33.5078 75.1421 33.4735 75.1502 33.4307 75.1502C33.3536 75.1502 33.2894 75.1219 33.2422 75.0653C33.1951 75.0087 33.1694 74.9117 33.1694 74.7823V74.4063C33.1694 74.2729 33.1951 74.1759 33.2422 74.1193C33.2894 74.0627 33.3536 74.0344 33.4307 74.0344C33.4906 74.0344 33.542 74.0506 33.5806 74.0869C33.6234 74.1233 33.6534 74.1799 33.6748 74.2608C33.6962 74.3416 33.7176 74.3942 33.7433 74.4265C33.7904 74.4831 33.8761 74.5397 34.0003 74.5963C34.1245 74.6529 34.2615 74.6853 34.4071 74.6853C34.6384 74.6853 34.8225 74.6287 34.9724 74.5114C35.0667 74.4427 35.1138 74.3538 35.1138 74.2487C35.1138 74.1799 35.0923 74.1152 35.0452 74.0546C34.9981 73.994 34.9253 73.9414 34.8225 73.905C34.754 73.8767 34.6041 73.8403 34.3729 73.7918C34.0902 73.7352 33.8804 73.6665 33.7347 73.5897C33.5891 73.5088 33.4778 73.3956 33.3921 73.2501C33.3065 73.1046 33.2679 72.9469 33.2679 72.7771C33.2679 72.5103 33.3707 72.2758 33.5763 72.0737C33.7819 71.8715 34.0517 71.7705 34.3814 71.7705C34.5142 71.7705 34.6341 71.7866 34.7497 71.819C34.8611 71.8513 34.9639 71.8998 35.0581 71.9645C35.1266 71.8958 35.1908 71.8594 35.2594 71.8594C35.3365 71.8594 35.3964 71.8877 35.4435 71.9443C35.4906 72.0009 35.5163 72.0979 35.5163 72.2313V72.6518C35.5163 72.7852 35.4906 72.8822 35.4435 72.9388C35.3964 72.9954 35.3365 73.0237 35.2594 73.0237C35.1951 73.0237 35.1395 73.0035 35.0923 72.9631C35.0538 72.9307 35.0281 72.8701 35.011 72.7771C34.9938 72.6841 34.9681 72.6194 34.9425 72.579C34.8953 72.5103 34.8225 72.4537 34.724 72.4052C34.6255 72.3567 34.5142 72.3364 34.3857 72.3364C34.2016 72.3364 34.0517 72.385 33.9446 72.4779C33.8375 72.5709 33.7819 72.6679 33.7819 72.769C33.7819 72.8377 33.8033 72.9065 33.8504 72.9712C33.8975 73.0358 33.9574 73.0843 34.0431 73.1207C34.0988 73.145 34.2615 73.1854 34.5228 73.242C34.7883 73.2986 34.9896 73.3593 35.1309 73.428C35.2722 73.4967 35.3878 73.6018 35.4821 73.7433C35.5763 73.8889 35.6234 74.0586 35.6234 74.2567C35.6234 74.5316 35.5335 74.754 35.3536 74.9197C35.118 75.1381 34.814 75.2472 34.4457 75.2472C34.3043 75.2472 34.163 75.227 34.0302 75.1906C33.8975 75.1542 33.7647 75.0976 33.6362 75.0208L33.6405 75.0127Z" fill="white"/>
<path d="M38.7797 75.0127C38.7326 75.0693 38.6983 75.1098 38.6726 75.1259C38.6469 75.1421 38.6127 75.1502 38.5698 75.1502C38.4927 75.1502 38.4285 75.1219 38.3814 75.0653C38.3343 75.0087 38.3086 74.9117 38.3086 74.7823V74.4063C38.3086 74.2729 38.3343 74.1759 38.3814 74.1193C38.4285 74.0627 38.4927 74.0344 38.5698 74.0344C38.6298 74.0344 38.6812 74.0506 38.7197 74.0869C38.7626 74.1233 38.7925 74.1799 38.8139 74.2608C38.8354 74.3416 38.8568 74.3942 38.8825 74.4265C38.9296 74.4831 39.0152 74.5397 39.1394 74.5963C39.2636 74.6529 39.4007 74.6853 39.5463 74.6853C39.7775 74.6853 39.9617 74.6287 40.1116 74.5114C40.2058 74.4427 40.2529 74.3538 40.2529 74.2487C40.2529 74.1799 40.2315 74.1152 40.1844 74.0546C40.1373 73.994 40.0645 73.9414 39.9617 73.905C39.8932 73.8767 39.7433 73.8403 39.512 73.7918C39.2294 73.7352 39.0195 73.6665 38.8739 73.5897C38.7283 73.5088 38.6169 73.3956 38.5313 73.2501C38.4456 73.1046 38.4071 72.9469 38.4071 72.7771C38.4071 72.5103 38.5099 72.2758 38.7154 72.0737C38.921 71.8715 39.1908 71.7705 39.5206 71.7705C39.6533 71.7705 39.7733 71.7866 39.8889 71.819C40.0002 71.8513 40.103 71.8998 40.1972 71.9645C40.2658 71.8958 40.33 71.8594 40.3985 71.8594C40.4756 71.8594 40.5356 71.8877 40.5827 71.9443C40.6298 72.0009 40.6555 72.0979 40.6555 72.2313V72.6518C40.6555 72.7852 40.6298 72.8822 40.5827 72.9388C40.5356 72.9954 40.4756 73.0237 40.3985 73.0237C40.3343 73.0237 40.2786 73.0035 40.2315 72.9631C40.193 72.9307 40.1673 72.8701 40.1501 72.7771C40.133 72.6841 40.1073 72.6194 40.0816 72.579C40.0345 72.5103 39.9617 72.4537 39.8632 72.4052C39.7647 72.3567 39.6533 72.3364 39.5249 72.3364C39.3407 72.3364 39.1908 72.385 39.0838 72.4779C38.9767 72.5709 38.921 72.6679 38.921 72.769C38.921 72.8377 38.9424 72.9065 38.9895 72.9712C39.0366 73.0358 39.0966 73.0843 39.1823 73.1207C39.2379 73.145 39.4007 73.1854 39.6619 73.242C39.9274 73.2986 40.1287 73.3593 40.2701 73.428C40.4114 73.4967 40.527 73.6018 40.6212 73.7433C40.7154 73.8889 40.7626 74.0586 40.7626 74.2567C40.7626 74.5316 40.6726 74.754 40.4928 74.9197C40.2572 75.1381 39.9531 75.2472 39.5848 75.2472C39.4435 75.2472 39.3022 75.227 39.1694 75.1906C39.0366 75.1542 38.9039 75.0976 38.7754 75.0208L38.7797 75.0127Z" fill="white"/>
<path d="M50.4542 71.9928C50.4842 71.9443 50.5227 71.912 50.557 71.8877C50.5913 71.8634 50.6341 71.8513 50.6769 71.8513C50.754 71.8513 50.814 71.8796 50.8611 71.9362C50.9082 71.9928 50.9339 72.0898 50.9339 72.2232V72.6962C50.9339 72.8297 50.9082 72.9267 50.8611 72.9833C50.814 73.0399 50.754 73.0682 50.6769 73.0682C50.6084 73.0682 50.5527 73.048 50.5099 73.0035C50.4671 72.959 50.4371 72.8822 50.4157 72.769C50.4028 72.6922 50.3814 72.6356 50.3471 72.5911C50.2786 72.5103 50.1844 72.4456 50.0602 72.393C49.936 72.3405 49.8118 72.3203 49.6919 72.3203C49.5377 72.3203 49.3964 72.3567 49.2679 72.4294C49.1394 72.5022 49.0238 72.6194 48.9253 72.7852C48.8268 72.9509 48.7754 73.1409 48.7754 73.3673V73.7312C48.7754 74.002 48.8653 74.2244 49.0452 74.4023C49.2251 74.5842 49.4735 74.6731 49.7947 74.6731C49.9874 74.6731 50.1459 74.6448 50.2786 74.5882C50.3557 74.5559 50.4371 74.4912 50.5227 74.3942C50.5741 74.3376 50.617 74.2972 50.6469 74.281C50.6769 74.2648 50.7112 74.2567 50.7497 74.2567C50.8182 74.2567 50.8782 74.285 50.9296 74.3416C50.981 74.3982 51.0067 74.4629 51.0067 74.5397C51.0067 74.6165 50.9724 74.6974 50.8996 74.7863C50.7968 74.9117 50.6683 75.0127 50.5056 75.0855C50.2915 75.1825 50.0516 75.231 49.7904 75.231C49.4863 75.231 49.2122 75.1623 48.9681 75.0289C48.7711 74.9197 48.6041 74.7459 48.4628 74.5114C48.3215 74.2769 48.2529 74.0182 48.2529 73.7433V73.3633C48.2529 73.0722 48.3172 72.8014 48.4414 72.5507C48.5656 72.3001 48.7369 72.106 48.9596 71.9686C49.1823 71.8311 49.4135 71.7624 49.6619 71.7624C49.8118 71.7624 49.9489 71.7826 50.0816 71.819C50.2144 71.8554 50.33 71.912 50.4457 71.9888L50.4542 71.9928Z" fill="white"/>
<path d="M54.4196 72.4092V74.5923H55.5288V74.0627C55.5288 73.9293 55.5545 73.8323 55.6016 73.7757C55.6487 73.7191 55.713 73.6908 55.7901 73.6908C55.8672 73.6908 55.9271 73.7191 55.9742 73.7757C56.0213 73.8323 56.047 73.9293 56.047 74.0627V75.1502H53.6102C53.486 75.1502 53.3961 75.1259 53.3447 75.0734C53.2933 75.0208 53.2676 74.9561 53.2676 74.8712C53.2676 74.7863 53.2933 74.7217 53.3447 74.6691C53.3961 74.6165 53.486 74.5923 53.6102 74.5923H53.91V72.4092H53.6102C53.486 72.4092 53.3961 72.385 53.3447 72.3324C53.2933 72.2798 53.2676 72.2152 53.2676 72.1303C53.2676 72.0454 53.2933 71.9807 53.3447 71.9281C53.3961 71.8756 53.486 71.8513 53.6102 71.8513H54.7237C54.8479 71.8513 54.9378 71.8796 54.9892 71.9322C55.0406 71.9847 55.0663 72.0494 55.0663 72.1343C55.0663 72.2192 55.0406 72.2839 54.9892 72.3364C54.9378 72.389 54.8479 72.4133 54.7237 72.4133H54.4239L54.4196 72.4092Z" fill="white"/>
<path d="M60.7922 72.4092V73.994C60.7922 74.3376 60.6766 74.6327 60.4496 74.8753C60.2226 75.1178 59.9485 75.2391 59.6273 75.2391C59.4689 75.2391 59.319 75.2068 59.1777 75.1461C59.0363 75.0855 58.9121 74.9966 58.8008 74.8793C58.6894 74.7621 58.6038 74.6368 58.5396 74.5114C58.4796 74.3821 58.4453 74.2123 58.4453 73.998V72.4133C58.3383 72.4133 58.2569 72.385 58.2055 72.3324C58.1541 72.2798 58.1284 72.2111 58.1284 72.1303C58.1284 72.0494 58.1541 71.9807 58.2055 71.9281C58.2569 71.8796 58.3468 71.8513 58.471 71.8513H59.1477C59.2719 71.8513 59.3618 71.8756 59.4132 71.9281C59.4646 71.9807 59.4903 72.0454 59.4903 72.1303C59.4903 72.2152 59.4646 72.2798 59.4132 72.3324C59.3618 72.385 59.2719 72.4092 59.1477 72.4092H58.9635V74.0425C58.9635 74.2082 59.0278 74.3578 59.1563 74.4831C59.2847 74.6085 59.4389 74.6772 59.6188 74.6772C59.7387 74.6772 59.85 74.6448 59.9571 74.5842C60.0642 74.5236 60.1498 74.4306 60.2141 74.3133C60.2569 74.2406 60.2783 74.1476 60.2783 74.0425V72.4092H60.0942C59.97 72.4092 59.88 72.385 59.8286 72.3324C59.7772 72.2798 59.7515 72.2152 59.7515 72.1303C59.7515 72.0454 59.7772 71.9807 59.8286 71.9281C59.88 71.8756 59.97 71.8513 60.0942 71.8513H60.7708C60.895 71.8513 60.985 71.8796 61.0363 71.9322C61.0877 71.9847 61.1134 72.0494 61.1134 72.1343C61.1134 72.2192 61.0877 72.2839 61.0363 72.3364C60.985 72.389 60.9036 72.4173 60.7965 72.4173L60.7922 72.4092Z" fill="white"/>
<path d="M63.5547 74.5963V72.4133H63.4734C63.3492 72.4133 63.2592 72.389 63.2078 72.3364C63.1564 72.2839 63.1308 72.2192 63.1308 72.1343C63.1308 72.0494 63.1564 71.9847 63.2078 71.9322C63.2592 71.8796 63.3492 71.8554 63.4734 71.8554H64.7624C65.0708 71.8554 65.3192 71.9483 65.5033 72.1343C65.6918 72.3203 65.786 72.5426 65.786 72.7973C65.786 72.9186 65.7646 73.0318 65.7218 73.1409C65.6789 73.2501 65.6104 73.3471 65.5248 73.4361C65.6875 73.5412 65.8074 73.6665 65.8888 73.804C65.9702 73.9454 66.0087 74.1031 66.0087 74.281C66.0087 74.4225 65.9787 74.5559 65.9188 74.6772C65.8759 74.7702 65.8203 74.8429 65.756 74.8995C65.6704 74.9763 65.5676 75.037 65.4434 75.0855C65.3192 75.134 65.165 75.1583 64.9809 75.1583H63.4691C63.3449 75.1583 63.2549 75.134 63.2036 75.0815C63.1522 75.0289 63.1265 74.9642 63.1265 74.8793C63.1265 74.7944 63.1522 74.7297 63.2078 74.6772C63.2635 74.6246 63.3492 74.6004 63.4734 74.6004H63.5547V74.5963ZM64.0687 73.2218H64.634C64.8352 73.2218 65.0066 73.1652 65.1393 73.0561C65.2293 72.9833 65.2764 72.8903 65.2764 72.7771C65.2764 72.6801 65.2335 72.5911 65.1479 72.5184C65.0622 72.4456 64.9252 72.4092 64.741 72.4092H64.0729V73.2218H64.0687ZM64.0687 74.5963H64.9552C65.165 74.5963 65.3106 74.564 65.3963 74.4953C65.4605 74.4427 65.4948 74.3699 65.4948 74.2769C65.4948 74.1638 65.4305 74.0546 65.3021 73.9454C65.1736 73.8363 64.9894 73.7837 64.7496 73.7837H64.0687V74.6004V74.5963Z" fill="white"/>
<path d="M47.2333 79.2333V80.5593H47.3746C47.4688 80.5593 47.5331 80.5795 47.5716 80.62C47.6102 80.6604 47.6316 80.717 47.6316 80.7817C47.6316 80.8464 47.6102 80.8989 47.5716 80.9394C47.5331 80.9798 47.4646 81 47.3746 81H46.8693C46.775 81 46.7108 80.9798 46.6723 80.9394C46.6337 80.8989 46.6123 80.8423 46.6123 80.7776C46.6123 80.713 46.6337 80.6604 46.6723 80.62C46.7108 80.5795 46.7708 80.5593 46.8521 80.5593V78.821C46.7836 78.8129 46.7322 78.7886 46.698 78.7482C46.6637 78.7078 46.6466 78.6593 46.6466 78.5946C46.6466 78.5299 46.668 78.4733 46.7065 78.4329C46.7451 78.3924 46.8136 78.3722 46.9035 78.3722H47.3275L47.8543 79.7104L48.3682 78.3722H48.7965C48.8907 78.3722 48.9549 78.3924 48.9935 78.4369C49.032 78.4773 49.0534 78.5299 49.0534 78.5986C49.0534 78.6593 49.0363 78.7118 49.002 78.7522C48.9678 78.7927 48.9164 78.8169 48.8479 78.825V80.5634C48.9292 80.5634 48.9892 80.5836 49.0277 80.6281C49.0663 80.6725 49.0877 80.7251 49.0877 80.7898C49.0877 80.8545 49.0663 80.907 49.0277 80.9474C48.9892 80.9879 48.9207 81.0081 48.8307 81.0081H48.3211C48.2312 81.0081 48.1626 80.9879 48.1241 80.9474C48.0855 80.907 48.0641 80.8504 48.0641 80.7857C48.0641 80.721 48.0855 80.6685 48.1241 80.6281C48.1626 80.5876 48.2312 80.5674 48.3211 80.5674H48.4624V79.2414L48.0213 80.3855H47.6873L47.2376 79.2414L47.2333 79.2333Z" fill="#231F20"/>
<path d="M50.6208 80.2844H49.6829L49.5887 80.5553H49.6829C49.7771 80.5553 49.8413 80.5755 49.8799 80.6159C49.9184 80.6564 49.9398 80.713 49.9398 80.7776C49.9398 80.8423 49.9184 80.8949 49.8799 80.9353C49.8413 80.9757 49.7728 80.996 49.6829 80.996H49.1647C49.0705 80.996 49.0062 80.9757 48.9677 80.9353C48.9291 80.8949 48.9077 80.8383 48.9077 80.7736C48.9077 80.7089 48.9291 80.6523 48.9677 80.6119C49.0062 80.5715 49.079 80.5512 49.1732 80.5553L49.7814 78.8169H49.5287C49.4345 78.8169 49.3702 78.7967 49.3317 78.7563C49.2932 78.7159 49.2717 78.6593 49.2717 78.5946C49.2717 78.5299 49.2932 78.4733 49.3317 78.4329C49.3702 78.3924 49.4388 78.3722 49.5287 78.3722H50.3638L51.1304 80.5553C51.2203 80.5553 51.2803 80.5674 51.3103 80.5876C51.366 80.6361 51.3959 80.6968 51.3959 80.7776C51.3959 80.8423 51.3745 80.8949 51.336 80.9353C51.2974 80.9757 51.2332 80.996 51.139 80.996H50.6208C50.5266 80.996 50.4623 80.9757 50.4238 80.9353C50.3852 80.8949 50.3638 80.8383 50.3638 80.7736C50.3638 80.7089 50.3852 80.6564 50.4238 80.6159C50.4623 80.5755 50.5308 80.5553 50.6208 80.5553H50.715L50.6208 80.2844ZM50.4623 79.8397L50.1497 78.9584L49.8371 79.8397H50.4623Z" fill="#231F20"/>
<path d="M52.4626 80.3532L53.0236 78.821H52.9337C52.8394 78.821 52.7752 78.8008 52.7367 78.7603C52.6981 78.7199 52.6767 78.6633 52.6767 78.5986C52.6767 78.5339 52.6981 78.4773 52.7367 78.4369C52.7752 78.3965 52.8437 78.3763 52.9337 78.3763H53.4519C53.5461 78.3763 53.6103 78.3965 53.6489 78.441C53.6874 78.4814 53.7088 78.5339 53.7088 78.6027C53.7088 78.6835 53.6788 78.7442 53.6189 78.7927C53.5889 78.8169 53.5289 78.8291 53.4433 78.8291L52.651 81.0121H52.2784L51.4861 78.8291C51.3962 78.8291 51.3362 78.8169 51.3062 78.7927C51.2463 78.7482 51.2163 78.6835 51.2163 78.6027C51.2163 78.538 51.2377 78.4814 51.2763 78.441C51.3148 78.4005 51.3833 78.3803 51.4733 78.3803H51.9958C52.0857 78.3803 52.1542 78.4005 52.1928 78.445C52.2313 78.4854 52.2527 78.538 52.2527 78.6067C52.2527 78.6754 52.2313 78.728 52.1928 78.7684C52.1542 78.8088 52.09 78.8291 51.9958 78.8291H51.9058L52.4626 80.3612V80.3532Z" fill="#231F20"/>
<path d="M54.9677 78.8169V80.5553H55.3574C55.4516 80.5553 55.5158 80.5755 55.5544 80.6159C55.5929 80.6564 55.6143 80.713 55.6143 80.7776C55.6143 80.8423 55.5929 80.8949 55.5544 80.9353C55.5158 80.9757 55.4473 80.996 55.3574 80.996H54.1925C54.0983 80.996 54.034 80.9757 53.9955 80.9353C53.957 80.8949 53.9355 80.8383 53.9355 80.7736C53.9355 80.7089 53.957 80.6564 53.9955 80.6159C54.034 80.5755 54.1026 80.5553 54.1925 80.5553H54.5822V78.8169H54.1925C54.0983 78.8169 54.034 78.7967 53.9955 78.7563C53.957 78.7159 53.9355 78.6593 53.9355 78.5946C53.9355 78.5299 53.957 78.4733 53.9955 78.4329C54.034 78.3924 54.1026 78.3722 54.1925 78.3722H55.3574C55.4516 78.3722 55.5158 78.3924 55.5544 78.4369C55.5929 78.4773 55.6143 78.5299 55.6143 78.5986C55.6143 78.6673 55.5929 78.7199 55.5544 78.7603C55.5158 78.8008 55.4473 78.821 55.3574 78.821H54.9677V78.8169Z" fill="#231F20"/>
<path d="M57.276 78.8169V80.5553H57.5373C57.6315 80.5553 57.6957 80.5755 57.7343 80.6159C57.7728 80.6564 57.7942 80.713 57.7942 80.7776C57.7942 80.8423 57.7728 80.8949 57.7343 80.9353C57.6957 80.9757 57.6272 80.996 57.5373 80.996H56.6336C56.5394 80.996 56.4752 80.9757 56.4366 80.9353C56.3981 80.8949 56.3767 80.8383 56.3767 80.7736C56.3767 80.7089 56.3981 80.6564 56.4366 80.6159C56.4752 80.5755 56.5437 80.5553 56.6336 80.5553H56.8906V78.8169H56.4709V79.2374C56.4709 79.3425 56.4538 79.4193 56.4152 79.4678C56.3809 79.5123 56.3338 79.5365 56.2739 79.5365C56.2139 79.5365 56.1711 79.5123 56.1368 79.4678C56.1026 79.4233 56.0854 79.3465 56.0854 79.2374V78.3722H58.0854V79.2374C58.0854 79.3425 58.0683 79.4193 58.0341 79.4678C57.9998 79.5123 57.9527 79.5365 57.8927 79.5365C57.8328 79.5365 57.7899 79.5123 57.7557 79.4678C57.7214 79.4233 57.7043 79.3465 57.7043 79.2374V78.8169H57.2803H57.276Z" fill="#231F20"/>
<path d="M59.8242 79.9125H58.9977V80.5553H59.0576C59.1519 80.5553 59.2161 80.5755 59.2546 80.6159C59.2932 80.6564 59.3146 80.713 59.3146 80.7776C59.3146 80.8423 59.2932 80.8949 59.2546 80.9353C59.2161 80.9757 59.1476 80.996 59.0576 80.996H58.5866C58.4923 80.996 58.4281 80.9757 58.3895 80.9353C58.351 80.8949 58.3296 80.8383 58.3296 80.7736C58.3296 80.6927 58.3596 80.6281 58.4238 80.5836C58.4538 80.5593 58.518 80.5513 58.6165 80.5513V78.8129C58.548 78.8048 58.4966 78.7805 58.4624 78.7401C58.4281 78.6997 58.411 78.6512 58.411 78.5865C58.411 78.5218 58.4324 78.4652 58.4709 78.4248C58.5095 78.3844 58.578 78.3641 58.6679 78.3641H59.0619C59.1561 78.3641 59.2204 78.3844 59.2589 78.4288C59.2975 78.4692 59.3189 78.5218 59.3189 78.5905C59.3189 78.6593 59.2975 78.7118 59.2589 78.7522C59.2204 78.7927 59.1519 78.8129 59.0619 78.8129H59.002V79.4638H59.8285V78.8129H59.7686C59.6743 78.8129 59.6101 78.7927 59.5716 78.7522C59.533 78.7118 59.5116 78.6552 59.5116 78.5905C59.5116 78.5258 59.533 78.4692 59.5716 78.4288C59.6101 78.3884 59.6786 78.3682 59.7686 78.3682H60.1626C60.2568 78.3682 60.321 78.3884 60.3596 78.4329C60.3981 78.4733 60.4195 78.5258 60.4195 78.5946C60.4195 78.6552 60.4024 78.7078 60.3681 78.7482C60.3339 78.7886 60.2825 78.8129 60.214 78.821V80.5593C60.3125 80.5593 60.3767 80.5715 60.4067 80.5917C60.4666 80.6361 60.5009 80.7008 60.5009 80.7817C60.5009 80.8464 60.4795 80.8989 60.4409 80.9394C60.4024 80.9798 60.3339 81 60.2439 81H59.7728C59.6786 81 59.6144 80.9798 59.5758 80.9394C59.5373 80.8989 59.5159 80.8423 59.5159 80.7776C59.5159 80.713 59.5373 80.6604 59.5758 80.62C59.6144 80.5795 59.6829 80.5593 59.7728 80.5593H59.8328V79.9165L59.8242 79.9125Z" fill="#231F20"/>
<path d="M61.9016 78.8169V80.5553H62.1629C62.2571 80.5553 62.3213 80.5755 62.3599 80.6159C62.3984 80.6564 62.4198 80.713 62.4198 80.7776C62.4198 80.8423 62.3984 80.8949 62.3599 80.9353C62.3213 80.9757 62.2528 80.996 62.1629 80.996H61.2592C61.165 80.996 61.1008 80.9757 61.0622 80.9353C61.0237 80.8949 61.0023 80.8383 61.0023 80.7736C61.0023 80.7089 61.0237 80.6564 61.0622 80.6159C61.1008 80.5755 61.1693 80.5553 61.2592 80.5553H61.5162V78.8169H61.1008V79.2374C61.1008 79.3425 61.0836 79.4193 61.0451 79.4678C61.0108 79.5123 60.9637 79.5365 60.9038 79.5365C60.8438 79.5365 60.801 79.5123 60.7667 79.4678C60.7325 79.4233 60.7153 79.3465 60.7153 79.2374V78.3722H62.7153V79.2374C62.7153 79.3425 62.6982 79.4193 62.6639 79.4678C62.6297 79.5123 62.5826 79.5365 62.5226 79.5365C62.4627 79.5365 62.4198 79.5123 62.3856 79.4678C62.3513 79.4233 62.3342 79.3465 62.3342 79.2374V78.8169H61.9102H61.9016Z" fill="#231F20"/>
<path d="M64.4497 79.9125H63.6232V80.5553H63.6831C63.7773 80.5553 63.8416 80.5755 63.8801 80.6159C63.9187 80.6564 63.9401 80.713 63.9401 80.7776C63.9401 80.8423 63.9187 80.8949 63.8801 80.9353C63.8416 80.9757 63.7731 80.996 63.6831 80.996H63.212C63.1178 80.996 63.0536 80.9757 63.015 80.9353C62.9765 80.8949 62.9551 80.8383 62.9551 80.7736C62.9551 80.6927 62.9851 80.6281 63.0493 80.5836C63.0793 80.5593 63.1435 80.5513 63.242 80.5513V78.8129C63.1735 78.8048 63.1221 78.7805 63.0878 78.7401C63.0536 78.6997 63.0364 78.6512 63.0364 78.5865C63.0364 78.5218 63.0579 78.4652 63.0964 78.4248C63.135 78.3844 63.2035 78.3641 63.2934 78.3641H63.6874C63.7816 78.3641 63.8459 78.3844 63.8844 78.4288C63.923 78.4692 63.9444 78.5218 63.9444 78.5905C63.9444 78.6593 63.923 78.7118 63.8844 78.7522C63.8459 78.7927 63.7774 78.8129 63.6874 78.8129H63.6275V79.4638H64.454V78.8129H64.3941C64.2998 78.8129 64.2356 78.7927 64.197 78.7522C64.1585 78.7118 64.1371 78.6552 64.1371 78.5905C64.1371 78.5258 64.1585 78.4692 64.197 78.4288C64.2356 78.3884 64.3041 78.3682 64.3941 78.3682H64.7881C64.8823 78.3682 64.9465 78.3884 64.9851 78.4329C65.0236 78.4733 65.045 78.5258 65.045 78.5946C65.045 78.6552 65.0279 78.7078 64.9936 78.7482C64.9594 78.7886 64.908 78.8129 64.8394 78.821V80.5593C64.9379 80.5593 65.0022 80.5715 65.0322 80.5917C65.0921 80.6361 65.1264 80.7008 65.1264 80.7817C65.1264 80.8464 65.105 80.8989 65.0664 80.9394C65.0279 80.9798 64.9594 81 64.8694 81H64.3983C64.3041 81 64.2399 80.9798 64.2013 80.9394C64.1628 80.8989 64.1414 80.8423 64.1414 80.7776C64.1414 80.713 64.1628 80.6604 64.2013 80.62C64.2399 80.5795 64.3084 80.5593 64.3983 80.5593H64.4583V79.9165L64.4497 79.9125Z" fill="#231F20"/>
<path d="M66.8093 80.2844H65.8714L65.7771 80.5553H65.8714C65.9656 80.5553 66.0298 80.5755 66.0684 80.6159C66.1069 80.6564 66.1283 80.713 66.1283 80.7776C66.1283 80.8423 66.1069 80.8949 66.0684 80.9353C66.0298 80.9757 65.9613 80.996 65.8714 80.996H65.3532C65.2589 80.996 65.1947 80.9757 65.1561 80.9353C65.1176 80.8949 65.0962 80.8383 65.0962 80.7736C65.0962 80.7089 65.1176 80.6523 65.1604 80.6119C65.2033 80.5715 65.2718 80.5512 65.366 80.5553L65.9741 78.8169H65.7215C65.6272 78.8169 65.563 78.7967 65.5245 78.7563C65.4859 78.7159 65.4645 78.6593 65.4645 78.5946C65.4645 78.5299 65.4859 78.4733 65.5245 78.4329C65.563 78.3924 65.6315 78.3722 65.7215 78.3722H66.5566L67.3232 80.5553C67.4131 80.5553 67.4731 80.5674 67.503 80.5876C67.5587 80.6361 67.5887 80.6968 67.5887 80.7776C67.5887 80.8423 67.5673 80.8949 67.5287 80.9353C67.4902 80.9757 67.426 80.996 67.3317 80.996H66.8135C66.7193 80.996 66.6551 80.9757 66.6165 80.9353C66.578 80.8949 66.5566 80.8383 66.5566 80.7736C66.5566 80.7089 66.578 80.6564 66.6165 80.6159C66.6551 80.5755 66.7236 80.5553 66.8135 80.5553H66.9078L66.8135 80.2844H66.8093ZM66.6508 79.8397L66.3424 78.9584L66.0298 79.8397H66.6551H66.6508Z" fill="#231F20"/>
<path d="M68.2569 79.9974V80.5553H68.394C68.4882 80.5553 68.5524 80.5755 68.591 80.6159C68.6295 80.6564 68.6509 80.713 68.6509 80.7776C68.6509 80.8423 68.6295 80.8949 68.591 80.9353C68.5524 80.9757 68.4839 80.996 68.394 80.996H67.8073C67.713 80.996 67.6488 80.9757 67.6102 80.9353C67.5717 80.8949 67.5503 80.8383 67.5503 80.7736C67.5503 80.7089 67.5717 80.6564 67.6102 80.6159C67.6488 80.5755 67.7173 80.5553 67.8073 80.5553H67.8672V78.8169H67.8073C67.713 78.8169 67.6488 78.7967 67.6102 78.7563C67.5717 78.7159 67.5503 78.6593 67.5503 78.5946C67.5503 78.5299 67.5717 78.4733 67.6102 78.4329C67.6488 78.3924 67.7173 78.3722 67.8073 78.3722H68.6809C68.955 78.3722 69.1649 78.4531 69.3148 78.6067C69.4646 78.7603 69.5417 78.9503 69.5417 79.1727C69.5417 79.3101 69.5075 79.4395 69.4347 79.5527C69.3619 79.6659 69.2591 79.767 69.1177 79.8559C69.1991 79.9368 69.2848 80.0419 69.379 80.1712C69.4347 80.2521 69.516 80.3815 69.6102 80.5593C69.7088 80.5593 69.773 80.5715 69.803 80.5917C69.8586 80.6362 69.8886 80.7008 69.8886 80.7817C69.8886 80.8464 69.8672 80.8989 69.8287 80.9394C69.7901 80.9798 69.7259 81 69.6317 81H69.4133C69.1006 80.4421 68.8437 80.1106 68.6338 79.9974H68.2526H68.2569ZM68.2569 79.5527H68.5567C68.6681 79.5527 68.7666 79.5325 68.8565 79.4921C68.9764 79.4395 69.0535 79.3869 69.0963 79.3263C69.1392 79.2697 69.1563 79.2131 69.1563 79.1565C69.1563 79.0716 69.1177 78.9948 69.0407 78.922C68.9636 78.8493 68.8479 78.8169 68.698 78.8169H68.2569V79.5527Z" fill="#231F20"/>
<path d="M71.4386 80.2844H70.5007L70.4065 80.5553H70.5007C70.595 80.5553 70.6592 80.5755 70.6978 80.6159C70.7363 80.6564 70.7577 80.713 70.7577 80.7776C70.7577 80.8423 70.7363 80.8949 70.6978 80.9353C70.6592 80.9757 70.5907 80.996 70.5007 80.996H69.9825C69.8883 80.996 69.8241 80.9757 69.7855 80.9353C69.747 80.8949 69.7256 80.8383 69.7256 80.7736C69.7256 80.7089 69.747 80.6523 69.7898 80.6119C69.8327 80.5715 69.9012 80.5512 69.9954 80.5553L70.6035 78.8169H70.3509C70.2566 78.8169 70.1924 78.7967 70.1539 78.7563C70.1153 78.7159 70.0939 78.6593 70.0939 78.5946C70.0939 78.5299 70.1153 78.4733 70.1539 78.4329C70.1924 78.3924 70.2609 78.3722 70.3509 78.3722H71.186L71.9526 80.5553C72.0425 80.5553 72.1025 80.5674 72.1324 80.5876C72.1881 80.6361 72.2181 80.6968 72.2181 80.7776C72.2181 80.8423 72.1967 80.8949 72.1581 80.9353C72.1196 80.9757 72.0554 80.996 71.9611 80.996H71.4429C71.3487 80.996 71.2845 80.9757 71.2459 80.9353C71.2074 80.8949 71.186 80.8383 71.186 80.7736C71.186 80.7089 71.2074 80.6564 71.2459 80.6159C71.2845 80.5755 71.353 80.5553 71.4429 80.5553H71.5371L71.4429 80.2844H71.4386ZM71.2802 79.8397L70.9718 78.9584L70.6592 79.8397H71.2845H71.2802Z" fill="#231F20"/>
<path d="M17.7219 48.3752H16.9424V47.2028H14.1587V50.0166H16.3429V49.4385H17.0067V51.3992H16.3429V50.8211H14.1587V53.7076H15.0152V54.7668H12.4585V53.7076H13.2379V47.2069H12.4585V46.1356H17.7262V48.3793L17.7219 48.3752Z" fill="white"/>
<path d="M21.9915 47.1948H21.2121V53.7076H21.9915V54.7668H19.499V53.7076H20.2785V47.1948H19.499V46.1356H21.9915V47.1948Z" fill="white"/>
<path d="M28.8352 48.8806H27.9145V47.8214L27.3791 47.1907H25.5504L24.8652 47.979V52.8748L25.5804 53.6995H27.1222L27.9145 52.7858V50.9343H26.5226V50.1823H28.8352V54.7587H27.9487V53.7844L27.105 54.7587H25.2635L23.9487 53.2427V47.5707L25.1993 46.1275H27.7774L28.8352 47.3484V48.8765V48.8806Z" fill="white"/>
<path d="M36.4886 47.1948H35.6963V53.4448L34.5614 54.7627H32.1631L31.0197 53.4448V47.1948H30.2402V46.1356H32.6257V47.1948H31.9533V52.9556L32.5957 53.7076H34.1589L34.8013 52.9556V47.1948H34.116V46.1356H36.4929V47.1948H36.4886Z" fill="white"/>
<path d="M43.298 47.3524V49.7942L42.283 50.9666H41.7263L42.9254 53.7035H43.6106V54.7627H41.3108V53.7035H41.9532L40.7541 50.9666H39.662V53.7035H40.313V54.7627H37.9575V53.7035H38.737V47.2028H37.9575V46.1315H42.2487L43.298 47.3524ZM39.6577 47.2028V50.15H41.8419L42.3772 49.5355V47.8214L41.8419 47.2028H39.6577Z" fill="white"/>
<path d="M50.343 48.3631H49.5635V47.2028H46.7798V49.8306H48.6727V49.2525H49.3365V51.2132H48.6727V50.6351H46.7798V53.7076H49.5721V52.5473H50.3558V54.7668H45.0796V53.7076H45.859V47.2069H45.0796V46.1356H50.3473V48.3671L50.343 48.3631Z" fill="white"/>
<path d="M17.7646 65.4274H18.6083V66.4866H16.1244V65.4274H16.7882L16.4156 63.8629H14.1586L13.786 65.4274H14.4284V66.4866H12.1372V65.4274H12.9595L14.5012 58.9146H13.6575V57.8554H16.0558L17.7689 65.4274H17.7646ZM14.2871 63.1958H16.2571L15.2721 59.0035L14.2871 63.1958Z" fill="white"/>
<path d="M25.3664 59.0763V61.5181L24.3514 62.6905H23.7946L24.9938 65.4274H25.679V66.4866H23.3792V65.4274H24.0216L22.8225 62.6905H21.7304V65.4274H22.3813V66.4866H20.0259V65.4274H20.8053V58.9267H20.0259V57.8554H24.3171L25.3664 59.0763ZM21.7261 58.9267V61.8739H23.9102L24.4456 61.2594V59.5453L23.9102 58.9267H21.7261Z" fill="white"/>
<path d="M32.334 60.3862H31.5417V58.8701H30.077V65.4315H30.9635V66.4907H28.2655V65.4315H29.152V58.8701H27.6873V60.3862H26.895V57.8595H32.334V60.3862Z" fill="white"/>
<path d="M36.5096 58.9186H35.7302V65.4315H36.5096V66.4907H34.0171V65.4315H34.7965V58.9186H34.0171V57.8595H36.5096V58.9186Z" fill="white"/>
<path d="M43.0967 59.0763V60.2972H42.1759V59.5453L41.632 58.9146H39.889L39.3451 59.5453V61.0734L39.7519 61.5181H42.3215L43.1781 62.4803V65.2051L42.0646 66.4866H39.5378L38.4243 65.2051V63.6284H39.3451V64.7644L39.9232 65.4315H41.6791L42.2444 64.7644V62.9775L41.859 62.5207H39.2894L38.4243 61.5343V59.0804L39.4821 57.8595H42.0517L43.101 59.0804L43.0967 59.0763Z" fill="white"/>
<path d="M50.0645 60.3862H49.2722V58.8701H47.8075V65.4315H48.694V66.4907H45.9959V65.4315H46.8824V58.8701H45.4178V60.3862H44.6255V57.8595H50.0645V60.3862Z" fill="white"/>
<path d="M87.2679 64.8453C87.4349 64.7846 89.2978 63.4627 89.2978 63.4627H91.0794L92.21 64.7159L91.3107 67.5175H87.9188L86.998 66.5513L87.2721 64.8493L87.2679 64.8453Z" fill="#231F20"/>
<path d="M92.6079 67.3558C92.6721 67.2952 93.7385 65.4881 93.7385 65.4881L94.9548 67.2386L92.6079 67.3558Z" fill="#231F20"/>
<path d="M92.0216 68.5444H95.2079L96.0002 70.2464L94.9552 71.8877L93.3193 72.9348L91.7904 72.8135L90.6812 71.5279L92.0216 68.5444Z" fill="#231F20"/>
<path d="M86.3297 61.9345L88.5439 61.1866L84.5225 66.5473V63.8669L86.1927 62.6501L86.3297 61.9345Z" fill="#231F20"/>
</g>
<defs>
<clipPath id="clip0_203_19">
<rect width="96" height="81" fill="white"/>
</clipPath>
</defs>
</svg>
