<svg width="72" height="73" viewBox="0 0 72 73" fill="none" xmlns="http://www.w3.org/2000/svg">
<g clip-path="url(#clip0_88_31)">
<path d="M53.6916 17.9885C53.6916 8.21841 45.7784 0.296875 35.9998 0.296875C26.2296 0.296875 18.3081 8.21841 18.3081 17.9885C18.3081 27.7588 26.2296 35.6802 35.9998 35.6802C45.7788 35.6802 53.6916 27.7588 53.6916 17.9885ZM22.7308 18.3713C22.7308 18.3713 22.2206 13.353 25.8354 9.5254C28.3796 12.0757 35.9998 18.3713 49.2687 18.3713C49.2687 25.6884 43.3165 31.6403 35.9998 31.6403C28.683 31.6403 22.7308 25.6881 22.7308 18.3713Z" fill="white"/>
<path d="M5.63477 49.2895V57.1146V67.2362C5.63477 70.0337 7.90328 72.2969 10.6955 72.2969H61.3043C64.1017 72.2969 66.365 70.0333 66.365 67.2362V57.1146V49.2895C66.365 43.6998 61.8379 39.1679 56.2434 39.1679H47.2701C46.636 39.1679 45.8367 39.5959 45.4851 40.1234L36.6373 52.6295C36.2856 53.1573 35.7152 53.1573 35.3635 52.6295L26.5153 40.1229C26.1636 39.595 25.3643 39.1675 24.7301 39.1675H15.7564C10.1715 39.1675 5.63477 43.6996 5.63477 49.2895Z" fill="white"/>
</g>
<defs>
<clipPath id="clip0_88_31">
<rect width="72" height="72" fill="white" transform="translate(0 0.296875)"/>
</clipPath>
</defs>
</svg>
