<svg width="35" height="35" viewBox="0 0 35 35" fill="none" xmlns="http://www.w3.org/2000/svg">
<path fill-rule="evenodd" clip-rule="evenodd" d="M7.95083 4.375H27.0484C29.0238 4.375 30.625 5.97625 30.625 7.95083V27.0484C30.625 29.0238 29.0238 30.625 27.0492 30.625H7.95083C5.97625 30.625 4.375 29.0238 4.375 27.0492V7.95083C4.375 5.97625 5.97625 4.375 7.95083 4.375Z" fill="#212121"/>
<path fill-rule="evenodd" clip-rule="evenodd" d="M21.2975 15.026C22.4466 15.8471 23.8546 16.3298 25.375 16.3298V13.4051C25.0869 13.4051 24.8004 13.3752 24.5189 13.3154V15.6174C22.9986 15.6174 21.5913 15.1339 20.4414 14.3136V20.2811C20.4414 23.2663 18.0199 25.6864 15.0332 25.6864C13.919 25.6864 12.8829 25.3496 12.0225 24.7721C13.0046 25.7754 14.374 26.3981 15.8892 26.3981C18.8759 26.3981 21.2975 23.978 21.2975 20.9928V15.026ZM22.354 12.0758C21.767 11.4349 21.3813 10.6058 21.2975 9.68924V9.31299H20.4859C20.6901 10.4775 21.3871 11.4728 22.354 12.0758ZM13.9117 22.4817C13.5836 22.0515 13.4064 21.5258 13.4071 20.9848C13.4071 19.619 14.5148 18.5122 15.8812 18.5122C16.1357 18.5122 16.3887 18.5508 16.6315 18.6281V15.6385C16.3479 15.5999 16.062 15.5831 15.7755 15.5889V17.9157C15.5327 17.8384 15.2796 17.7998 15.0244 17.7998C13.658 17.7998 12.5504 18.9066 12.5504 20.2724C12.5511 21.2385 13.1045 22.0749 13.9117 22.4817Z" fill="#EC407A"/>
<path fill-rule="evenodd" clip-rule="evenodd" d="M20.4414 14.3136C21.5905 15.1347 22.9986 15.6174 24.5189 15.6174V13.3154C23.6701 13.1346 22.9191 12.6912 22.354 12.0751C21.3871 11.4721 20.6908 10.4775 20.4866 9.31299H18.3552V20.9928C18.3501 22.3541 17.2447 23.4566 15.8812 23.4566C15.0776 23.4566 14.3638 23.0738 13.9117 22.481C13.1045 22.0741 12.5511 21.2378 12.5511 20.2724C12.5511 18.9066 13.6587 17.7998 15.0251 17.7998C15.2869 17.7998 15.5392 17.8406 15.7762 17.9157V15.5897C12.842 15.6502 10.4824 18.0462 10.4824 20.9935C10.4824 22.465 11.0701 23.7986 12.0239 24.7728C12.8843 25.3503 13.9204 25.6872 15.0346 25.6872C18.0213 25.6872 20.4428 23.2671 20.4428 20.2818L20.4414 14.3136Z" fill="white"/>
<path fill-rule="evenodd" clip-rule="evenodd" d="M24.519 13.3161V12.6934C23.7533 12.6949 23.0037 12.4805 22.3541 12.0751C22.9286 12.7043 23.6855 13.1382 24.519 13.3161ZM20.4859 9.31298C20.4662 9.20142 20.4517 9.08986 20.4415 8.97684V8.60059H17.4985V20.2811C17.4942 21.6425 16.388 22.745 15.0245 22.745C14.6242 22.745 14.2465 22.6502 13.9118 22.481C14.3639 23.0738 15.0777 23.4566 15.8813 23.4566C17.2448 23.4566 18.3502 22.3541 18.3553 20.9928V9.31298H20.4859ZM15.7755 15.5896V14.9268C15.5298 14.8933 15.2819 14.8765 15.0332 14.8765C12.0458 14.8765 9.625 17.2966 9.625 20.2818C9.625 22.1536 10.5766 23.803 12.0225 24.7728C11.0688 23.7986 10.481 22.465 10.481 20.9935C10.481 18.0462 12.8414 15.6502 15.7755 15.5896Z" fill="#81D4FA"/>
</svg>
