<svg width="72" height="73" viewBox="0 0 72 73" fill="none" xmlns="http://www.w3.org/2000/svg">
<g clip-path="url(#clip0_88_40)">
<path d="M54.0568 17.9885C54.0568 8.21841 46.1437 0.296875 36.365 0.296875C26.5949 0.296875 18.6733 8.21841 18.6733 17.9885C18.6733 27.7588 26.5949 35.6802 36.365 35.6802C46.144 35.6802 54.0568 27.7588 54.0568 17.9885ZM23.096 18.3713C23.096 18.3713 22.5858 13.353 26.2006 9.5254C28.7448 12.0757 36.365 18.3713 49.634 18.3713C49.634 25.6884 43.6818 31.6403 36.365 31.6403C29.0483 31.6403 23.096 25.6881 23.096 18.3713Z" fill="white"/>
<path d="M6 49.2895V57.1146V67.2362C6 70.0337 8.26851 72.2969 11.0607 72.2969H61.6695C64.467 72.2969 66.7302 70.0333 66.7302 67.2362V57.1146V49.2895C66.7302 43.6998 62.2031 39.1679 56.6086 39.1679H47.6354C47.0012 39.1679 46.2019 39.5959 45.8503 40.1234L37.0025 52.6295C36.6508 53.1573 36.0804 53.1573 35.7287 52.6295L26.8805 40.1229C26.5288 39.595 25.7295 39.1675 25.0954 39.1675H16.1216C10.5368 39.1675 6 43.6996 6 49.2895Z" fill="white"/>
<path d="M33.4931 59.2969C33.2386 59.2969 33.0421 59.3777 32.9843 59.5975L31.2265 65.8656L29.4571 59.5975C29.3993 59.3777 29.2026 59.2969 28.9483 59.2969C28.5435 59.2969 28 59.5514 28 59.9213C28 59.9443 28.0115 59.9907 28.0231 60.037L30.2552 67.3113C30.3709 67.6583 30.7872 67.8201 31.2267 67.8201C31.6661 67.8201 32.0941 67.6583 32.1982 67.3113L34.4187 60.037C34.4303 59.9907 34.4419 59.9561 34.4419 59.9213C34.4416 59.5628 33.898 59.2969 33.4931 59.2969Z" fill="#D42129"/>
<path d="M35.9907 59.2969C35.6092 59.2969 35.239 59.4357 35.239 59.7594V67.2768C35.239 67.5889 35.6091 67.7509 35.9907 67.7509C36.3608 67.7509 36.7425 67.589 36.7425 67.2768V59.7594C36.7425 59.4357 36.3608 59.2969 35.9907 59.2969Z" fill="#D42129"/>
<path d="M41.021 59.2969H38.6966C38.3496 59.2969 38.1298 59.5167 38.1298 59.7594L38.1296 67.2768C38.1296 67.5889 38.4997 67.7509 38.8814 67.7509C39.2516 67.7509 39.6332 67.5889 39.6332 67.2768V64.5936H40.9285C42.4552 64.5936 43.6462 63.865 43.6462 61.9684V61.8992C43.6463 60.0023 42.4897 59.2969 41.021 59.2969ZM42.1429 62.0841C42.1429 62.9861 41.6802 63.4141 40.9285 63.4141H39.6332V60.6154H40.9285C41.6802 60.6154 42.1429 61.0432 42.1429 61.9452V62.0841Z" fill="#D42129"/>
</g>
<defs>
<clipPath id="clip0_88_40">
<rect width="72" height="72" fill="white" transform="translate(0 0.296875)"/>
</clipPath>
</defs>
</svg>
