<svg width="35" height="35" viewBox="0 0 35 35" fill="none" xmlns="http://www.w3.org/2000/svg">
<path d="M31.5001 24.7188C31.2084 26.25 29.9688 27.4167 28.4376 27.6354C26.0313 28 22.0209 28.4375 17.5001 28.4375C13.0522 28.4375 9.04175 28 6.56258 27.6354C5.03133 27.4167 3.79175 26.25 3.50008 24.7188C3.20841 23.0417 2.91675 20.5625 2.91675 17.5C2.91675 14.4375 3.20841 11.9583 3.50008 10.2813C3.79175 8.75 5.03133 7.58333 6.56258 7.36458C8.96883 7 12.9792 6.5625 17.5001 6.5625C22.0209 6.5625 25.9584 7 28.4376 7.36458C29.9688 7.58333 31.2084 8.75 31.5001 10.2813C31.7917 11.9583 32.1563 14.4375 32.1563 17.5C32.0834 20.5625 31.7917 23.0417 31.5001 24.7188Z" fill="#FF3D00"/>
<path d="M14.5833 22.6043V12.396L23.3333 17.5002L14.5833 22.6043Z" fill="white"/>
</svg>
